  0
SECTION
  2
HEADER
  9
$ACADVER
  1
AC1014
  9
$ACADMAINTVER
 70
     9
  9
$DWGCODEPAGE
  3
ANSI_1252
  9
$INSBASE
 10
0.0
 20
0.0
 30
0.0
  9
$EXTMIN
 10
-73.02499999999999
 20
-18.938
 30
0.0
  9
$EXTMAX
 10
58.60918931320541
 20
33.86666666666665
 30
0.0
  9
$LIMMIN
 10
0.0
 20
0.0
  9
$LIMMAX
 10
12.0
 20
9.0
  9
$ORTHOMODE
 70
     0
  9
$REGENMODE
 70
     1
  9
$FILLMODE
 70
     1
  9
$QTEXTMODE
 70
     0
  9
$MIRRTEXT
 70
     1
  9
$DRAGMODE
 70
     2
  9
$LTSCALE
 40
25.4
  9
$OSMODE
 70
    37
  9
$ATTMODE
 70
     1
  9
$TEXTSIZE
 40
0.2
  9
$TRACEWID
 40
1.0
  9
$TEXTSTYLE
  7
STANDARD
  9
$CLAYER
  8
NONE
  9
$CELTYPE
  6
BYLAYER
  9
$CECOLOR
 62
   256
  9
$CELTSCALE
 40
1.0
  9
$DELOBJ
 70
     1
  9
$DISPSILH
 70
     0
  9
$DIMSCALE
 40
1.0
  9
$DIMASZ
 40
0.18
  9
$DIMEXO
 40
0.0625
  9
$DIMDLI
 40
0.38
  9
$DIMRND
 40
0.0
  9
$DIMDLE
 40
0.0
  9
$DIMEXE
 40
0.18
  9
$DIMTP
 40
0.0
  9
$DIMTM
 40
0.0
  9
$DIMTXT
 40
0.18
  9
$DIMCEN
 40
0.09
  9
$DIMTSZ
 40
0.0
  9
$DIMTOL
 70
     0
  9
$DIMLIM
 70
     0
  9
$DIMTIH
 70
     1
  9
$DIMTOH
 70
     1
  9
$DIMSE1
 70
     0
  9
$DIMSE2
 70
     0
  9
$DIMTAD
 70
     0
  9
$DIMZIN
 70
     0
  9
$DIMBLK
  1

  9
$DIMASO
 70
     1
  9
$DIMSHO
 70
     1
  9
$DIMPOST
  1

  9
$DIMAPOST
  1

  9
$DIMALT
 70
     0
  9
$DIMALTD
 70
     2
  9
$DIMALTF
 40
25.4
  9
$DIMLFAC
 40
1.0
  9
$DIMTOFL
 70
     0
  9
$DIMTVP
 40
0.0
  9
$DIMTIX
 70
     0
  9
$DIMSOXD
 70
     0
  9
$DIMSAH
 70
     0
  9
$DIMBLK1
  1

  9
$DIMBLK2
  1

  9
$DIMSTYLE
  2
STANDARD
  9
$DIMCLRD
 70
     0
  9
$DIMCLRE
 70
     0
  9
$DIMCLRT
 70
     0
  9
$DIMTFAC
 40
1.0
  9
$DIMGAP
 40
0.09
  9
$DIMJUST
 70
     0
  9
$DIMSD1
 70
     0
  9
$DIMSD2
 70
     0
  9
$DIMTOLJ
 70
     1
  9
$DIMTZIN
 70
     0
  9
$DIMALTZ
 70
     0
  9
$DIMALTTZ
 70
     0
  9
$DIMFIT
 70
     3
  9
$DIMUPT
 70
     0
  9
$DIMUNIT
 70
     2
  9
$DIMDEC
 70
     4
  9
$DIMTDEC
 70
     4
  9
$DIMALTU
 70
     2
  9
$DIMALTTD
 70
     2
  9
$DIMTXSTY
  7
STANDARD
  9
$DIMAUNIT
 70
     0
  9
$LUNITS
 70
     2
  9
$LUPREC
 70
     4
  9
$SKETCHINC
 40
0.1
  9
$FILLETRAD
 40
0.5
  9
$AUNITS
 70
     0
  9
$AUPREC
 70
     0
  9
$MENU
  1
.
  9
$ELEVATION
 40
0.0
  9
$PELEVATION
 40
0.0
  9
$THICKNESS
 40
0.0
  9
$LIMCHECK
 70
     0
  9
$CHAMFERA
 40
0.0
  9
$CHAMFERB
 40
0.0
  9
$CHAMFERC
 40
0.0
  9
$CHAMFERD
 40
0.0
  9
$SKPOLY
 70
     0
  9
$TDCREATE
 40
2457648.382372685
  9
$TDUPDATE
 40
2457648.382395822
  9
$TDINDWG
 40
0.0000000116
  9
$TDUSRTIMER
 40
0.0000000116
  9
$USRTIMER
 70
     1
  9
$ANGBASE
 50
0.0
  9
$ANGDIR
 70
     0
  9
$PDMODE
 70
     1
  9
$PDSIZE
 40
-2.0
  9
$PLINEWID
 40
0.0
  9
$COORDS
 70
     1
  9
$SPLFRAME
 70
     0
  9
$SPLINETYPE
 70
     6
  9
$SPLINESEGS
 70
     8
  9
$ATTDIA
 70
     0
  9
$ATTREQ
 70
     1
  9
$HANDLING
 70
     1
  9
$HANDSEED
  5
C3
  9
$SURFTAB1
 70
     6
  9
$SURFTAB2
 70
     6
  9
$SURFTYPE
 70
     6
  9
$SURFU
 70
     6
  9
$SURFV
 70
     6
  9
$UCSNAME
  2

  9
$UCSORG
 10
0.0
 20
0.0
 30
0.0
  9
$UCSXDIR
 10
1.0
 20
0.0
 30
0.0
  9
$UCSYDIR
 10
0.0
 20
1.0
 30
0.0
  9
$PUCSNAME
  2

  9
$PUCSORG
 10
0.0
 20
0.0
 30
0.0
  9
$PUCSXDIR
 10
1.0
 20
0.0
 30
0.0
  9
$PUCSYDIR
 10
0.0
 20
1.0
 30
0.0
  9
$USERI1
 70
     0
  9
$USERI2
 70
     0
  9
$USERI3
 70
     0
  9
$USERI4
 70
     0
  9
$USERI5
 70
     0
  9
$USERR1
 40
0.0
  9
$USERR2
 40
0.0
  9
$USERR3
 40
0.0
  9
$USERR4
 40
0.0
  9
$USERR5
 40
0.0
  9
$WORLDVIEW
 70
     1
  9
$SHADEDGE
 70
     3
  9
$SHADEDIF
 70
    70
  9
$TILEMODE
 70
     1
  9
$MAXACTVP
 70
    64
  9
$PINSBASE
 10
0.0
 20
0.0
 30
0.0
  9
$PLIMCHECK
 70
     0
  9
$PEXTMIN
 10
1.000000000000000E+20
 20
1.000000000000000E+20
 30
1.000000000000000E+20
  9
$PEXTMAX
 10
-1.000000000000000E+20
 20
-1.000000000000000E+20
 30
-1.000000000000000E+20
  9
$PLIMMIN
 10
-20.0
 20
-7.5
  9
$PLIMMAX
 10
277.0
 20
202.5
  9
$UNITMODE
 70
     0
  9
$VISRETAIN
 70
     1
  9
$PLINEGEN
 70
     0
  9
$PSLTSCALE
 70
     1
  9
$TREEDEPTH
 70
  3020
  9
$PICKSTYLE
 70
     1
  9
$CMLSTYLE
  2
STANDARD
  9
$CMLJUST
 70
     0
  9
$CMLSCALE
 40
1.0
  9
$PROXYGRAPHICS
 70
     1
  9
$MEASUREMENT
 70
     1
  0
ENDSEC
  0
SECTION
  2
CLASSES
  0
CLASS
  1
ACDBDICTIONARYWDFLT
  2
AcDbDictionaryWithDefault
  3
ObjectDBX Classes
 90
        0
280
     0
281
     0
  0
CLASS
  1
VISUALSTYLE
  2
AcDbVisualStyle
  3
ObjectDBX Classes
 90
     4095
280
     0
281
     0
  0
CLASS
  1
MATERIAL
  2
AcDbMaterial
  3
ObjectDBX Classes
 90
     1153
280
     0
281
     0
  0
CLASS
  1
SCALE
  2
AcDbScale
  3
ObjectDBX Classes
 90
     1153
280
     0
281
     0
  0
CLASS
  1
SUN
  2
AcDbSun
  3
SCENEOE
 90
     1153
280
     0
281
     0
  0
CLASS
  1
WIPEOUTVARIABLES
  2
AcDbWipeoutVariables
  3
WipeOut|AutoCAD Express Tool|expresstools@autodesk.com
 90
        0
280
     0
281
     0
  0
CLASS
  1
DICTIONARYVAR
  2
AcDbDictionaryVar
  3
ObjectDBX Classes
 90
        0
280
     0
281
     0
  0
CLASS
  1
XRECORD
  2
AcDbXrecord
  3
ObjectDBX Classes
 90
        0
280
     0
281
     0
  0
CLASS
  1
LWPOLYLINE
  2
AcDbPolyline
  3
ObjectDBX Classes
 90
        0
280
     0
281
     1
  0
CLASS
  1
HATCH
  2
AcDbHatch
  3
ObjectDBX Classes
 90
        0
280
     0
281
     1
  0
CLASS
  1
ACDBPLACEHOLDER
  2
AcDbPlaceHolder
  3
ObjectDBX Classes
 90
        0
280
     0
281
     0
  0
CLASS
  1
LAYOUT
  2
AcDbLayout
  3
ObjectDBX Classes
 90
        0
280
     0
281
     0
  0
ENDSEC
  0
SECTION
  2
TABLES
  0
TABLE
  2
VPORT
  5
8
102
{ACAD_XDICTIONARY
360
B9
102
}
330
0
100
AcDbSymbolTable
 70
     1
  0
VPORT
  5
29
330
8
100
AcDbSymbolTableRecord
100
AcDbViewportTableRecord
  2
*ACTIVE
 70
     0
 10
0.0
 20
0.0
 11
1.0
 21
1.0
 12
-7.207905343397286
 22
7.464333333333325
 13
0.0
 23
0.0
 14
0.5
 24
0.5
 15
0.5
 25
0.5
 16
0.0
 26
0.0
 36
1.0
 17
0.0
 27
0.0
 37
0.0
 40
52.80466666666664
 41
2.492851439516813
 42
2000.0
 43
0.0
 44
0.0
 50
0.0
 51
0.0
 71
     0
 72
   100
 73
     1
 74
     3
 75
     0
 76
     0
 77
     0
 78
     0
  0
ENDTAB
  0
TABLE
  2
LTYPE
  5
5
330
0
100
AcDbSymbolTable
 70
     1
  0
LTYPE
  5
14
330
5
100
AcDbSymbolTableRecord
100
AcDbLinetypeTableRecord
  2
BYBLOCK
 70
     0
  3

 72
    65
 73
     0
 40
0.0
  0
LTYPE
  5
15
330
5
100
AcDbSymbolTableRecord
100
AcDbLinetypeTableRecord
  2
BYLAYER
 70
     0
  3

 72
    65
 73
     0
 40
0.0
  0
LTYPE
  5
16
330
5
100
AcDbSymbolTableRecord
100
AcDbLinetypeTableRecord
  2
CONTINUOUS
 70
     0
  3
Solid line
 72
    65
 73
     0
 40
0.0
  0
ENDTAB
  0
TABLE
  2
LAYER
  5
2
330
0
100
AcDbSymbolTable
 70
     3
  0
LAYER
  5
10
330
2
100
AcDbSymbolTableRecord
100
AcDbLayerTableRecord
  2
0
 70
     0
 62
     7
  6
CONTINUOUS
  0
LAYER
  5
78
330
2
100
AcDbSymbolTableRecord
100
AcDbLayerTableRecord
  2
NONE
 70
     0
 62
     7
  6
CONTINUOUS
1001
ACCMTRANSPARENCY
1071
 33554687
  0
LAYER
  5
7A
330
2
100
AcDbSymbolTableRecord
100
AcDbLayerTableRecord
  2
DIMENSION
 70
     0
 62
     7
  6
CONTINUOUS
1001
ACCMTRANSPARENCY
1071
 33554687
  0
ENDTAB
  0
TABLE
  2
STYLE
  5
3
330
0
100
AcDbSymbolTable
 70
     2
  0
STYLE
  5
11
330
3
100
AcDbSymbolTableRecord
100
AcDbTextStyleTableRecord
  2
STANDARD
 70
     0
 40
0.0
 41
1.0
 50
0.0
 71
     0
 42
0.2
  3
txt
  4

  0
STYLE
  5
77
330
3
100
AcDbSymbolTableRecord
100
AcDbTextStyleTableRecord
  2
ARIAL
 70
     0
 40
0.0
 41
1.0
 50
0.0
 71
     0
 42
0.2
  3
Arial
  4

1001
ACAD
1000
Arial
1071
        0
  0
ENDTAB
  0
TABLE
  2
VIEW
  5
6
330
0
100
AcDbSymbolTable
 70
     0
  0
ENDTAB
  0
TABLE
  2
UCS
  5
7
330
0
100
AcDbSymbolTable
 70
     0
  0
ENDTAB
  0
TABLE
  2
APPID
  5
9
330
0
100
AcDbSymbolTable
 70
     2
  0
APPID
  5
12
330
9
100
AcDbSymbolTableRecord
100
AcDbRegAppTableRecord
  2
ACAD
 70
     0
  0
APPID
  5
79
330
9
100
AcDbSymbolTableRecord
100
AcDbRegAppTableRecord
  2
ACCMTRANSPARENCY
 70
     0
  0
ENDTAB
  0
TABLE
  2
DIMSTYLE
  5
A
330
0
100
AcDbSymbolTable
 70
     1
  0
DIMSTYLE
105
27
330
A
100
AcDbSymbolTableRecord
100
AcDbDimStyleTableRecord
  2
STANDARD
 70
     0
  3

  4

  5

  6

  7

 40
1.0
 41
0.18
 42
0.0625
 43
0.38
 44
0.18
 45
0.0
 46
0.0
 47
0.0
 48
0.0
140
0.18
141
0.09
142
0.0
143
25.4
144
1.0
145
0.0
146
1.0
147
0.09
 71
     0
 72
     0
 73
     1
 74
     1
 75
     0
 76
     0
 77
     0
 78
     0
170
     0
171
     2
172
     0
173
     0
174
     0
175
     0
176
     0
177
     0
178
     0
270
     2
271
     4
272
     4
273
     2
274
     2
340
11
275
     0
280
     0
281
     0
282
     0
283
     1
284
     0
285
     0
286
     0
287
     3
288
     0
  0
ENDTAB
  0
TABLE
  2
BLOCK_RECORD
  5
1
330
0
100
AcDbSymbolTable
 70
     5
  0
BLOCK_RECORD
  5
1F
330
1
100
AcDbSymbolTableRecord
100
AcDbBlockTableRecord
  2
*MODEL_SPACE
  0
BLOCK_RECORD
  5
1B
330
1
100
AcDbSymbolTableRecord
100
AcDbBlockTableRecord
  2
*PAPER_SPACE
  0
BLOCK_RECORD
  5
6A
330
1
100
AcDbSymbolTableRecord
100
AcDbBlockTableRecord
  2
SPUR_GEAR
  0
BLOCK_RECORD
  5
6D
330
1
100
AcDbSymbolTableRecord
100
AcDbBlockTableRecord
  2
SPUR_GEAR-1
  0
BLOCK_RECORD
  5
70
330
1
100
AcDbSymbolTableRecord
100
AcDbBlockTableRecord
  2
SPUR_GEAR-2
  0
BLOCK_RECORD
  5
73
330
1
100
AcDbSymbolTableRecord
100
AcDbBlockTableRecord
  2
SPUR_GEAR-3
  0
ENDTAB
  0
ENDSEC
  0
SECTION
  2
BLOCKS
  0
BLOCK
  5
20
330
1F
100
AcDbEntity
  8
0
100
AcDbBlockBegin
  2
*MODEL_SPACE
 70
     0
 10
0.0
 20
0.0
 30
0.0
  3
*MODEL_SPACE
  1

  0
ENDBLK
  5
21
330
1F
100
AcDbEntity
  8
0
100
AcDbBlockEnd
  0
BLOCK
  5
1C
330
1B
100
AcDbEntity
 67
     1
  8
0
100
AcDbBlockBegin
  2
*PAPER_SPACE
 70
     0
 10
0.0
 20
0.0
 30
0.0
  3
*PAPER_SPACE
  1

  0
ENDBLK
  5
1D
330
1B
100
AcDbEntity
 67
     1
  8
0
100
AcDbBlockEnd
  0
BLOCK
  5
6B
330
6A
100
AcDbEntity
  8
0
100
AcDbBlockBegin
  2
SPUR_GEAR
 70
     0
 10
0.0
 20
0.0
 30
0.0
  3
SPUR_GEAR
  1
SPUR_GEAR
  0
SPLINE
  5
7B
330
6A
100
AcDbEntity
  8
NONE
  6
CONTINUOUS
 62
    17
100
AcDbSpline
210
0.0
220
0.0
230
1.0
 70
    15
 71
     2
 72
   292
 73
   289
 74
     0
 42
0.000000001
 43
0.0000000000001
 40
0.0
 40
0.0
 40
0.0
 40
1.0
 40
1.0
 40
2.0
 40
2.0
 40
3.0
 40
3.0
 40
4.0
 40
4.0
 40
5.0
 40
5.0
 40
6.0
 40
6.0
 40
7.0
 40
7.0
 40
8.0
 40
8.0
 40
9.0
 40
9.0
 40
10.0
 40
10.0
 40
11.0
 40
11.0
 40
12.0
 40
12.0
 40
13.0
 40
13.0
 40
14.0
 40
14.0
 40
15.0
 40
15.0
 40
16.0
 40
16.0
 40
17.0
 40
17.0
 40
18.0
 40
18.0
 40
19.0
 40
19.0
 40
20.0
 40
20.0
 40
21.0
 40
21.0
 40
22.0
 40
22.0
 40
23.0
 40
23.0
 40
24.0
 40
24.0
 40
25.0
 40
25.0
 40
26.0
 40
26.0
 40
27.0
 40
27.0
 40
28.0
 40
28.0
 40
29.0
 40
29.0
 40
30.0
 40
30.0
 40
31.0
 40
31.0
 40
32.0
 40
32.0
 40
33.0
 40
33.0
 40
34.0
 40
34.0
 40
35.0
 40
35.0
 40
36.0
 40
36.0
 40
37.0
 40
37.0
 40
38.0
 40
38.0
 40
39.0
 40
39.0
 40
40.0
 40
40.0
 40
41.0
 40
41.0
 40
42.0
 40
42.0
 40
43.0
 40
43.0
 40
44.0
 40
44.0
 40
45.0
 40
45.0
 40
46.0
 40
46.0
 40
47.0
 40
47.0
 40
48.0
 40
48.0
 40
49.0
 40
49.0
 40
50.0
 40
50.0
 40
51.0
 40
51.0
 40
52.0
 40
52.0
 40
53.0
 40
53.0
 40
54.0
 40
54.0
 40
55.0
 40
55.0
 40
56.0
 40
56.0
 40
57.0
 40
57.0
 40
58.0
 40
58.0
 40
59.0
 40
59.0
 40
60.0
 40
60.0
 40
61.0
 40
61.0
 40
62.0
 40
62.0
 40
63.0
 40
63.0
 40
64.0
 40
64.0
 40
65.0
 40
65.0
 40
66.0
 40
66.0
 40
67.0
 40
67.0
 40
68.0
 40
68.0
 40
69.0
 40
69.0
 40
70.0
 40
70.0
 40
71.0
 40
71.0
 40
72.0
 40
72.0
 40
73.0
 40
73.0
 40
74.0
 40
74.0
 40
75.0
 40
75.0
 40
76.0
 40
76.0
 40
77.0
 40
77.0
 40
78.0
 40
78.0
 40
79.0
 40
79.0
 40
80.0
 40
80.0
 40
81.0
 40
81.0
 40
82.0
 40
82.0
 40
83.0
 40
83.0
 40
84.0
 40
84.0
 40
85.0
 40
85.0
 40
86.0
 40
86.0
 40
87.0
 40
87.0
 40
88.0
 40
88.0
 40
89.0
 40
89.0
 40
90.0
 40
90.0
 40
91.0
 40
91.0
 40
92.0
 40
92.0
 40
93.0
 40
93.0
 40
94.0
 40
94.0
 40
95.0
 40
95.0
 40
96.0
 40
96.0
 40
97.0
 40
97.0
 40
98.0
 40
98.0
 40
99.0
 40
99.0
 40
100.0
 40
100.0
 40
101.0
 40
101.0
 40
102.0
 40
102.0
 40
103.0
 40
103.0
 40
104.0
 40
104.0
 40
105.0
 40
105.0
 40
106.0
 40
106.0
 40
107.0
 40
107.0
 40
108.0
 40
108.0
 40
109.0
 40
109.0
 40
110.0
 40
110.0
 40
111.0
 40
111.0
 40
112.0
 40
112.0
 40
113.0
 40
113.0
 40
114.0
 40
114.0
 40
115.0
 40
115.0
 40
116.0
 40
116.0
 40
117.0
 40
117.0
 40
118.0
 40
118.0
 40
119.0
 40
119.0
 40
120.0
 40
120.0
 40
121.0
 40
121.0
 40
122.0
 40
122.0
 40
123.0
 40
123.0
 40
124.0
 40
124.0
 40
125.0
 40
125.0
 40
126.0
 40
126.0
 40
127.0
 40
127.0
 40
128.0
 40
128.0
 40
129.0
 40
129.0
 40
130.0
 40
130.0
 40
131.0
 40
131.0
 40
132.0
 40
132.0
 40
133.0
 40
133.0
 40
134.0
 40
134.0
 40
135.0
 40
135.0
 40
136.0
 40
136.0
 40
137.0
 40
137.0
 40
138.0
 40
138.0
 40
139.0
 40
139.0
 40
140.0
 40
140.0
 40
141.0
 40
141.0
 40
142.0
 40
142.0
 40
143.0
 40
143.0
 40
144.0
 40
144.0
 40
144.0
 10
-3.332625898669984
 20
9.104511674590293
 30
0.0
 41
1.0
 10
-3.527004460560712
 20
9.05242809590575
 30
0.0
 41
0.7602473260343944
 10
-3.608764501908559
 20
9.236305827374503
 30
0.0
 41
1.0
 10
-3.805468898760747
 20
9.678692568707312
 30
0.0
 41
1.0
 10
-4.002173295612934
 20
10.12107931004012
 30
0.0
 41
1.0
 10
-4.477342130665155
 20
11.18973052417449
 30
0.0
 41
1.0
 10
-5.411947196581092
 20
11.84567720215266
 30
0.0
 41
1.0
 10
-5.817773909744862
 20
12.13050412428548
 30
0.0
 41
1.0
 10
-6.223600622908632
 20
12.4153310464183
 30
0.0
 41
1.0
 10
-6.346552262497029
 20
12.50162388013083
 30
0.0
 41
0.8430966000143968
 10
-6.476639422204324
 20
12.42651802345571
 30
0.0
 41
1.0
 10
-7.000000000000006
 20
12.12435565298214
 30
0.0
 41
1.0
 10
-7.523360577795689
 20
11.82219328250856
 30
0.0
 41
1.0
 10
-7.653447737502984
 20
11.74708742583344
 30
0.0
 41
0.8430966000143957
 10
-7.640191771137578
 20
11.59746176565667
 30
0.0
 41
1.0
 10
-7.59643777747071
 20
11.1035920614561
 30
0.0
 41
1.0
 10
-7.552683783803842
 20
10.60972235725552
 30
0.0
 41
1.0
 10
-7.451919830104702
 20
9.472357288677607
 30
0.0
 41
1.0
 10
-6.764025148405363
 20
8.526523399368541
 30
0.0
 41
1.0
 10
-6.479259190539828
 20
8.134979023992047
 30
0.0
 41
1.0
 10
-6.194493232674295
 20
7.743434648615554
 30
0.0
 41
1.0
 10
-6.076130466706024
 20
7.580689510059476
 30
0.0
 41
0.760247326034395
 10
-6.218425449912208
 20
7.438394526853291
 30
0.0
 41
1.0
 10
-6.828409988382754
 20
6.828409988382745
 30
0.0
 41
1.0
 10
-7.438394526853299
 20
6.2184254499122
 30
0.0
 41
1.0
 10
-7.580689510059484
 20
6.076130466706016
 30
0.0
 41
0.7602473260343955
 10
-7.743434648615562
 20
6.194493232674286
 30
0.0
 41
1.0
 10
-8.134979023992056
 20
6.479259190539819
 30
0.0
 41
1.0
 10
-8.52652339936855
 20
6.764025148405352
 30
0.0
 41
1.0
 10
-9.472357288677616
 20
7.451919830104689
 30
0.0
 41
1.0
 10
-10.60972235725553
 20
7.552683783803829
 30
0.0
 41
1.0
 10
-11.10359206145611
 20
7.596437777470697
 30
0.0
 41
1.0
 10
-11.59746176565668
 20
7.640191771137564
 30
0.0
 41
1.0
 10
-11.74708742583345
 20
7.65344773750297
 30
0.0
 41
0.8430966000143957
 10
-11.82219328250857
 20
7.523360577795675
 30
0.0
 41
1.0
 10
-12.12435565298215
 20
6.999999999999991
 30
0.0
 41
1.0
 10
-12.42651802345572
 20
6.476639422204308
 30
0.0
 41
1.0
 10
-12.50162388013084
 20
6.346552262497016
 30
0.0
 41
0.8430966000143967
 10
-12.4153310464183
 20
6.223600622908617
 30
0.0
 41
1.0
 10
-12.13050412428549
 20
5.817773909744847
 30
0.0
 41
1.0
 10
-11.84567720215267
 20
5.411947196581077
 30
0.0
 41
1.0
 10
-11.18973052417449
 20
4.477342130665141
 30
0.0
 41
1.0
 10
-10.12107931004012
 20
4.002173295612922
 30
0.0
 41
1.0
 10
-9.678692568707316
 20
3.805468898760735
 30
0.0
 41
1.0
 10
-9.236305827374506
 20
3.608764501908548
 30
0.0
 41
1.0
 10
-9.052428095905753
 20
3.527004460560701
 30
0.0
 41
0.7602473260343944
 10
-9.104511674590297
 20
3.332625898669973
 30
0.0
 41
1.0
 10
-9.327781511586242
 20
2.499371523203484
 30
0.0
 41
1.0
 10
-9.551051348582186
 20
1.666117147736995
 30
0.0
 41
1.0
 10
-9.60313492726673
 20
1.471738585846267
 30
0.0
 41
0.7602473260343954
 10
-9.803257734582846
 20
1.492871178758942
 30
0.0
 41
1.0
 10
-10.28472808930057
 20
1.543713544715256
 30
0.0
 41
1.0
 10
-10.76619844401829
 20
1.59455591067157
 30
0.0
 41
1.0
 10
-11.92926196076985
 20
1.717373235496874
 30
0.0
 41
1.0
 10
-12.96463098038492
 20
1.23595484489713
 30
0.0
 41
1.0
 10
-13.41421168721556
 20
1.026912062829373
 30
0.0
 41
1.0
 10
-13.8637923940462
 20
0.8178692807616166
 30
0.0
 41
1.0
 10
-14.0
 20
0.7545364542973841
 30
0.0
 41
0.8430966000143959
 10
-14.0
 20
0.6043247409471448
 30
0.0
 41
1.0
 10
-14.0
 20
-0.0000000000000074
 30
0.0
 41
1.0
 10
-14.0
 20
-0.6043247409471596
 30
0.0
 41
1.0
 10
-14.0
 20
-0.7545364542974012
 30
0.0
 41
0.8430966000143949
 10
-13.8637923940462
 20
-0.8178692807616316
 30
0.0
 41
1.0
 10
-13.41421168721556
 20
-1.026912062829388
 30
0.0
 41
1.0
 10
-12.96463098038492
 20
-1.235954844897144
 30
0.0
 41
1.0
 10
-11.92926196076984
 20
-1.717373235496888
 30
0.0
 41
1.0
 10
-10.76619844401829
 20
-1.594555910671582
 30
0.0
 41
1.0
 10
-10.28472808930057
 20
-1.543713544715267
 30
0.0
 41
1.0
 10
-9.803257734582846
 20
-1.492871178758953
 30
0.0
 41
1.0
 10
-9.603134927266728
 20
-1.471738585846277
 30
0.0
 41
0.7602473260343934
 10
-9.551051348582185
 20
-1.666117147737005
 30
0.0
 41
1.0
 10
-9.327781511586238
 20
-2.499371523203495
 30
0.0
 41
1.0
 10
-9.104511674590293
 20
-3.332625898669984
 30
0.0
 41
1.0
 10
-9.05242809590575
 20
-3.527004460560712
 30
0.0
 41
0.7602473260343954
 10
-9.236305827374503
 20
-3.608764501908559
 30
0.0
 41
1.0
 10
-9.678692568707312
 20
-3.805468898760746
 30
0.0
 41
1.0
 10
-10.12107931004012
 20
-4.002173295612933
 30
0.0
 41
1.0
 10
-11.18973052417449
 20
-4.477342130665154
 30
0.0
 41
1.0
 10
-11.84567720215266
 20
-5.411947196581091
 30
0.0
 41
1.0
 10
-12.13050412428548
 20
-5.817773909744861
 30
0.0
 41
1.0
 10
-12.4153310464183
 20
-6.223600622908631
 30
0.0
 41
1.0
 10
-12.50162388013084
 20
-6.346552262497029
 30
0.0
 41
0.8430966000143943
 10
-12.42651802345572
 20
-6.476639422204322
 30
0.0
 41
1.0
 10
-12.12435565298214
 20
-7.000000000000005
 30
0.0
 41
1.0
 10
-11.82219328250856
 20
-7.523360577795689
 30
0.0
 41
1.0
 10
-11.74708742583344
 20
-7.653447737502984
 30
0.0
 41
0.8430966000143957
 10
-11.59746176565667
 20
-7.640191771137578
 30
0.0
 41
1.0
 10
-11.1035920614561
 20
-7.59643777747071
 30
0.0
 41
1.0
 10
-10.60972235725552
 20
-7.552683783803841
 30
0.0
 41
1.0
 10
-9.472357288677607
 20
-7.451919830104701
 30
0.0
 41
1.0
 10
-8.526523399368541
 20
-6.764025148405362
 30
0.0
 41
1.0
 10
-8.134979023992047
 20
-6.479259190539828
 30
0.0
 41
1.0
 10
-7.743434648615554
 20
-6.194493232674294
 30
0.0
 41
1.0
 10
-7.580689510059475
 20
-6.076130466706023
 30
0.0
 41
0.7602473260343942
 10
-7.438394526853291
 20
-6.218425449912208
 30
0.0
 41
1.0
 10
-6.828409988382747
 20
-6.828409988382752
 30
0.0
 41
1.0
 10
-6.218425449912202
 20
-7.438394526853297
 30
0.0
 41
1.0
 10
-6.076130466706019
 20
-7.580689510059481
 30
0.0
 41
0.760247326034395
 10
-6.194493232674289
 20
-7.743434648615559
 30
0.0
 41
1.0
 10
-6.479259190539823
 20
-8.134979023992052
 30
0.0
 41
1.0
 10
-6.764025148405357
 20
-8.526523399368546
 30
0.0
 41
1.0
 10
-7.451919830104694
 20
-9.472357288677612
 30
0.0
 41
1.0
 10
-7.552683783803835
 20
-10.60972235725553
 30
0.0
 41
1.0
 10
-7.596437777470703
 20
-11.10359206145611
 30
0.0
 41
1.0
 10
-7.640191771137571
 20
-11.59746176565668
 30
0.0
 41
1.0
 10
-7.653447737502976
 20
-11.74708742583345
 30
0.0
 41
0.8430966000143957
 10
-7.523360577795682
 20
-11.82219328250857
 30
0.0
 41
1.0
 10
-6.999999999999997
 20
-12.12435565298214
 30
0.0
 41
1.0
 10
-6.476639422204313
 20
-12.42651802345572
 30
0.0
 41
1.0
 10
-6.346552262497018
 20
-12.50162388013084
 30
0.0
 41
0.8430966000143946
 10
-6.223600622908622
 20
-12.4153310464183
 30
0.0
 41
1.0
 10
-5.817773909744853
 20
-12.13050412428548
 30
0.0
 41
1.0
 10
-5.411947196581083
 20
-11.84567720215267
 30
0.0
 41
1.0
 10
-4.477342130665146
 20
-11.18973052417449
 30
0.0
 41
1.0
 10
-4.002173295612927
 20
-10.12107931004012
 30
0.0
 41
1.0
 10
-3.80546889876074
 20
-9.678692568707316
 30
0.0
 41
1.0
 10
-3.608764501908553
 20
-9.236305827374506
 30
0.0
 41
1.0
 10
-3.527004460560707
 20
-9.052428095905753
 30
0.0
 41
0.7602473260343949
 10
-3.332625898669979
 20
-9.104511674590297
 30
0.0
 41
1.0
 10
-2.499371523203488
 20
-9.327781511586242
 30
0.0
 41
1.0
 10
-1.666117147736998
 20
-9.551051348582186
 30
0.0
 41
1.0
 10
-1.471738585846268
 20
-9.60313492726673
 30
0.0
 41
0.7602473260343929
 10
-1.492871178758945
 20
-9.803257734582848
 30
0.0
 41
1.0
 10
-1.543713544715259
 20
-10.28472808930057
 30
0.0
 41
1.0
 10
-1.594555910671573
 20
-10.76619844401829
 30
0.0
 41
1.0
 10
-1.717373235496878
 20
-11.92926196076984
 30
0.0
 41
1.0
 10
-1.235954844897134
 20
-12.96463098038492
 30
0.0
 41
1.0
 10
-1.026912062829377
 20
-13.41421168721556
 30
0.0
 41
1.0
 10
-0.8178692807616206
 20
-13.8637923940462
 30
0.0
 41
1.0
 10
-0.7545364542973882
 20
-14.0
 30
0.0
 41
0.843096600014396
 10
-0.6043247409471487
 20
-14.0
 30
0.0
 41
1.0
 10
0.0000000000000035
 20
-14.0
 30
0.0
 41
1.0
 10
0.6043247409471557
 20
-14.0
 30
0.0
 41
1.0
 10
0.7545364542973972
 20
-14.0
 30
0.0
 41
0.8430966000143948
 10
0.8178692807616277
 20
-13.8637923940462
 30
0.0
 41
1.0
 10
1.026912062829384
 20
-13.41421168721556
 30
0.0
 41
1.0
 10
1.23595484489714
 20
-12.96463098038492
 30
0.0
 41
1.0
 10
1.717373235496884
 20
-11.92926196076984
 30
0.0
 41
1.0
 10
1.594555910671579
 20
-10.76619844401829
 30
0.0
 41
1.0
 10
1.543713544715265
 20
-10.28472808930057
 30
0.0
 41
1.0
 10
1.49287117875895
 20
-9.803257734582848
 30
0.0
 41
1.0
 10
1.471738585846274
 20
-9.60313492726673
 30
0.0
 41
0.7602473260343933
 10
1.666117147737003
 20
-9.551051348582186
 30
0.0
 41
1.0
 10
2.499371523203493
 20
-9.32778151158624
 30
0.0
 41
1.0
 10
3.332625898669983
 20
-9.104511674590293
 30
0.0
 41
1.0
 10
3.527004460560712
 20
-9.05242809590575
 30
0.0
 41
0.7602473260343944
 10
3.608764501908559
 20
-9.236305827374503
 30
0.0
 41
1.0
 10
3.805468898760745
 20
-9.678692568707312
 30
0.0
 41
1.0
 10
4.002173295612932
 20
-10.12107931004012
 30
0.0
 41
1.0
 10
4.477342130665153
 20
-11.18973052417449
 30
0.0
 41
1.0
 10
5.411947196581089
 20
-11.84567720215266
 30
0.0
 41
1.0
 10
5.817773909744859
 20
-12.13050412428548
 30
0.0
 41
1.0
 10
6.223600622908629
 20
-12.4153310464183
 30
0.0
 41
1.0
 10
6.346552262497028
 20
-12.50162388013084
 30
0.0
 41
0.8430966000143943
 10
6.47663942220432
 20
-12.42651802345572
 30
0.0
 41
1.0
 10
7.000000000000004
 20
-12.12435565298214
 30
0.0
 41
1.0
 10
7.523360577795688
 20
-11.82219328250856
 30
0.0
 41
1.0
 10
7.653447737502983
 20
-11.74708742583344
 30
0.0
 41
0.8430966000143957
 10
7.640191771137578
 20
-11.59746176565667
 30
0.0
 41
1.0
 10
7.59643777747071
 20
-11.1035920614561
 30
0.0
 41
1.0
 10
7.552683783803841
 20
-10.60972235725552
 30
0.0
 41
1.0
 10
7.4519198301047
 20
-9.472357288677605
 30
0.0
 41
1.0
 10
6.764025148405362
 20
-8.526523399368541
 30
0.0
 41
1.0
 10
6.479259190539828
 20
-8.134979023992049
 30
0.0
 41
1.0
 10
6.194493232674295
 20
-7.743434648615556
 30
0.0
 41
1.0
 10
6.076130466706025
 20
-7.580689510059479
 30
0.0
 41
0.760247326034395
 10
6.218425449912209
 20
-7.438394526853293
 30
0.0
 41
1.0
 10
6.828409988382752
 20
-6.828409988382749
 30
0.0
 41
1.0
 10
7.438394526853295
 20
-6.218425449912204
 30
0.0
 41
1.0
 10
7.58068951005948
 20
-6.076130466706019
 30
0.0
 41
0.760247326034393
 10
7.743434648615558
 20
-6.19449323267429
 30
0.0
 41
1.0
 10
8.134979023992052
 20
-6.479259190539823
 30
0.0
 41
1.0
 10
8.526523399368545
 20
-6.764025148405357
 30
0.0
 41
1.0
 10
9.47235728867761
 20
-7.451919830104694
 30
0.0
 41
1.0
 10
10.60972235725553
 20
-7.552683783803835
 30
0.0
 41
1.0
 10
11.1035920614561
 20
-7.596437777470703
 30
0.0
 41
1.0
 10
11.59746176565668
 20
-7.640191771137571
 30
0.0
 41
1.0
 10
11.74708742583345
 20
-7.653447737502976
 30
0.0
 41
0.8430966000143957
 10
11.82219328250857
 20
-7.523360577795682
 30
0.0
 41
1.0
 10
12.12435565298214
 20
-6.999999999999998
 30
0.0
 41
1.0
 10
12.42651802345572
 20
-6.476639422204315
 30
0.0
 41
1.0
 10
12.50162388013084
 20
-6.346552262497022
 30
0.0
 41
0.8430966000143967
 10
12.4153310464183
 20
-6.223600622908624
 30
0.0
 41
1.0
 10
12.13050412428548
 20
-5.817773909744853
 30
0.0
 41
1.0
 10
11.84567720215266
 20
-5.411947196581083
 30
0.0
 41
1.0
 10
11.18973052417449
 20
-4.477342130665145
 30
0.0
 41
1.0
 10
10.12107931004012
 20
-4.002173295612925
 30
0.0
 41
1.0
 10
9.678692568707312
 20
-3.805468898760739
 30
0.0
 41
1.0
 10
9.236305827374503
 20
-3.608764501908553
 30
0.0
 41
1.0
 10
9.05242809590575
 20
-3.527004460560706
 30
0.0
 41
0.7602473260343937
 10
9.104511674590293
 20
-3.332625898669978
 30
0.0
 41
1.0
 10
9.32778151158624
 20
-2.499371523203489
 30
0.0
 41
1.0
 10
9.551051348582186
 20
-1.666117147736999
 30
0.0
 41
1.0
 10
9.60313492726673
 20
-1.47173858584627
 30
0.0
 41
0.7602473260343929
 10
9.803257734582848
 20
-1.492871178758946
 30
0.0
 41
1.0
 10
10.28472808930057
 20
-1.543713544715261
 30
0.0
 41
1.0
 10
10.76619844401829
 20
-1.594555910671575
 30
0.0
 41
1.0
 10
11.92926196076984
 20
-1.71737323549688
 30
0.0
 41
1.0
 10
12.96463098038492
 20
-1.235954844897135
 30
0.0
 41
1.0
 10
13.41421168721556
 20
-1.026912062829378
 30
0.0
 41
1.0
 10
13.8637923940462
 20
-0.8178692807616215
 30
0.0
 41
1.0
 10
14.0
 20
-0.7545364542973891
 30
0.0
 41
0.843096600014396
 10
14.0
 20
-0.6043247409471496
 30
0.0
 41
1.0
 10
14.0
 20
0.0000000000000026
 30
0.0
 41
1.0
 10
14.0
 20
0.6043247409471547
 30
0.0
 41
1.0
 10
14.0
 20
0.7545364542973964
 30
0.0
 41
0.8430966000143949
 10
13.8637923940462
 20
0.8178692807616267
 30
0.0
 41
1.0
 10
13.41421168721556
 20
1.026912062829383
 30
0.0
 41
1.0
 10
12.96463098038492
 20
1.235954844897139
 30
0.0
 41
1.0
 10
11.92926196076984
 20
1.717373235496882
 30
0.0
 41
1.0
 10
10.76619844401829
 20
1.594555910671577
 30
0.0
 41
1.0
 10
10.28472808930057
 20
1.543713544715263
 30
0.0
 41
1.0
 10
9.803257734582848
 20
1.492871178758948
 30
0.0
 41
1.0
 10
9.60313492726673
 20
1.471738585846272
 30
0.0
 41
0.7602473260343933
 10
9.551051348582186
 20
1.666117147737001
 30
0.0
 41
1.0
 10
9.32778151158624
 20
2.49937152320349
 30
0.0
 41
1.0
 10
9.104511674590293
 20
3.33262589866998
 30
0.0
 41
1.0
 10
9.05242809590575
 20
3.527004460560708
 30
0.0
 41
0.7602473260343944
 10
9.236305827374503
 20
3.608764501908555
 30
0.0
 41
1.0
 10
9.678692568707312
 20
3.805468898760742
 30
0.0
 41
1.0
 10
10.12107931004012
 20
4.002173295612929
 30
0.0
 41
1.0
 10
11.18973052417449
 20
4.477342130665148
 30
0.0
 41
1.0
 10
11.84567720215266
 20
5.411947196581084
 30
0.0
 41
1.0
 10
12.13050412428548
 20
5.817773909744854
 30
0.0
 41
1.0
 10
12.4153310464183
 20
6.223600622908624
 30
0.0
 41
1.0
 10
12.50162388013084
 20
6.346552262497021
 30
0.0
 41
0.8430966000143968
 10
12.42651802345572
 20
6.476639422204316
 30
0.0
 41
1.0
 10
12.12435565298214
 20
7.0
 30
0.0
 41
1.0
 10
11.82219328250857
 20
7.523360577795684
 30
0.0
 41
1.0
 10
11.74708742583345
 20
7.653447737502979
 30
0.0
 41
0.8430966000143957
 10
11.59746176565668
 20
7.640191771137574
 30
0.0
 41
1.0
 10
11.1035920614561
 20
7.596437777470706
 30
0.0
 41
1.0
 10
10.60972235725553
 20
7.552683783803838
 30
0.0
 41
1.0
 10
9.47235728867761
 20
7.451919830104696
 30
0.0
 41
1.0
 10
8.526523399368545
 20
6.764025148405358
 30
0.0
 41
1.0
 10
8.134979023992052
 20
6.479259190539825
 30
0.0
 41
1.0
 10
7.743434648615558
 20
6.194493232674292
 30
0.0
 41
1.0
 10
7.580689510059481
 20
6.07613046670602
 30
0.0
 41
0.7602473260343915
 10
7.438394526853295
 20
6.218425449912206
 30
0.0
 41
1.0
 10
6.82840998838275
 20
6.82840998838275
 30
0.0
 41
1.0
 10
6.218425449912207
 20
7.438394526853295
 30
0.0
 41
1.0
 10
6.076130466706023
 20
7.58068951005948
 30
0.0
 41
0.760247326034395
 10
6.194493232674294
 20
7.743434648615557
 30
0.0
 41
1.0
 10
6.479259190539826
 20
8.13497902399205
 30
0.0
 41
1.0
 10
6.76402514840536
 20
8.526523399368543
 30
0.0
 41
1.0
 10
7.451919830104698
 20
9.472357288677607
 30
0.0
 41
1.0
 10
7.55268378380384
 20
10.60972235725552
 30
0.0
 41
1.0
 10
7.596437777470708
 20
11.1035920614561
 30
0.0
 41
1.0
 10
7.640191771137577
 20
11.59746176565667
 30
0.0
 41
1.0
 10
7.653447737502983
 20
11.74708742583344
 30
0.0
 41
0.8430966000143957
 10
7.523360577795687
 20
11.82219328250856
 30
0.0
 41
1.0
 10
7.000000000000002
 20
12.12435565298214
 30
0.0
 41
1.0
 10
6.476639422204316
 20
12.42651802345572
 30
0.0
 41
1.0
 10
6.346552262497022
 20
12.50162388013084
 30
0.0
 41
0.8430966000143967
 10
6.223600622908624
 20
12.4153310464183
 30
0.0
 41
1.0
 10
5.817773909744854
 20
12.13050412428548
 30
0.0
 41
1.0
 10
5.411947196581085
 20
11.84567720215266
 30
0.0
 41
1.0
 10
4.477342130665149
 20
11.18973052417449
 30
0.0
 41
1.0
 10
4.002173295612929
 20
10.12107931004012
 30
0.0
 41
1.0
 10
3.805468898760743
 20
9.678692568707312
 30
0.0
 41
1.0
 10
3.608764501908556
 20
9.236305827374505
 30
0.0
 41
1.0
 10
3.527004460560709
 20
9.052428095905752
 30
0.0
 41
0.7602473260343937
 10
3.332625898669981
 20
9.104511674590295
 30
0.0
 41
1.0
 10
2.499371523203491
 20
9.327781511586242
 30
0.0
 41
1.0
 10
1.666117147737001
 20
9.551051348582186
 30
0.0
 41
1.0
 10
1.471738585846272
 20
9.60313492726673
 30
0.0
 41
0.7602473260343929
 10
1.492871178758948
 20
9.803257734582848
 30
0.0
 41
1.0
 10
1.543713544715263
 20
10.28472808930057
 30
0.0
 41
1.0
 10
1.594555910671577
 20
10.76619844401829
 30
0.0
 41
1.0
 10
1.717373235496882
 20
11.92926196076984
 30
0.0
 41
1.0
 10
1.235954844897138
 20
12.96463098038492
 30
0.0
 41
1.0
 10
1.026912062829382
 20
13.41421168721556
 30
0.0
 41
1.0
 10
0.8178692807616255
 20
13.8637923940462
 30
0.0
 41
1.0
 10
0.754536454297393
 20
14.0
 30
0.0
 41
0.8430966000143956
 10
0.6043247409471535
 20
14.0
 30
0.0
 41
1.0
 10
0.0000000000000013
 20
14.0
 30
0.0
 41
1.0
 10
-0.6043247409471509
 20
14.0
 30
0.0
 41
1.0
 10
-0.7545364542973925
 20
14.0
 30
0.0
 41
0.843096600014395
 10
-0.8178692807616228
 20
13.8637923940462
 30
0.0
 41
1.0
 10
-1.02691206282938
 20
13.41421168721556
 30
0.0
 41
1.0
 10
-1.235954844897136
 20
12.96463098038492
 30
0.0
 41
1.0
 10
-1.717373235496882
 20
11.92926196076984
 30
0.0
 41
1.0
 10
-1.594555910671577
 20
10.76619844401829
 30
0.0
 41
1.0
 10
-1.543713544715262
 20
10.28472808930057
 30
0.0
 41
1.0
 10
-1.492871178758947
 20
9.803257734582848
 30
0.0
 41
1.0
 10
-1.471738585846271
 20
9.60313492726673
 30
0.0
 41
0.7602473260343933
 10
-1.666117147737
 20
9.551051348582186
 30
0.0
 41
1.0
 10
-2.499371523203492
 20
9.32778151158624
 30
0.0
 41
1.0
 10
-3.332625898669984
 20
9.104511674590293
 30
0.0
 41
1.0
  0
LWPOLYLINE
  5
7C
330
6A
100
AcDbEntity
  8
NONE
  6
CONTINUOUS
 62
    17
100
AcDbPolyline
 90
        4
 70
   129
 43
0.0
 10
0.0
 20
2.0
 42
0.4142135623730951
 10
-2.0
 20
0.0
 42
0.4142135623730951
 10
0.0
 20
-2.0
 42
0.4142135623730951
 10
2.0
 20
0.0
 42
0.4142135623730951
  0
ENDBLK
  5
6C
330
6A
100
AcDbEntity
  8
0
100
AcDbBlockEnd
  0
BLOCK
  5
6E
330
6D
100
AcDbEntity
  8
0
100
AcDbBlockBegin
  2
SPUR_GEAR-1
 70
     0
 10
0.0
 20
0.0
 30
0.0
  3
SPUR_GEAR-1
  1
SPUR_GEAR-1
  0
SPLINE
  5
7D
330
6D
100
AcDbEntity
  8
NONE
  6
CONTINUOUS
 62
    17
100
AcDbSpline
210
0.0
220
0.0
230
1.0
 70
    15
 71
     2
 72
   340
 73
   337
 74
     0
 42
0.000000001
 43
0.0000000000001
 40
0.0
 40
0.0
 40
0.0
 40
1.0
 40
1.0
 40
2.0
 40
2.0
 40
3.0
 40
3.0
 40
4.0
 40
4.0
 40
5.0
 40
5.0
 40
6.0
 40
6.0
 40
7.0
 40
7.0
 40
8.0
 40
8.0
 40
9.0
 40
9.0
 40
10.0
 40
10.0
 40
11.0
 40
11.0
 40
12.0
 40
12.0
 40
13.0
 40
13.0
 40
14.0
 40
14.0
 40
15.0
 40
15.0
 40
16.0
 40
16.0
 40
17.0
 40
17.0
 40
18.0
 40
18.0
 40
19.0
 40
19.0
 40
20.0
 40
20.0
 40
21.0
 40
21.0
 40
22.0
 40
22.0
 40
23.0
 40
23.0
 40
24.0
 40
24.0
 40
25.0
 40
25.0
 40
26.0
 40
26.0
 40
27.0
 40
27.0
 40
28.0
 40
28.0
 40
29.0
 40
29.0
 40
30.0
 40
30.0
 40
31.0
 40
31.0
 40
32.0
 40
32.0
 40
33.0
 40
33.0
 40
34.0
 40
34.0
 40
35.0
 40
35.0
 40
36.0
 40
36.0
 40
37.0
 40
37.0
 40
38.0
 40
38.0
 40
39.0
 40
39.0
 40
40.0
 40
40.0
 40
41.0
 40
41.0
 40
42.0
 40
42.0
 40
43.0
 40
43.0
 40
44.0
 40
44.0
 40
45.0
 40
45.0
 40
46.0
 40
46.0
 40
47.0
 40
47.0
 40
48.0
 40
48.0
 40
49.0
 40
49.0
 40
50.0
 40
50.0
 40
51.0
 40
51.0
 40
52.0
 40
52.0
 40
53.0
 40
53.0
 40
54.0
 40
54.0
 40
55.0
 40
55.0
 40
56.0
 40
56.0
 40
57.0
 40
57.0
 40
58.0
 40
58.0
 40
59.0
 40
59.0
 40
60.0
 40
60.0
 40
61.0
 40
61.0
 40
62.0
 40
62.0
 40
63.0
 40
63.0
 40
64.0
 40
64.0
 40
65.0
 40
65.0
 40
66.0
 40
66.0
 40
67.0
 40
67.0
 40
68.0
 40
68.0
 40
69.0
 40
69.0
 40
70.0
 40
70.0
 40
71.0
 40
71.0
 40
72.0
 40
72.0
 40
73.0
 40
73.0
 40
74.0
 40
74.0
 40
75.0
 40
75.0
 40
76.0
 40
76.0
 40
77.0
 40
77.0
 40
78.0
 40
78.0
 40
79.0
 40
79.0
 40
80.0
 40
80.0
 40
81.0
 40
81.0
 40
82.0
 40
82.0
 40
83.0
 40
83.0
 40
84.0
 40
84.0
 40
85.0
 40
85.0
 40
86.0
 40
86.0
 40
87.0
 40
87.0
 40
88.0
 40
88.0
 40
89.0
 40
89.0
 40
90.0
 40
90.0
 40
91.0
 40
91.0
 40
92.0
 40
92.0
 40
93.0
 40
93.0
 40
94.0
 40
94.0
 40
95.0
 40
95.0
 40
96.0
 40
96.0
 40
97.0
 40
97.0
 40
98.0
 40
98.0
 40
99.0
 40
99.0
 40
100.0
 40
100.0
 40
101.0
 40
101.0
 40
102.0
 40
102.0
 40
103.0
 40
103.0
 40
104.0
 40
104.0
 40
105.0
 40
105.0
 40
106.0
 40
106.0
 40
107.0
 40
107.0
 40
108.0
 40
108.0
 40
109.0
 40
109.0
 40
110.0
 40
110.0
 40
111.0
 40
111.0
 40
112.0
 40
112.0
 40
113.0
 40
113.0
 40
114.0
 40
114.0
 40
115.0
 40
115.0
 40
116.0
 40
116.0
 40
117.0
 40
117.0
 40
118.0
 40
118.0
 40
119.0
 40
119.0
 40
120.0
 40
120.0
 40
121.0
 40
121.0
 40
122.0
 40
122.0
 40
123.0
 40
123.0
 40
124.0
 40
124.0
 40
125.0
 40
125.0
 40
126.0
 40
126.0
 40
127.0
 40
127.0
 40
128.0
 40
128.0
 40
129.0
 40
129.0
 40
130.0
 40
130.0
 40
131.0
 40
131.0
 40
132.0
 40
132.0
 40
133.0
 40
133.0
 40
134.0
 40
134.0
 40
135.0
 40
135.0
 40
136.0
 40
136.0
 40
137.0
 40
137.0
 40
138.0
 40
138.0
 40
139.0
 40
139.0
 40
140.0
 40
140.0
 40
141.0
 40
141.0
 40
142.0
 40
142.0
 40
143.0
 40
143.0
 40
144.0
 40
144.0
 40
145.0
 40
145.0
 40
146.0
 40
146.0
 40
147.0
 40
147.0
 40
148.0
 40
148.0
 40
149.0
 40
149.0
 40
150.0
 40
150.0
 40
151.0
 40
151.0
 40
152.0
 40
152.0
 40
153.0
 40
153.0
 40
154.0
 40
154.0
 40
155.0
 40
155.0
 40
156.0
 40
156.0
 40
157.0
 40
157.0
 40
158.0
 40
158.0
 40
159.0
 40
159.0
 40
160.0
 40
160.0
 40
161.0
 40
161.0
 40
162.0
 40
162.0
 40
163.0
 40
163.0
 40
164.0
 40
164.0
 40
165.0
 40
165.0
 40
166.0
 40
166.0
 40
167.0
 40
167.0
 40
168.0
 40
168.0
 40
168.0
 10
-2.940377761701568
 20
9.589505168978489
 30
0.0
 41
1.0
 10
-3.106698470043914
 20
9.5515435526434
 30
0.0
 41
0.7637672193559267
 10
-3.171851495485602
 20
9.70921011731095
 30
0.0
 41
1.0
 10
-3.33065075906062
 20
10.09349517836338
 30
0.0
 41
1.0
 10
-3.489450022635638
 20
10.47778023941582
 30
0.0
 41
1.0
 10
-3.872201575227363
 20
11.40401692618824
 30
0.0
 41
1.0
 10
-4.619541800757583
 20
12.02058576300937
 30
0.0
 41
1.0
 10
-4.9433869662034
 20
12.28776372312441
 30
0.0
 41
1.0
 10
-5.267232131649218
 20
12.55494168323945
 30
0.0
 41
1.0
 10
-5.366882026287804
 20
12.63715459983051
 30
0.0
 41
0.842275960132152
 10
-5.483274738867122
 20
12.58110282363815
 30
0.0
 41
1.0
 10
-5.950405565040779
 20
12.35614447409032
 30
0.0
 41
1.0
 10
-6.417536391214434
 20
12.1311861245425
 30
0.0
 41
1.0
 10
-6.533929103793754
 20
12.07513434835014
 30
0.0
 41
0.8422759601321507
 10
-6.531783150400797
 20
11.94596600842148
 30
0.0
 41
1.0
 10
-6.524809167797995
 20
11.52619092921773
 30
0.0
 41
1.0
 10
-6.517835185195194
 20
11.10641585001398
 30
0.0
 41
1.0
 10
-6.501741266596636
 20
10.13769735167782
 30
0.0
 41
1.0
 10
-6.016221954347621
 20
9.260951009588062
 30
0.0
 41
1.0
 10
-5.814785516756382
 20
8.89719892935952
 30
0.0
 41
1.0
 10
-5.613349079165143
 20
8.533446849130979
 30
0.0
 41
1.0
 10
-5.530702642098608
 20
8.384204667498311
 30
0.0
 41
0.7637672193559282
 10
-5.664081494364124
 20
8.277838582176882
 30
0.0
 41
1.0
 10
-6.237000338266688
 20
7.820951050175317
 30
0.0
 41
1.0
 10
-6.809919182169252
 20
7.364063518173753
 30
0.0
 41
1.0
 10
-6.943298034434769
 20
7.257697432852325
 30
0.0
 41
0.7637672193559276
 10
-7.070407840619161
 20
7.371481260833449
 30
0.0
 41
1.0
 10
-7.380216072522533
 20
7.648809718992629
 30
0.0
 41
1.0
 10
-7.690024304425904
 20
7.926138177151808
 30
0.0
 41
1.0
 10
-8.436750574417038
 20
8.59457892145129
 30
0.0
 41
1.0
 10
-9.377600043694258
 20
8.825829476899932
 30
0.0
 41
1.0
 10
-9.78529862812616
 20
8.92603734987448
 30
0.0
 41
1.0
 10
-10.19299721255806
 20
9.026245222849028
 30
0.0
 41
1.0
 10
-10.31844951297148
 20
9.057080032348573
 30
0.0
 41
0.842275960132152
 10
-10.39899576921763
 20
8.956078221668673
 30
0.0
 41
1.0
 10
-10.72226033099011
 20
8.550717282634073
 30
0.0
 41
1.0
 10
-11.04552489276259
 20
8.145356343599474
 30
0.0
 41
1.0
 10
-11.12607114900875
 20
8.044354532919572
 30
0.0
 41
0.8422759601321528
 10
-11.06809366950587
 20
7.928908974207324
 30
0.0
 41
1.0
 10
-10.87967674734216
 20
7.553730593971714
 30
0.0
 41
1.0
 10
-10.69125982517845
 20
7.178552213736104
 30
0.0
 41
1.0
 10
-10.25644850134815
 20
6.312749894552636
 30
0.0
 41
1.0
 10
-9.438604735082851
 20
5.73348766989483
 30
0.0
 41
1.0
 10
-9.099290663270626
 20
5.493158364710778
 30
0.0
 41
1.0
 10
-8.759976591458402
 20
5.252829059526727
 30
0.0
 41
1.0
 10
-8.620760968817551
 20
5.154225445237028
 30
0.0
 41
0.7637672193559242
 10
-8.69478064753078
 20
5.000521998621596
 30
0.0
 41
1.0
 10
-9.012726618980604
 20
4.340300385952064
 30
0.0
 41
1.0
 10
-9.330672590430426
 20
3.680078773282532
 30
0.0
 41
1.0
 10
-9.404692269143656
 20
3.526375326667102
 30
0.0
 41
0.7637672193559262
 10
-9.568583200056462
 20
3.573740135363068
 30
0.0
 41
1.0
 10
-9.968039080411105
 20
3.689183688280233
 30
0.0
 41
1.0
 10
-10.36749496076575
 20
3.804627241197397
 30
0.0
 41
1.0
 10
-11.33029765238784
 20
4.082879155727692
 30
0.0
 41
1.0
 10
-12.27830958926019
 20
3.88300942119529
 30
0.0
 41
1.0
 10
-12.68911188793644
 20
3.796399808817827
 30
0.0
 41
1.0
 10
-13.09991418661269
 20
3.709790196440365
 30
0.0
 41
1.0
 10
-13.22632152613255
 20
3.683139686662887
 30
0.0
 41
0.8422759601321536
 10
-13.25506815216099
 20
3.557192488806519
 30
0.0
 41
1.0
 10
-13.37043993849358
 20
3.051715665686613
 30
0.0
 41
1.0
 10
-13.48581172482616
 20
2.546238842566707
 30
0.0
 41
1.0
 10
-13.5145583508546
 20
2.420291644710339
 30
0.0
 41
0.842275960132153
 10
-13.41223249610447
 20
2.341434275964319
 30
0.0
 41
1.0
 10
-13.07969091659628
 20
2.085161274163392
 30
0.0
 41
1.0
 10
-12.74714933708809
 20
1.828888272362465
 30
0.0
 41
1.0
 10
-11.97974032332158
 20
1.237484900014591
 30
0.0
 41
1.0
 10
-10.9915560911444
 20
1.070436780567187
 30
0.0
 41
1.0
 10
-10.58156969844759
 20
1.001130416764829
 30
0.0
 41
1.0
 10
-10.17158330575079
 20
0.9318240529624708
 30
0.0
 41
1.0
 10
-10.00337185896721
 20
0.903388661119781
 30
0.0
 41
0.7637672193559313
 10
-10.00337185896721
 20
0.7327907058616037
 30
0.0
 41
1.0
 10
-10.00337185896721
 20
0.00000000000001
 30
0.0
 41
1.0
 10
-10.00337185896721
 20
-0.7327907058615836
 30
0.0
 41
1.0
 10
-10.00337185896721
 20
-0.9033886611197627
 30
0.0
 41
0.7637672193559291
 10
-10.17158330575079
 20
-0.9318240529624509
 30
0.0
 41
1.0
 10
-10.58156969844759
 20
-1.001130416764808
 30
0.0
 41
1.0
 10
-10.99155609114439
 20
-1.070436780567165
 30
0.0
 41
1.0
 10
-11.97974032332158
 20
-1.237484900014567
 30
0.0
 41
1.0
 10
-12.74714933708809
 20
-1.82888827236244
 30
0.0
 41
1.0
 10
-13.07969091659628
 20
-2.085161274163366
 30
0.0
 41
1.0
 10
-13.41223249610448
 20
-2.341434275964294
 30
0.0
 41
1.0
 10
-13.5145583508546
 20
-2.420291644710313
 30
0.0
 41
0.842275960132153
 10
-13.48581172482616
 20
-2.546238842566681
 30
0.0
 41
1.0
 10
-13.37043993849358
 20
-3.051715665686587
 30
0.0
 41
1.0
 10
-13.255068152161
 20
-3.557192488806494
 30
0.0
 41
1.0
 10
-13.22632152613256
 20
-3.683139686662863
 30
0.0
 41
0.8422759601321522
 10
-13.09991418661269
 20
-3.70979019644034
 30
0.0
 41
1.0
 10
-12.68911188793645
 20
-3.796399808817803
 30
0.0
 41
1.0
 10
-12.2783095892602
 20
-3.883009421195266
 30
0.0
 41
1.0
 10
-11.33029765238785
 20
-4.08287915572767
 30
0.0
 41
1.0
 10
-10.36749496076575
 20
-3.804627241197377
 30
0.0
 41
1.0
 10
-9.96803908041111
 20
-3.689183688280213
 30
0.0
 41
1.0
 10
-9.568583200056468
 20
-3.573740135363049
 30
0.0
 41
1.0
 10
-9.404692269143663
 20
-3.526375326667085
 30
0.0
 41
0.7637672193559301
 10
-9.330672590430433
 20
-3.680078773282514
 30
0.0
 41
1.0
 10
-9.012726618980611
 20
-4.340300385952046
 30
0.0
 41
1.0
 10
-8.694780647530791
 20
-5.000521998621578
 30
0.0
 41
1.0
 10
-8.620760968817562
 20
-5.154225445237008
 30
0.0
 41
0.7637672193559265
 10
-8.759976591458413
 20
-5.252829059526709
 30
0.0
 41
1.0
 10
-9.09929066327064
 20
-5.49315836471076
 30
0.0
 41
1.0
 10
-9.438604735082865
 20
-5.733487669894811
 30
0.0
 41
1.0
 10
-10.25644850134817
 20
-6.312749894552613
 30
0.0
 41
1.0
 10
-10.69125982517846
 20
-7.178552213736082
 30
0.0
 41
1.0
 10
-10.87967674734218
 20
-7.553730593971691
 30
0.0
 41
1.0
 10
-11.06809366950589
 20
-7.9289089742073
 30
0.0
 41
1.0
 10
-11.12607114900877
 20
-8.044354532919549
 30
0.0
 41
0.8422759601321552
 10
-11.04552489276261
 20
-8.14535634359945
 30
0.0
 41
1.0
 10
-10.72226033099013
 20
-8.55071728263405
 30
0.0
 41
1.0
 10
-10.39899576921765
 20
-8.956078221668651
 30
0.0
 41
1.0
 10
-10.31844951297149
 20
-9.057080032348553
 30
0.0
 41
0.8422759601321511
 10
-10.19299721255808
 20
-9.026245222849006
 30
0.0
 41
1.0
 10
-9.78529862812618
 20
-8.92603734987446
 30
0.0
 41
1.0
 10
-9.377600043694276
 20
-8.825829476899912
 30
0.0
 41
1.0
 10
-8.436750574417056
 20
-8.594578921451273
 30
0.0
 41
1.0
 10
-7.69002430442592
 20
-7.926138177151792
 30
0.0
 41
1.0
 10
-7.380216072522549
 20
-7.648809718992613
 30
0.0
 41
1.0
 10
-7.070407840619177
 20
-7.371481260833435
 30
0.0
 41
1.0
 10
-6.943298034434784
 20
-7.257697432852312
 30
0.0
 41
0.7637672193559294
 10
-6.809919182169268
 20
-7.364063518173738
 30
0.0
 41
1.0
 10
-6.237000338266705
 20
-7.820951050175304
 30
0.0
 41
1.0
 10
-5.664081494364144
 20
-8.27783858217687
 30
0.0
 41
1.0
 10
-5.530702642098627
 20
-8.384204667498297
 30
0.0
 41
0.763767219355929
 10
-5.613349079165163
 20
-8.533446849130966
 30
0.0
 41
1.0
 10
-5.814785516756404
 20
-8.897198929359508
 30
0.0
 41
1.0
 10
-6.016221954347643
 20
-9.26095100958805
 30
0.0
 41
1.0
 10
-6.50174126659666
 20
-10.1376973516778
 30
0.0
 41
1.0
 10
-6.517835185195221
 20
-11.10641585001397
 30
0.0
 41
1.0
 10
-6.524809167798024
 20
-11.52619092921772
 30
0.0
 41
1.0
 10
-6.531783150400826
 20
-11.94596600842147
 30
0.0
 41
1.0
 10
-6.533929103793781
 20
-12.07513434835013
 30
0.0
 41
0.8422759601321522
 10
-6.417536391214463
 20
-12.13118612454249
 30
0.0
 41
1.0
 10
-5.950405565040806
 20
-12.35614447409031
 30
0.0
 41
1.0
 10
-5.483274738867149
 20
-12.58110282363814
 30
0.0
 41
1.0
 10
-5.366882026287831
 20
-12.6371545998305
 30
0.0
 41
0.842275960132152
 10
-5.267232131649245
 20
-12.55494168323944
 30
0.0
 41
1.0
 10
-4.943386966203428
 20
-12.2877637231244
 30
0.0
 41
1.0
 10
-4.61954180075761
 20
-12.02058576300936
 30
0.0
 41
1.0
 10
-3.872201575227389
 20
-11.40401692618823
 30
0.0
 41
1.0
 10
-3.489450022635663
 20
-10.47778023941581
 30
0.0
 41
1.0
 10
-3.330650759060644
 20
-10.09349517836338
 30
0.0
 41
1.0
 10
-3.171851495485625
 20
-9.709210117310946
 30
0.0
 41
1.0
 10
-3.106698470043936
 20
-9.551543552643395
 30
0.0
 41
0.7637672193559267
 10
-2.940377761701591
 20
-9.589505168978484
 30
0.0
 41
1.0
 10
-2.225959648769703
 20
-9.752566441241314
 30
0.0
 41
1.0
 10
-1.511541535837815
 20
-9.915627713504142
 30
0.0
 41
1.0
 10
-1.34522082749547
 20
-9.953589329839229
 30
0.0
 41
0.763767219355927
 10
-1.354928938534631
 20
-10.12391083440728
 30
0.0
 41
1.0
 10
-1.378590784984158
 20
-10.53904012906454
 30
0.0
 41
1.0
 10
-1.402252631433684
 20
-10.95416942372181
 30
0.0
 41
1.0
 10
-1.459284435371898
 20
-11.95474951760439
 30
0.0
 41
1.0
 10
-1.053473350781316
 20
-12.83451761594505
 30
0.0
 41
1.0
 10
-0.8776231110384405
 20
-13.21574779147715
 30
0.0
 41
1.0
 10
-0.7017728712955653
 20
-13.59697796700925
 30
0.0
 41
1.0
 10
-0.6476622661907336
 20
-13.71428571428571
 30
0.0
 41
0.8422759601321523
 10
-0.5184761014675318
 20
-13.71428571428571
 30
0.0
 41
1.0
 10
-0.0000000000000057
 20
-13.71428571428571
 30
0.0
 41
1.0
 10
0.5184761014675204
 20
-13.71428571428571
 30
0.0
 41
1.0
 10
0.6476622661907222
 20
-13.71428571428571
 30
0.0
 41
0.8422759601321524
 10
0.701772871295554
 20
-13.59697796700925
 30
0.0
 41
1.0
 10
0.8776231110384296
 20
-13.21574779147715
 30
0.0
 41
1.0
 10
1.053473350781305
 20
-12.83451761594505
 30
0.0
 41
1.0
 10
1.459284435371889
 20
-11.95474951760439
 30
0.0
 41
1.0
 10
1.402252631433676
 20
-10.95416942372181
 30
0.0
 41
1.0
 10
1.37859078498415
 20
-10.53904012906455
 30
0.0
 41
1.0
 10
1.354928938534624
 20
-10.12391083440728
 30
0.0
 41
1.0
 10
1.345220827495464
 20
-9.953589329839232
 30
0.0
 41
0.7637672193559301
 10
1.511541535837807
 20
-9.915627713504145
 30
0.0
 41
1.0
 10
2.225959648769694
 20
-9.752566441241315
 30
0.0
 41
1.0
 10
2.940377761701579
 20
-9.589505168978485
 30
0.0
 41
1.0
 10
3.106698470043925
 20
-9.551543552643396
 30
0.0
 41
0.7637672193559267
 10
3.171851495485613
 20
-9.709210117310947
 30
0.0
 41
1.0
 10
3.330650759060632
 20
-10.09349517836338
 30
0.0
 41
1.0
 10
3.48945002263565
 20
-10.47778023941581
 30
0.0
 41
1.0
 10
3.872201575227376
 20
-11.40401692618823
 30
0.0
 41
1.0
 10
4.619541800757596
 20
-12.02058576300937
 30
0.0
 41
1.0
 10
4.943386966203414
 20
-12.2877637231244
 30
0.0
 41
1.0
 10
5.267232131649231
 20
-12.55494168323944
 30
0.0
 41
1.0
 10
5.366882026287817
 20
-12.6371545998305
 30
0.0
 41
0.842275960132152
 10
5.483274738867135
 20
-12.58110282363814
 30
0.0
 41
1.0
 10
5.950405565040791
 20
-12.35614447409032
 30
0.0
 41
1.0
 10
6.417536391214448
 20
-12.1311861245425
 30
0.0
 41
1.0
 10
6.533929103793765
 20
-12.07513434835014
 30
0.0
 41
0.8422759601321534
 10
6.531783150400811
 20
-11.94596600842148
 30
0.0
 41
1.0
 10
6.52480916779801
 20
-11.52619092921773
 30
0.0
 41
1.0
 10
6.517835185195207
 20
-11.10641585001397
 30
0.0
 41
1.0
 10
6.501741266596649
 20
-10.13769735167781
 30
0.0
 41
1.0
 10
6.016221954347633
 20
-9.260951009588055
 30
0.0
 41
1.0
 10
5.814785516756393
 20
-8.897198929359513
 30
0.0
 41
1.0
 10
5.613349079165153
 20
-8.533446849130971
 30
0.0
 41
1.0
 10
5.530702642098617
 20
-8.384204667498304
 30
0.0
 41
0.7637672193559282
 10
5.664081494364134
 20
-8.277838582176875
 30
0.0
 41
1.0
 10
6.237000338266697
 20
-7.82095105017531
 30
0.0
 41
1.0
 10
6.80991918216926
 20
-7.364063518173745
 30
0.0
 41
1.0
 10
6.943298034434777
 20
-7.257697432852319
 30
0.0
 41
0.7637672193559296
 10
7.070407840619169
 20
-7.371481260833442
 30
0.0
 41
1.0
 10
7.38021607252254
 20
-7.648809718992621
 30
0.0
 41
1.0
 10
7.690024304425911
 20
-7.9261381771518
 30
0.0
 41
1.0
 10
8.436750574417045
 20
-8.594578921451282
 30
0.0
 41
1.0
 10
9.377600043694265
 20
-8.825829476899923
 30
0.0
 41
1.0
 10
9.78529862812617
 20
-8.92603734987447
 30
0.0
 41
1.0
 10
10.19299721255807
 20
-9.026245222849017
 30
0.0
 41
1.0
 10
10.31844951297149
 20
-9.057080032348562
 30
0.0
 41
0.842275960132152
 10
10.39899576921765
 20
-8.956078221668662
 30
0.0
 41
1.0
 10
10.72226033099012
 20
-8.55071728263406
 30
0.0
 41
1.0
 10
11.0455248927626
 20
-8.145356343599461
 30
0.0
 41
1.0
 10
11.12607114900876
 20
-8.044354532919565
 30
0.0
 41
0.842275960132155
 10
11.06809366950588
 20
-7.92890897420731
 30
0.0
 41
1.0
 10
10.87967674734217
 20
-7.553730593971702
 30
0.0
 41
1.0
 10
10.69125982517846
 20
-7.178552213736094
 30
0.0
 41
1.0
 10
10.25644850134816
 20
-6.312749894552626
 30
0.0
 41
1.0
 10
9.438604735082858
 20
-5.733487669894822
 30
0.0
 41
1.0
 10
9.099290663270633
 20
-5.49315836471077
 30
0.0
 41
1.0
 10
8.75997659145841
 20
-5.252829059526719
 30
0.0
 41
1.0
 10
8.620760968817558
 20
-5.154225445237018
 30
0.0
 41
0.7637672193559272
 10
8.694780647530788
 20
-5.000521998621588
 30
0.0
 41
1.0
 10
9.012726618980608
 20
-4.340300385952055
 30
0.0
 41
1.0
 10
9.330672590430428
 20
-3.680078773282523
 30
0.0
 41
1.0
 10
9.404692269143657
 20
-3.526375326667092
 30
0.0
 41
0.7637672193559275
 10
9.568583200056464
 20
-3.573740135363058
 30
0.0
 41
1.0
 10
9.968039080411106
 20
-3.689183688280223
 30
0.0
 41
1.0
 10
10.36749496076575
 20
-3.804627241197387
 30
0.0
 41
1.0
 10
11.33029765238784
 20
-4.082879155727682
 30
0.0
 41
1.0
 10
12.2783095892602
 20
-3.883009421195278
 30
0.0
 41
1.0
 10
12.68911188793644
 20
-3.796399808817815
 30
0.0
 41
1.0
 10
13.09991418661269
 20
-3.709790196440352
 30
0.0
 41
1.0
 10
13.22632152613256
 20
-3.683139686662873
 30
0.0
 41
0.8422759601321529
 10
13.255068152161
 20
-3.557192488806506
 30
0.0
 41
1.0
 10
13.37043993849358
 20
-3.0517156656866
 30
0.0
 41
1.0
 10
13.48581172482616
 20
-2.546238842566694
 30
0.0
 41
1.0
 10
13.5145583508546
 20
-2.420291644710326
 30
0.0
 41
0.8422759601321524
 10
13.41223249610447
 20
-2.341434275964306
 30
0.0
 41
1.0
 10
13.07969091659628
 20
-2.085161274163379
 30
0.0
 41
1.0
 10
12.74714933708809
 20
-1.828888272362452
 30
0.0
 41
1.0
 10
11.97974032332158
 20
-1.237484900014578
 30
0.0
 41
1.0
 10
10.99155609114439
 20
-1.070436780567176
 30
0.0
 41
1.0
 10
10.58156969844759
 20
-1.001130416764818
 30
0.0
 41
1.0
 10
10.17158330575079
 20
-0.9318240529624605
 30
0.0
 41
1.0
 10
10.00337185896721
 20
-0.9033886611197709
 30
0.0
 41
0.7637672193559312
 10
10.00337185896721
 20
-0.7327907058615932
 30
0.0
 41
1.0
 10
10.00337185896721
 20
-0.0000000000000016
 30
0.0
 41
1.0
 10
10.00337185896722
 20
0.7327907058615901
 30
0.0
 41
1.0
 10
10.00337185896722
 20
0.9033886611197689
 30
0.0
 41
0.7637672193559292
 10
10.17158330575079
 20
0.931824052962457
 30
0.0
 41
1.0
 10
10.58156969844759
 20
1.001130416764815
 30
0.0
 41
1.0
 10
10.9915560911444
 20
1.070436780567172
 30
0.0
 41
1.0
 10
11.97974032332158
 20
1.237484900014576
 30
0.0
 41
1.0
 10
12.74714933708809
 20
1.828888272362447
 30
0.0
 41
1.0
 10
13.07969091659628
 20
2.085161274163374
 30
0.0
 41
1.0
 10
13.41223249610448
 20
2.341434275964301
 30
0.0
 41
1.0
 10
13.5145583508546
 20
2.42029164471032
 30
0.0
 41
0.842275960132153
 10
13.48581172482616
 20
2.546238842566688
 30
0.0
 41
1.0
 10
13.37043993849358
 20
3.051715665686594
 30
0.0
 41
1.0
 10
13.255068152161
 20
3.5571924888065
 30
0.0
 41
1.0
 10
13.22632152613256
 20
3.683139686662869
 30
0.0
 41
0.8422759601321522
 10
13.09991418661269
 20
3.709790196440347
 30
0.0
 41
1.0
 10
12.68911188793645
 20
3.79639980881781
 30
0.0
 41
1.0
 10
12.2783095892602
 20
3.883009421195273
 30
0.0
 41
1.0
 10
11.33029765238784
 20
4.082879155727678
 30
0.0
 41
1.0
 10
10.36749496076575
 20
3.804627241197384
 30
0.0
 41
1.0
 10
9.96803908041111
 20
3.689183688280219
 30
0.0
 41
1.0
 10
9.568583200056468
 20
3.573740135363055
 30
0.0
 41
1.0
 10
9.404692269143661
 20
3.526375326667087
 30
0.0
 41
0.7637672193559238
 10
9.330672590430432
 20
3.680078773282519
 30
0.0
 41
1.0
 10
9.01272661898061
 20
4.340300385952052
 30
0.0
 41
1.0
 10
8.694780647530788
 20
5.000521998621585
 30
0.0
 41
1.0
 10
8.620760968817558
 20
5.154225445237013
 30
0.0
 41
0.7637672193559261
 10
8.75997659145841
 20
5.252829059526715
 30
0.0
 41
1.0
 10
9.099290663270635
 20
5.493158364710766
 30
0.0
 41
1.0
 10
9.43860473508286
 20
5.733487669894817
 30
0.0
 41
1.0
 10
10.25644850134816
 20
6.31274989455262
 30
0.0
 41
1.0
 10
10.69125982517846
 20
7.178552213736088
 30
0.0
 41
1.0
 10
10.87967674734217
 20
7.553730593971697
 30
0.0
 41
1.0
 10
11.06809366950588
 20
7.928908974207305
 30
0.0
 41
1.0
 10
11.12607114900876
 20
8.044354532919558
 30
0.0
 41
0.8422759601321523
 10
11.0455248927626
 20
8.145356343599456
 30
0.0
 41
1.0
 10
10.72226033099012
 20
8.550717282634057
 30
0.0
 41
1.0
 10
10.39899576921765
 20
8.956078221668658
 30
0.0
 41
1.0
 10
10.31844951297149
 20
9.05708003234856
 30
0.0
 41
0.8422759601321511
 10
10.19299721255808
 20
9.026245222849013
 30
0.0
 41
1.0
 10
9.785298628126172
 20
8.926037349874466
 30
0.0
 41
1.0
 10
9.377600043694269
 20
8.82582947689992
 30
0.0
 41
1.0
 10
8.43675057441705
 20
8.594578921451278
 30
0.0
 41
1.0
 10
7.690024304425915
 20
7.926138177151796
 30
0.0
 41
1.0
 10
7.380216072522543
 20
7.648809718992617
 30
0.0
 41
1.0
 10
7.070407840619172
 20
7.371481260833439
 30
0.0
 41
1.0
 10
6.94329803443478
 20
7.257697432852315
 30
0.0
 41
0.7637672193559294
 10
6.809919182169263
 20
7.364063518173742
 30
0.0
 41
1.0
 10
6.237000338266702
 20
7.820951050175307
 30
0.0
 41
1.0
 10
5.66408149436414
 20
8.277838582176873
 30
0.0
 41
1.0
 10
5.530702642098624
 20
8.3842046674983
 30
0.0
 41
0.763767219355929
 10
5.613349079165159
 20
8.53344684913097
 30
0.0
 41
1.0
 10
5.814785516756399
 20
8.897198929359512
 30
0.0
 41
1.0
 10
6.016221954347639
 20
9.260951009588052
 30
0.0
 41
1.0
 10
6.501741266596656
 20
10.1376973516778
 30
0.0
 41
1.0
 10
6.517835185195215
 20
11.10641585001397
 30
0.0
 41
1.0
 10
6.524809167798018
 20
11.52619092921772
 30
0.0
 41
1.0
 10
6.531783150400821
 20
11.94596600842147
 30
0.0
 41
1.0
 10
6.533929103793776
 20
12.07513434835013
 30
0.0
 41
0.8422759601321541
 10
6.417536391214458
 20
12.13118612454249
 30
0.0
 41
1.0
 10
5.950405565040802
 20
12.35614447409032
 30
0.0
 41
1.0
 10
5.483274738867144
 20
12.58110282363814
 30
0.0
 41
1.0
 10
5.366882026287826
 20
12.6371545998305
 30
0.0
 41
0.842275960132153
 10
5.267232131649241
 20
12.55494168323944
 30
0.0
 41
1.0
 10
4.943386966203422
 20
12.2877637231244
 30
0.0
 41
1.0
 10
4.619541800757604
 20
12.02058576300936
 30
0.0
 41
1.0
 10
3.872201575227382
 20
11.40401692618823
 30
0.0
 41
1.0
 10
3.489450022635657
 20
10.47778023941581
 30
0.0
 41
1.0
 10
3.330650759060638
 20
10.09349517836338
 30
0.0
 41
1.0
 10
3.17185149548562
 20
9.709210117310947
 30
0.0
 41
1.0
 10
3.106698470043932
 20
9.551543552643398
 30
0.0
 41
0.7637672193559275
 10
2.940377761701586
 20
9.589505168978485
 30
0.0
 41
1.0
 10
2.225959648769699
 20
9.752566441241314
 30
0.0
 41
1.0
 10
1.511541535837812
 20
9.915627713504144
 30
0.0
 41
1.0
 10
1.345220827495467
 20
9.95358932983923
 30
0.0
 41
0.7637672193559281
 10
1.354928938534628
 20
10.12391083440728
 30
0.0
 41
1.0
 10
1.378590784984154
 20
10.53904012906455
 30
0.0
 41
1.0
 10
1.402252631433681
 20
10.95416942372181
 30
0.0
 41
1.0
 10
1.459284435371894
 20
11.95474951760439
 30
0.0
 41
1.0
 10
1.053473350781311
 20
12.83451761594505
 30
0.0
 41
1.0
 10
0.8776231110384352
 20
13.21574779147715
 30
0.0
 41
1.0
 10
0.7017728712955598
 20
13.59697796700925
 30
0.0
 41
1.0
 10
0.6476622661907281
 20
13.71428571428571
 30
0.0
 41
0.8422759601321523
 10
0.5184761014675262
 20
13.71428571428571
 30
0.0
 41
1.0
 10
-0.0000000000000001
 20
13.71428571428571
 30
0.0
 41
1.0
 10
-0.5184761014675263
 20
13.71428571428571
 30
0.0
 41
1.0
 10
-0.6476622661907282
 20
13.71428571428571
 30
0.0
 41
0.8422759601321521
 10
-0.70177287129556
 20
13.59697796700925
 30
0.0
 41
1.0
 10
-0.8776231110384346
 20
13.21574779147715
 30
0.0
 41
1.0
 10
-1.053473350781309
 20
12.83451761594505
 30
0.0
 41
1.0
 10
-1.459284435371891
 20
11.95474951760439
 30
0.0
 41
1.0
 10
-1.402252631433678
 20
10.95416942372181
 30
0.0
 41
1.0
 10
-1.378590784984152
 20
10.53904012906455
 30
0.0
 41
1.0
 10
-1.354928938534627
 20
10.12391083440728
 30
0.0
 41
1.0
 10
-1.345220827495464
 20
9.953589329839232
 30
0.0
 41
0.7637672193559248
 10
-1.511541535837811
 20
9.915627713504144
 30
0.0
 41
1.0
 10
-2.22595964876969
 20
9.752566441241317
 30
0.0
 41
1.0
 10
-2.940377761701568
 20
9.589505168978489
 30
0.0
 41
1.0
  0
LWPOLYLINE
  5
7E
330
6D
100
AcDbEntity
  8
NONE
  6
CONTINUOUS
 62
    17
100
AcDbPolyline
 90
        4
 70
   129
 43
0.0
 10
0.0
 20
2.0
 42
0.4142135623730951
 10
-2.0
 20
0.0
 42
0.4142135623730951
 10
0.0
 20
-2.0
 42
0.4142135623730951
 10
2.0
 20
0.0
 42
0.4142135623730951
  0
ENDBLK
  5
6F
330
6D
100
AcDbEntity
  8
0
100
AcDbBlockEnd
  0
BLOCK
  5
71
330
70
100
AcDbEntity
  8
0
100
AcDbBlockBegin
  2
SPUR_GEAR-2
 70
     0
 10
0.0
 20
0.0
 30
0.0
  3
SPUR_GEAR-2
  1
SPUR_GEAR-2
  0
SPLINE
  5
7F
330
70
100
AcDbEntity
  8
NONE
  6
CONTINUOUS
 62
    17
100
AcDbSpline
210
0.0
220
0.0
230
1.0
 70
    15
 71
     2
 72
   388
 73
   385
 74
     0
 42
0.000000001
 43
0.0000000000001
 40
0.0
 40
0.0
 40
0.0
 40
1.0
 40
1.0
 40
2.0
 40
2.0
 40
3.0
 40
3.0
 40
4.0
 40
4.0
 40
5.0
 40
5.0
 40
6.0
 40
6.0
 40
7.0
 40
7.0
 40
8.0
 40
8.0
 40
9.0
 40
9.0
 40
10.0
 40
10.0
 40
11.0
 40
11.0
 40
12.0
 40
12.0
 40
13.0
 40
13.0
 40
14.0
 40
14.0
 40
15.0
 40
15.0
 40
16.0
 40
16.0
 40
17.0
 40
17.0
 40
18.0
 40
18.0
 40
19.0
 40
19.0
 40
20.0
 40
20.0
 40
21.0
 40
21.0
 40
22.0
 40
22.0
 40
23.0
 40
23.0
 40
24.0
 40
24.0
 40
25.0
 40
25.0
 40
26.0
 40
26.0
 40
27.0
 40
27.0
 40
28.0
 40
28.0
 40
29.0
 40
29.0
 40
30.0
 40
30.0
 40
31.0
 40
31.0
 40
32.0
 40
32.0
 40
33.0
 40
33.0
 40
34.0
 40
34.0
 40
35.0
 40
35.0
 40
36.0
 40
36.0
 40
37.0
 40
37.0
 40
38.0
 40
38.0
 40
39.0
 40
39.0
 40
40.0
 40
40.0
 40
41.0
 40
41.0
 40
42.0
 40
42.0
 40
43.0
 40
43.0
 40
44.0
 40
44.0
 40
45.0
 40
45.0
 40
46.0
 40
46.0
 40
47.0
 40
47.0
 40
48.0
 40
48.0
 40
49.0
 40
49.0
 40
50.0
 40
50.0
 40
51.0
 40
51.0
 40
52.0
 40
52.0
 40
53.0
 40
53.0
 40
54.0
 40
54.0
 40
55.0
 40
55.0
 40
56.0
 40
56.0
 40
57.0
 40
57.0
 40
58.0
 40
58.0
 40
59.0
 40
59.0
 40
60.0
 40
60.0
 40
61.0
 40
61.0
 40
62.0
 40
62.0
 40
63.0
 40
63.0
 40
64.0
 40
64.0
 40
65.0
 40
65.0
 40
66.0
 40
66.0
 40
67.0
 40
67.0
 40
68.0
 40
68.0
 40
69.0
 40
69.0
 40
70.0
 40
70.0
 40
71.0
 40
71.0
 40
72.0
 40
72.0
 40
73.0
 40
73.0
 40
74.0
 40
74.0
 40
75.0
 40
75.0
 40
76.0
 40
76.0
 40
77.0
 40
77.0
 40
78.0
 40
78.0
 40
79.0
 40
79.0
 40
80.0
 40
80.0
 40
81.0
 40
81.0
 40
82.0
 40
82.0
 40
83.0
 40
83.0
 40
84.0
 40
84.0
 40
85.0
 40
85.0
 40
86.0
 40
86.0
 40
87.0
 40
87.0
 40
88.0
 40
88.0
 40
89.0
 40
89.0
 40
90.0
 40
90.0
 40
91.0
 40
91.0
 40
92.0
 40
92.0
 40
93.0
 40
93.0
 40
94.0
 40
94.0
 40
95.0
 40
95.0
 40
96.0
 40
96.0
 40
97.0
 40
97.0
 40
98.0
 40
98.0
 40
99.0
 40
99.0
 40
100.0
 40
100.0
 40
101.0
 40
101.0
 40
102.0
 40
102.0
 40
103.0
 40
103.0
 40
104.0
 40
104.0
 40
105.0
 40
105.0
 40
106.0
 40
106.0
 40
107.0
 40
107.0
 40
108.0
 40
108.0
 40
109.0
 40
109.0
 40
110.0
 40
110.0
 40
111.0
 40
111.0
 40
112.0
 40
112.0
 40
113.0
 40
113.0
 40
114.0
 40
114.0
 40
115.0
 40
115.0
 40
116.0
 40
116.0
 40
117.0
 40
117.0
 40
118.0
 40
118.0
 40
119.0
 40
119.0
 40
120.0
 40
120.0
 40
121.0
 40
121.0
 40
122.0
 40
122.0
 40
123.0
 40
123.0
 40
124.0
 40
124.0
 40
125.0
 40
125.0
 40
126.0
 40
126.0
 40
127.0
 40
127.0
 40
128.0
 40
128.0
 40
129.0
 40
129.0
 40
130.0
 40
130.0
 40
131.0
 40
131.0
 40
132.0
 40
132.0
 40
133.0
 40
133.0
 40
134.0
 40
134.0
 40
135.0
 40
135.0
 40
136.0
 40
136.0
 40
137.0
 40
137.0
 40
138.0
 40
138.0
 40
139.0
 40
139.0
 40
140.0
 40
140.0
 40
141.0
 40
141.0
 40
142.0
 40
142.0
 40
143.0
 40
143.0
 40
144.0
 40
144.0
 40
145.0
 40
145.0
 40
146.0
 40
146.0
 40
147.0
 40
147.0
 40
148.0
 40
148.0
 40
149.0
 40
149.0
 40
150.0
 40
150.0
 40
151.0
 40
151.0
 40
152.0
 40
152.0
 40
153.0
 40
153.0
 40
154.0
 40
154.0
 40
155.0
 40
155.0
 40
156.0
 40
156.0
 40
157.0
 40
157.0
 40
158.0
 40
158.0
 40
159.0
 40
159.0
 40
160.0
 40
160.0
 40
161.0
 40
161.0
 40
162.0
 40
162.0
 40
163.0
 40
163.0
 40
164.0
 40
164.0
 40
165.0
 40
165.0
 40
166.0
 40
166.0
 40
167.0
 40
167.0
 40
168.0
 40
168.0
 40
169.0
 40
169.0
 40
170.0
 40
170.0
 40
171.0
 40
171.0
 40
172.0
 40
172.0
 40
173.0
 40
173.0
 40
174.0
 40
174.0
 40
175.0
 40
175.0
 40
176.0
 40
176.0
 40
177.0
 40
177.0
 40
178.0
 40
178.0
 40
179.0
 40
179.0
 40
180.0
 40
180.0
 40
181.0
 40
181.0
 40
182.0
 40
182.0
 40
183.0
 40
183.0
 40
184.0
 40
184.0
 40
185.0
 40
185.0
 40
186.0
 40
186.0
 40
187.0
 40
187.0
 40
188.0
 40
188.0
 40
189.0
 40
189.0
 40
190.0
 40
190.0
 40
191.0
 40
191.0
 40
192.0
 40
192.0
 40
192.0
 10
-2.625406485116949
 20
9.93798362611062
 30
0.0
 41
1.0
 10
-2.770567872682301
 20
9.90910923085788
 30
0.0
 41
0.7664731415574437
 10
-2.824394633963343
 20
10.04697960081134
 30
0.0
 41
1.0
 10
-2.957113562284043
 20
10.38692217420645
 30
0.0
 41
1.0
 10
-3.089832490604743
 20
10.72686474760156
 30
0.0
 41
1.0
 10
-3.409097108527184
 20
11.54462026434524
 30
0.0
 41
1.0
 10
-4.025637800555073
 20
12.117030838854
 30
0.0
 41
1.0
 10
-4.29237935731542
 20
12.3646798419528
 30
0.0
 41
1.0
 10
-4.559120914075768
 20
12.61232884505161
 30
0.0
 41
1.0
 10
-4.642178492582959
 20
12.68944141336276
 30
0.0
 41
0.8416317471234738
 10
-4.746886735280922
 20
12.64606983914502
 30
0.0
 41
1.0
 10
-5.166226336928709
 20
12.47237368890237
 30
0.0
 41
1.0
 10
-5.585565938576496
 20
12.29867753865973
 30
0.0
 41
1.0
 10
-5.69027418127446
 20
12.25530596444198
 30
0.0
 41
0.8416317471234713
 10
-5.694477938298298
 20
12.14204856748308
 30
0.0
 41
1.0
 10
-5.707978412462543
 20
11.77831951442833
 30
0.0
 41
1.0
 10
-5.721478886626789
 20
11.41459046137357
 30
0.0
 41
1.0
 10
-5.752683591979121
 20
10.57387495830517
 30
0.0
 41
1.0
 10
-5.400197297062848
 20
9.769880310737118
 30
0.0
 41
1.0
 10
-5.253668052408537
 20
9.435658157668053
 30
0.0
 41
1.0
 10
-5.107138807754228
 20
9.101436004598987
 30
0.0
 41
1.0
 10
-5.047711002146573
 20
8.965885663169065
 30
0.0
 41
0.766473141557443
 10
-5.170772884346356
 20
8.883658342341029
 30
0.0
 41
1.0
 10
-5.69971694264819
 20
8.530229221929403
 30
0.0
 41
1.0
 10
-6.228661000950025
 20
8.17680010151778
 30
0.0
 41
1.0
 10
-6.351722883149806
 20
8.094572780689743
 30
0.0
 41
0.766473141557444
 10
-6.454213032593966
 20
8.201349783869377
 30
0.0
 41
1.0
 10
-6.706919724840156
 20
8.464626434628752
 30
0.0
 41
1.0
 10
-6.959626417086346
 20
8.727903085388128
 30
0.0
 41
1.0
 10
-7.567529951022884
 20
9.361233390086515
 30
0.0
 41
1.0
 10
-8.356191320722882
 20
9.65413189585021
 30
0.0
 41
1.0
 10
-8.697399556011607
 20
9.78085216656456
 30
0.0
 41
1.0
 10
-9.038607791300333
 20
9.907572437278914
 30
0.0
 41
1.0
 10
-9.14485269042288
 20
9.947030401613905
 30
0.0
 41
0.84163174712347
 10
-9.224992909848025
 20
9.86689018218876
 30
0.0
 41
1.0
 10
-9.545941546018394
 20
9.54594154601839
 30
0.0
 41
1.0
 10
-9.866890182188763
 20
9.224992909848021
 30
0.0
 41
1.0
 10
-9.947030401613906
 20
9.144852690422875
 30
0.0
 41
0.8416317471234747
 10
-9.907572437278917
 20
9.03860779130033
 30
0.0
 41
1.0
 10
-9.780852166564564
 20
8.697399556011604
 30
0.0
 41
1.0
 10
-9.654131895850213
 20
8.356191320722878
 30
0.0
 41
1.0
 10
-9.36123339008652
 20
7.567529951022881
 30
0.0
 41
1.0
 10
-8.727903085388132
 20
6.959626417086342
 30
0.0
 41
1.0
 10
-8.464626434628755
 20
6.706919724840153
 30
0.0
 41
1.0
 10
-8.201349783869379
 20
6.454213032593963
 30
0.0
 41
1.0
 10
-8.094572780689745
 20
6.351722883149803
 30
0.0
 41
0.7664731415574426
 10
-8.176800101517781
 20
6.228661000950021
 30
0.0
 41
1.0
 10
-8.530229221929405
 20
5.699716942648189
 30
0.0
 41
1.0
 10
-8.883658342341029
 20
5.170772884346357
 30
0.0
 41
1.0
 10
-8.965885663169065
 20
5.047711002146574
 30
0.0
 41
0.7664731415574411
 10
-9.101436004598987
 20
5.107138807754229
 30
0.0
 41
1.0
 10
-9.435658157668053
 20
5.253668052408538
 30
0.0
 41
1.0
 10
-9.769880310737118
 20
5.400197297062848
 30
0.0
 41
1.0
 10
-10.57387495830517
 20
5.752683591979122
 30
0.0
 41
1.0
 10
-11.41459046137357
 20
5.721478886626791
 30
0.0
 41
1.0
 10
-11.77831951442833
 20
5.707978412462545
 30
0.0
 41
1.0
 10
-12.14204856748308
 20
5.6944779382983
 30
0.0
 41
1.0
 10
-12.25530596444198
 20
5.690274181274461
 30
0.0
 41
0.841631747123473
 10
-12.29867753865973
 20
5.585565938576498
 30
0.0
 41
1.0
 10
-12.47237368890237
 20
5.166226336928711
 30
0.0
 41
1.0
 10
-12.64606983914502
 20
4.746886735280923
 30
0.0
 41
1.0
 10
-12.68944141336276
 20
4.642178492582961
 30
0.0
 41
0.8416317471234728
 10
-12.61232884505161
 20
4.559120914075769
 30
0.0
 41
1.0
 10
-12.3646798419528
 20
4.292379357315422
 30
0.0
 41
1.0
 10
-12.117030838854
 20
4.025637800555074
 30
0.0
 41
1.0
 10
-11.54462026434524
 20
3.409097108527186
 30
0.0
 41
1.0
 10
-10.72686474760156
 20
3.089832490604745
 30
0.0
 41
1.0
 10
-10.38692217420645
 20
2.957113562284045
 30
0.0
 41
1.0
 10
-10.04697960081134
 20
2.824394633963345
 30
0.0
 41
1.0
 10
-9.90910923085788
 20
2.770567872682303
 30
0.0
 41
0.7664731415574437
 10
-9.93798362611062
 20
2.625406485116951
 30
0.0
 41
1.0
 10
-10.06209142889232
 20
2.001474426911536
 30
0.0
 41
1.0
 10
-10.18619923167402
 20
1.377542368706121
 30
0.0
 41
1.0
 10
-10.21507362692676
 20
1.232380981140769
 30
0.0
 41
0.766473141557443
 10
-10.36304784962665
 20
1.235412244487078
 30
0.0
 41
1.0
 10
-10.72790317044519
 20
1.242886333828613
 30
0.0
 41
1.0
 10
-11.09275849126373
 20
1.250360423170148
 30
0.0
 41
1.0
 10
-11.97044335560069
 20
1.268339865199526
 30
0.0
 41
1.0
 10
-12.73522167780035
 20
0.917782582249703
 30
0.0
 41
1.0
 10
-13.06609709750561
 20
0.7661166880162625
 30
0.0
 41
1.0
 10
-13.39697251721088
 20
0.6144507937828221
 30
0.0
 41
1.0
 10
-13.5
 20
0.5672252992998792
 30
0.0
 41
0.8416317471234752
 10
-13.5
 20
0.4538899140972824
 30
0.0
 41
1.0
 10
-13.5
 20
-0.0000000000000012
 30
0.0
 41
1.0
 10
-13.5
 20
-0.4538899140972849
 30
0.0
 41
1.0
 10
-13.5
 20
-0.5672252992998816
 30
0.0
 41
0.841631747123475
 10
-13.39697251721088
 20
-0.6144507937828245
 30
0.0
 41
1.0
 10
-13.06609709750561
 20
-0.7661166880162651
 30
0.0
 41
1.0
 10
-12.73522167780035
 20
-0.9177825822497057
 30
0.0
 41
1.0
 10
-11.97044335560069
 20
-1.268339865199529
 30
0.0
 41
1.0
 10
-11.09275849126373
 20
-1.25036042317015
 30
0.0
 41
1.0
 10
-10.72790317044519
 20
-1.242886333828615
 30
0.0
 41
1.0
 10
-10.36304784962665
 20
-1.235412244487081
 30
0.0
 41
1.0
 10
-10.21507362692676
 20
-1.232380981140772
 30
0.0
 41
0.7664731415574427
 10
-10.18619923167402
 20
-1.377542368706124
 30
0.0
 41
1.0
 10
-10.06209142889232
 20
-2.001474426911538
 30
0.0
 41
1.0
 10
-9.93798362611062
 20
-2.625406485116953
 30
0.0
 41
1.0
 10
-9.90910923085788
 20
-2.770567872682304
 30
0.0
 41
0.7664731415574437
 10
-10.04697960081134
 20
-2.824394633963347
 30
0.0
 41
1.0
 10
-10.38692217420645
 20
-2.957113562284047
 30
0.0
 41
1.0
 10
-10.72686474760156
 20
-3.089832490604747
 30
0.0
 41
1.0
 10
-11.54462026434524
 20
-3.409097108527188
 30
0.0
 41
1.0
 10
-12.117030838854
 20
-4.025637800555076
 30
0.0
 41
1.0
 10
-12.3646798419528
 20
-4.292379357315424
 30
0.0
 41
1.0
 10
-12.61232884505161
 20
-4.559120914075771
 30
0.0
 41
1.0
 10
-12.68944141336276
 20
-4.642178492582961
 30
0.0
 41
0.8416317471234738
 10
-12.64606983914502
 20
-4.746886735280925
 30
0.0
 41
1.0
 10
-12.47237368890237
 20
-5.166226336928712
 30
0.0
 41
1.0
 10
-12.29867753865973
 20
-5.5855659385765
 30
0.0
 41
1.0
 10
-12.25530596444198
 20
-5.690274181274463
 30
0.0
 41
0.8416317471234713
 10
-12.14204856748308
 20
-5.694477938298301
 30
0.0
 41
1.0
 10
-11.77831951442833
 20
-5.707978412462547
 30
0.0
 41
1.0
 10
-11.41459046137357
 20
-5.721478886626793
 30
0.0
 41
1.0
 10
-10.57387495830517
 20
-5.752683591979124
 30
0.0
 41
1.0
 10
-9.76988031073712
 20
-5.40019729706285
 30
0.0
 41
1.0
 10
-9.435658157668055
 20
-5.253668052408541
 30
0.0
 41
1.0
 10
-9.10143600459899
 20
-5.107138807754231
 30
0.0
 41
1.0
 10
-8.965885663169066
 20
-5.047711002146577
 30
0.0
 41
0.7664731415574424
 10
-8.88365834234103
 20
-5.170772884346358
 30
0.0
 41
1.0
 10
-8.530229221929405
 20
-5.699716942648191
 30
0.0
 41
1.0
 10
-8.17680010151778
 20
-6.228661000950023
 30
0.0
 41
1.0
 10
-8.094572780689742
 20
-6.351722883149804
 30
0.0
 41
0.7664731415574413
 10
-8.201349783869377
 20
-6.454213032593966
 30
0.0
 41
1.0
 10
-8.464626434628752
 20
-6.706919724840155
 30
0.0
 41
1.0
 10
-8.727903085388128
 20
-6.959626417086344
 30
0.0
 41
1.0
 10
-9.361233390086515
 20
-7.567529951022883
 30
0.0
 41
1.0
 10
-9.65413189585021
 20
-8.35619132072288
 30
0.0
 41
1.0
 10
-9.78085216656456
 20
-8.697399556011606
 30
0.0
 41
1.0
 10
-9.907572437278914
 20
-9.03860779130033
 30
0.0
 41
1.0
 10
-9.947030401613906
 20
-9.144852690422875
 30
0.0
 41
0.8416317471234721
 10
-9.86689018218876
 20
-9.224992909848023
 30
0.0
 41
1.0
 10
-9.54594154601839
 20
-9.545941546018392
 30
0.0
 41
1.0
 10
-9.224992909848023
 20
-9.866890182188762
 30
0.0
 41
1.0
 10
-9.14485269042288
 20
-9.947030401613908
 30
0.0
 41
0.8416317471234741
 10
-9.038607791300333
 20
-9.907572437278917
 30
0.0
 41
1.0
 10
-8.697399556011606
 20
-9.780852166564564
 30
0.0
 41
1.0
 10
-8.356191320722878
 20
-9.654131895850213
 30
0.0
 41
1.0
 10
-7.567529951022881
 20
-9.361233390086516
 30
0.0
 41
1.0
 10
-6.959626417086342
 20
-8.727903085388132
 30
0.0
 41
1.0
 10
-6.706919724840153
 20
-8.464626434628755
 30
0.0
 41
1.0
 10
-6.454213032593963
 20
-8.201349783869379
 30
0.0
 41
1.0
 10
-6.351722883149803
 20
-8.094572780689745
 30
0.0
 41
0.7664731415574426
 10
-6.228661000950021
 20
-8.176800101517781
 30
0.0
 41
1.0
 10
-5.699716942648189
 20
-8.530229221929405
 30
0.0
 41
1.0
 10
-5.170772884346358
 20
-8.883658342341029
 30
0.0
 41
1.0
 10
-5.047711002146576
 20
-8.965885663169065
 30
0.0
 41
0.7664731415574411
 10
-5.107138807754231
 20
-9.101436004598987
 30
0.0
 41
1.0
 10
-5.25366805240854
 20
-9.435658157668053
 30
0.0
 41
1.0
 10
-5.400197297062849
 20
-9.769880310737118
 30
0.0
 41
1.0
 10
-5.752683591979123
 20
-10.57387495830517
 30
0.0
 41
1.0
 10
-5.721478886626792
 20
-11.41459046137357
 30
0.0
 41
1.0
 10
-5.707978412462547
 20
-11.77831951442833
 30
0.0
 41
1.0
 10
-5.6944779382983
 20
-12.14204856748308
 30
0.0
 41
1.0
 10
-5.690274181274462
 20
-12.25530596444198
 30
0.0
 41
0.841631747123473
 10
-5.585565938576499
 20
-12.29867753865973
 30
0.0
 41
1.0
 10
-5.166226336928712
 20
-12.47237368890237
 30
0.0
 41
1.0
 10
-4.746886735280924
 20
-12.64606983914502
 30
0.0
 41
1.0
 10
-4.642178492582962
 20
-12.68944141336276
 30
0.0
 41
0.8416317471234728
 10
-4.55912091407577
 20
-12.61232884505161
 30
0.0
 41
1.0
 10
-4.292379357315422
 20
-12.3646798419528
 30
0.0
 41
1.0
 10
-4.025637800555074
 20
-12.117030838854
 30
0.0
 41
1.0
 10
-3.409097108527187
 20
-11.54462026434524
 30
0.0
 41
1.0
 10
-3.089832490604746
 20
-10.72686474760156
 30
0.0
 41
1.0
 10
-2.957113562284046
 20
-10.38692217420645
 30
0.0
 41
1.0
 10
-2.824394633963346
 20
-10.04697960081134
 30
0.0
 41
1.0
 10
-2.770567872682304
 20
-9.90910923085788
 30
0.0
 41
0.7664731415574437
 10
-2.625406485116952
 20
-9.93798362611062
 30
0.0
 41
1.0
 10
-2.001474426911537
 20
-10.06209142889232
 30
0.0
 41
1.0
 10
-1.377542368706122
 20
-10.18619923167402
 30
0.0
 41
1.0
 10
-1.23238098114077
 20
-10.21507362692676
 30
0.0
 41
0.7664731415574424
 10
-1.235412244487079
 20
-10.36304784962665
 30
0.0
 41
1.0
 10
-1.242886333828614
 20
-10.72790317044519
 30
0.0
 41
1.0
 10
-1.250360423170148
 20
-11.09275849126373
 30
0.0
 41
1.0
 10
-1.268339865199527
 20
-11.97044335560069
 30
0.0
 41
1.0
 10
-0.9177825822497039
 20
-12.73522167780035
 30
0.0
 41
1.0
 10
-0.7661166880162633
 20
-13.06609709750561
 30
0.0
 41
1.0
 10
-0.6144507937828227
 20
-13.39697251721088
 30
0.0
 41
1.0
 10
-0.5672252992998799
 20
-13.5
 30
0.0
 41
0.8416317471234752
 10
-0.4538899140972831
 20
-13.5
 30
0.0
 41
1.0
 10
0.0000000000000006
 20
-13.5
 30
0.0
 41
1.0
 10
0.4538899140972842
 20
-13.5
 30
0.0
 41
1.0
 10
0.567225299299881
 20
-13.5
 30
0.0
 41
0.841631747123475
 10
0.6144507937828239
 20
-13.39697251721088
 30
0.0
 41
1.0
 10
0.7661166880162644
 20
-13.06609709750561
 30
0.0
 41
1.0
 10
0.9177825822497051
 20
-12.73522167780035
 30
0.0
 41
1.0
 10
1.268339865199529
 20
-11.97044335560069
 30
0.0
 41
1.0
 10
1.25036042317015
 20
-11.09275849126373
 30
0.0
 41
1.0
 10
1.242886333828615
 20
-10.72790317044519
 30
0.0
 41
1.0
 10
1.23541224448708
 20
-10.36304784962665
 30
0.0
 41
1.0
 10
1.232380981140771
 20
-10.21507362692676
 30
0.0
 41
0.7664731415574424
 10
1.377542368706123
 20
-10.18619923167402
 30
0.0
 41
1.0
 10
2.001474426911538
 20
-10.06209142889232
 30
0.0
 41
1.0
 10
2.625406485116953
 20
-9.93798362611062
 30
0.0
 41
1.0
 10
2.770567872682304
 20
-9.90910923085788
 30
0.0
 41
0.7664731415574437
 10
2.824394633963347
 20
-10.04697960081134
 30
0.0
 41
1.0
 10
2.957113562284047
 20
-10.38692217420645
 30
0.0
 41
1.0
 10
3.089832490604746
 20
-10.72686474760156
 30
0.0
 41
1.0
 10
3.409097108527187
 20
-11.54462026434524
 30
0.0
 41
1.0
 10
4.025637800555075
 20
-12.117030838854
 30
0.0
 41
1.0
 10
4.292379357315422
 20
-12.3646798419528
 30
0.0
 41
1.0
 10
4.55912091407577
 20
-12.61232884505161
 30
0.0
 41
1.0
 10
4.642178492582961
 20
-12.68944141336276
 30
0.0
 41
0.8416317471234738
 10
4.746886735280924
 20
-12.64606983914502
 30
0.0
 41
1.0
 10
5.166226336928712
 20
-12.47237368890237
 30
0.0
 41
1.0
 10
5.5855659385765
 20
-12.29867753865973
 30
0.0
 41
1.0
 10
5.690274181274463
 20
-12.25530596444198
 30
0.0
 41
0.8416317471234713
 10
5.694477938298301
 20
-12.14204856748308
 30
0.0
 41
1.0
 10
5.707978412462547
 20
-11.77831951442833
 30
0.0
 41
1.0
 10
5.721478886626793
 20
-11.41459046137357
 30
0.0
 41
1.0
 10
5.752683591979125
 20
-10.57387495830517
 30
0.0
 41
1.0
 10
5.40019729706285
 20
-9.769880310737118
 30
0.0
 41
1.0
 10
5.253668052408541
 20
-9.435658157668053
 30
0.0
 41
1.0
 10
5.107138807754231
 20
-9.101436004598987
 30
0.0
 41
1.0
 10
5.047711002146576
 20
-8.965885663169065
 30
0.0
 41
0.7664731415574424
 10
5.170772884346357
 20
-8.883658342341029
 30
0.0
 41
1.0
 10
5.69971694264819
 20
-8.530229221929403
 30
0.0
 41
1.0
 10
6.228661000950023
 20
-8.17680010151778
 30
0.0
 41
1.0
 10
6.351722883149805
 20
-8.094572780689743
 30
0.0
 41
0.7664731415574424
 10
6.454213032593965
 20
-8.201349783869377
 30
0.0
 41
1.0
 10
6.706919724840155
 20
-8.464626434628753
 30
0.0
 41
1.0
 10
6.959626417086344
 20
-8.72790308538813
 30
0.0
 41
1.0
 10
7.567529951022883
 20
-9.361233390086516
 30
0.0
 41
1.0
 10
8.35619132072288
 20
-9.65413189585021
 30
0.0
 41
1.0
 10
8.697399556011607
 20
-9.78085216656456
 30
0.0
 41
1.0
 10
9.038607791300334
 20
-9.907572437278914
 30
0.0
 41
1.0
 10
9.144852690422878
 20
-9.947030401613905
 30
0.0
 41
0.8416317471234772
 10
9.224992909848023
 20
-9.86689018218876
 30
0.0
 41
1.0
 10
9.545941546018394
 20
-9.54594154601839
 30
0.0
 41
1.0
 10
9.866890182188763
 20
-9.22499290984802
 30
0.0
 41
1.0
 10
9.947030401613908
 20
-9.144852690422875
 30
0.0
 41
0.8416317471234805
 10
9.907572437278917
 20
-9.03860779130033
 30
0.0
 41
1.0
 10
9.780852166564564
 20
-8.697399556011604
 30
0.0
 41
1.0
 10
9.654131895850213
 20
-8.356191320722878
 30
0.0
 41
1.0
 10
9.361233390086516
 20
-7.56752995102288
 30
0.0
 41
1.0
 10
8.727903085388132
 20
-6.959626417086342
 30
0.0
 41
1.0
 10
8.464626434628755
 20
-6.706919724840153
 30
0.0
 41
1.0
 10
8.201349783869379
 20
-6.454213032593963
 30
0.0
 41
1.0
 10
8.094572780689745
 20
-6.351722883149803
 30
0.0
 41
0.7664731415574426
 10
8.176800101517781
 20
-6.228661000950021
 30
0.0
 41
1.0
 10
8.530229221929405
 20
-5.699716942648189
 30
0.0
 41
1.0
 10
8.883658342341029
 20
-5.170772884346358
 30
0.0
 41
1.0
 10
8.965885663169065
 20
-5.047711002146576
 30
0.0
 41
0.7664731415574411
 10
9.101436004598987
 20
-5.107138807754231
 30
0.0
 41
1.0
 10
9.435658157668053
 20
-5.25366805240854
 30
0.0
 41
1.0
 10
9.769880310737118
 20
-5.400197297062849
 30
0.0
 41
1.0
 10
10.57387495830517
 20
-5.752683591979124
 30
0.0
 41
1.0
 10
11.41459046137357
 20
-5.721478886626793
 30
0.0
 41
1.0
 10
11.77831951442833
 20
-5.707978412462547
 30
0.0
 41
1.0
 10
12.14204856748308
 20
-5.6944779382983
 30
0.0
 41
1.0
 10
12.25530596444198
 20
-5.690274181274461
 30
0.0
 41
0.841631747123476
 10
12.29867753865973
 20
-5.585565938576499
 30
0.0
 41
1.0
 10
12.47237368890237
 20
-5.166226336928712
 30
0.0
 41
1.0
 10
12.64606983914502
 20
-4.746886735280924
 30
0.0
 41
1.0
 10
12.68944141336276
 20
-4.642178492582962
 30
0.0
 41
0.8416317471234728
 10
12.61232884505161
 20
-4.55912091407577
 30
0.0
 41
1.0
 10
12.3646798419528
 20
-4.292379357315422
 30
0.0
 41
1.0
 10
12.117030838854
 20
-4.025637800555074
 30
0.0
 41
1.0
 10
11.54462026434524
 20
-3.409097108527187
 30
0.0
 41
1.0
 10
10.72686474760156
 20
-3.089832490604746
 30
0.0
 41
1.0
 10
10.38692217420645
 20
-2.957113562284047
 30
0.0
 41
1.0
 10
10.04697960081134
 20
-2.824394633963347
 30
0.0
 41
1.0
 10
9.909109230857881
 20
-2.770567872682304
 30
0.0
 41
0.7664731415574444
 10
9.93798362611062
 20
-2.625406485116953
 30
0.0
 41
1.0
 10
10.06209142889232
 20
-2.001474426911538
 30
0.0
 41
1.0
 10
10.18619923167402
 20
-1.377542368706123
 30
0.0
 41
1.0
 10
10.21507362692676
 20
-1.232380981140771
 30
0.0
 41
0.7664731415574424
 10
10.36304784962665
 20
-1.235412244487079
 30
0.0
 41
1.0
 10
10.72790317044519
 20
-1.242886333828614
 30
0.0
 41
1.0
 10
11.09275849126373
 20
-1.250360423170149
 30
0.0
 41
1.0
 10
11.97044335560069
 20
-1.268339865199527
 30
0.0
 41
1.0
 10
12.73522167780035
 20
-0.917782582249704
 30
0.0
 41
1.0
 10
13.06609709750561
 20
-0.7661166880162635
 30
0.0
 41
1.0
 10
13.39697251721088
 20
-0.614450793782823
 30
0.0
 41
1.0
 10
13.5
 20
-0.5672252992998801
 30
0.0
 41
0.841631747123475
 10
13.5
 20
-0.4538899140972832
 30
0.0
 41
1.0
 10
13.5
 20
0.0000000000000004
 30
0.0
 41
1.0
 10
13.5
 20
0.453889914097284
 30
0.0
 41
1.0
 10
13.5
 20
0.5672252992998807
 30
0.0
 41
0.841631747123475
 10
13.39697251721088
 20
0.6144507937828236
 30
0.0
 41
1.0
 10
13.06609709750561
 20
0.7661166880162641
 30
0.0
 41
1.0
 10
12.73522167780035
 20
0.9177825822497045
 30
0.0
 41
1.0
 10
11.97044335560069
 20
1.268339865199528
 30
0.0
 41
1.0
 10
11.09275849126373
 20
1.250360423170149
 30
0.0
 41
1.0
 10
10.72790317044519
 20
1.242886333828614
 30
0.0
 41
1.0
 10
10.36304784962665
 20
1.235412244487079
 30
0.0
 41
1.0
 10
10.21507362692676
 20
1.232380981140771
 30
0.0
 41
0.7664731415574424
 10
10.18619923167402
 20
1.377542368706123
 30
0.0
 41
1.0
 10
10.06209142889232
 20
2.001474426911538
 30
0.0
 41
1.0
 10
9.93798362611062
 20
2.625406485116953
 30
0.0
 41
1.0
 10
9.90910923085788
 20
2.770567872682304
 30
0.0
 41
0.7664731415574437
 10
10.04697960081134
 20
2.824394633963347
 30
0.0
 41
1.0
 10
10.38692217420645
 20
2.957113562284047
 30
0.0
 41
1.0
 10
10.72686474760156
 20
3.089832490604746
 30
0.0
 41
1.0
 10
11.54462026434524
 20
3.409097108527187
 30
0.0
 41
1.0
 10
12.117030838854
 20
4.025637800555075
 30
0.0
 41
1.0
 10
12.3646798419528
 20
4.292379357315422
 30
0.0
 41
1.0
 10
12.61232884505161
 20
4.55912091407577
 30
0.0
 41
1.0
 10
12.68944141336276
 20
4.642178492582961
 30
0.0
 41
0.8416317471234738
 10
12.64606983914502
 20
4.746886735280924
 30
0.0
 41
1.0
 10
12.47237368890237
 20
5.166226336928712
 30
0.0
 41
1.0
 10
12.29867753865973
 20
5.585565938576499
 30
0.0
 41
1.0
 10
12.25530596444198
 20
5.690274181274463
 30
0.0
 41
0.8416317471234713
 10
12.14204856748308
 20
5.6944779382983
 30
0.0
 41
1.0
 10
11.77831951442833
 20
5.707978412462547
 30
0.0
 41
1.0
 10
11.41459046137358
 20
5.721478886626792
 30
0.0
 41
1.0
 10
10.57387495830518
 20
5.752683591979123
 30
0.0
 41
1.0
 10
9.769880310737122
 20
5.400197297062849
 30
0.0
 41
1.0
 10
9.435658157668055
 20
5.25366805240854
 30
0.0
 41
1.0
 10
9.101436004598987
 20
5.107138807754231
 30
0.0
 41
1.0
 10
8.965885663169065
 20
5.047711002146576
 30
0.0
 41
0.7664731415574417
 10
8.883658342341029
 20
5.170772884346359
 30
0.0
 41
1.0
 10
8.530229221929405
 20
5.69971694264819
 30
0.0
 41
1.0
 10
8.176800101517781
 20
6.228661000950021
 30
0.0
 41
1.0
 10
8.094572780689745
 20
6.351722883149803
 30
0.0
 41
0.7664731415574424
 10
8.201349783869379
 20
6.454213032593963
 30
0.0
 41
1.0
 10
8.464626434628755
 20
6.706919724840153
 30
0.0
 41
1.0
 10
8.727903085388132
 20
6.959626417086342
 30
0.0
 41
1.0
 10
9.361233390086516
 20
7.567529951022881
 30
0.0
 41
1.0
 10
9.654131895850213
 20
8.356191320722878
 30
0.0
 41
1.0
 10
9.780852166564564
 20
8.697399556011604
 30
0.0
 41
1.0
 10
9.907572437278917
 20
9.03860779130033
 30
0.0
 41
1.0
 10
9.947030401613906
 20
9.144852690422875
 30
0.0
 41
0.8416317471234747
 10
9.866890182188763
 20
9.224992909848021
 30
0.0
 41
1.0
 10
9.545941546018394
 20
9.54594154601839
 30
0.0
 41
1.0
 10
9.224992909848023
 20
9.86689018218876
 30
0.0
 41
1.0
 10
9.144852690422878
 20
9.947030401613903
 30
0.0
 41
0.8416317471234805
 10
9.038607791300334
 20
9.907572437278914
 30
0.0
 41
1.0
 10
8.697399556011607
 20
9.78085216656456
 30
0.0
 41
1.0
 10
8.35619132072288
 20
9.65413189585021
 30
0.0
 41
1.0
 10
7.567529951022883
 20
9.361233390086516
 30
0.0
 41
1.0
 10
6.959626417086344
 20
8.72790308538813
 30
0.0
 41
1.0
 10
6.706919724840155
 20
8.464626434628753
 30
0.0
 41
1.0
 10
6.454213032593965
 20
8.201349783869377
 30
0.0
 41
1.0
 10
6.351722883149804
 20
8.094572780689743
 30
0.0
 41
0.7664731415574426
 10
6.228661000950023
 20
8.17680010151778
 30
0.0
 41
1.0
 10
5.69971694264819
 20
8.530229221929403
 30
0.0
 41
1.0
 10
5.170772884346357
 20
8.883658342341029
 30
0.0
 41
1.0
 10
5.047711002146576
 20
8.965885663169065
 30
0.0
 41
0.7664731415574424
 10
5.107138807754231
 20
9.101436004598987
 30
0.0
 41
1.0
 10
5.25366805240854
 20
9.435658157668053
 30
0.0
 41
1.0
 10
5.400197297062849
 20
9.769880310737118
 30
0.0
 41
1.0
 10
5.752683591979124
 20
10.57387495830517
 30
0.0
 41
1.0
 10
5.721478886626793
 20
11.41459046137357
 30
0.0
 41
1.0
 10
5.707978412462547
 20
11.77831951442833
 30
0.0
 41
1.0
 10
5.694477938298302
 20
12.14204856748308
 30
0.0
 41
1.0
 10
5.690274181274463
 20
12.25530596444198
 30
0.0
 41
0.841631747123473
 10
5.585565938576501
 20
12.29867753865973
 30
0.0
 41
1.0
 10
5.166226336928712
 20
12.47237368890237
 30
0.0
 41
1.0
 10
4.746886735280925
 20
12.64606983914502
 30
0.0
 41
1.0
 10
4.642178492582963
 20
12.68944141336276
 30
0.0
 41
0.8416317471234728
 10
4.559120914075771
 20
12.61232884505161
 30
0.0
 41
1.0
 10
4.292379357315424
 20
12.3646798419528
 30
0.0
 41
1.0
 10
4.025637800555076
 20
12.117030838854
 30
0.0
 41
1.0
 10
3.409097108527189
 20
11.54462026434524
 30
0.0
 41
1.0
 10
3.089832490604747
 20
10.72686474760156
 30
0.0
 41
1.0
 10
2.957113562284047
 20
10.38692217420645
 30
0.0
 41
1.0
 10
2.824394633963347
 20
10.04697960081134
 30
0.0
 41
1.0
 10
2.770567872682304
 20
9.90910923085788
 30
0.0
 41
0.7664731415574437
 10
2.625406485116953
 20
9.93798362611062
 30
0.0
 41
1.0
 10
2.001474426911538
 20
10.06209142889232
 30
0.0
 41
1.0
 10
1.377542368706123
 20
10.18619923167402
 30
0.0
 41
1.0
 10
1.232380981140771
 20
10.21507362692676
 30
0.0
 41
0.7664731415574424
 10
1.23541224448708
 20
10.36304784962665
 30
0.0
 41
1.0
 10
1.242886333828615
 20
10.72790317044519
 30
0.0
 41
1.0
 10
1.25036042317015
 20
11.09275849126373
 30
0.0
 41
1.0
 10
1.268339865199529
 20
11.97044335560069
 30
0.0
 41
1.0
 10
0.9177825822497054
 20
12.73522167780034
 30
0.0
 41
1.0
 10
0.7661166880162646
 20
13.06609709750561
 30
0.0
 41
1.0
 10
0.6144507937828239
 20
13.39697251721088
 30
0.0
 41
1.0
 10
0.567225299299881
 20
13.5
 30
0.0
 41
0.8416317471234751
 10
0.4538899140972841
 20
13.5
 30
0.0
 41
1.0
 10
0.0000000000000012
 20
13.5
 30
0.0
 41
1.0
 10
-0.4538899140972817
 20
13.5
 30
0.0
 41
1.0
 10
-0.5672252992998785
 20
13.5
 30
0.0
 41
0.8416317471234751
 10
-0.6144507937828214
 20
13.39697251721088
 30
0.0
 41
1.0
 10
-0.7661166880162622
 20
13.06609709750561
 30
0.0
 41
1.0
 10
-0.917782582249703
 20
12.73522167780035
 30
0.0
 41
1.0
 10
-1.268339865199527
 20
11.97044335560069
 30
0.0
 41
1.0
 10
-1.250360423170148
 20
11.09275849126373
 30
0.0
 41
1.0
 10
-1.242886333828614
 20
10.72790317044519
 30
0.0
 41
1.0
 10
-1.235412244487079
 20
10.36304784962665
 30
0.0
 41
1.0
 10
-1.23238098114077
 20
10.21507362692676
 30
0.0
 41
0.7664731415574427
 10
-1.377542368706122
 20
10.18619923167402
 30
0.0
 41
1.0
 10
-2.001474426911535
 20
10.06209142889232
 30
0.0
 41
1.0
 10
-2.625406485116949
 20
9.93798362611062
 30
0.0
 41
1.0
  0
LWPOLYLINE
  5
80
330
70
100
AcDbEntity
  8
NONE
  6
CONTINUOUS
 62
    17
100
AcDbPolyline
 90
        4
 70
   129
 43
0.0
 10
0.0
 20
2.0
 42
0.4142135623730951
 10
-2.0
 20
0.0
 42
0.4142135623730951
 10
0.0
 20
-2.0
 42
0.4142135623730951
 10
2.0
 20
0.0
 42
0.4142135623730951
  0
ENDBLK
  5
72
330
70
100
AcDbEntity
  8
0
100
AcDbBlockEnd
  0
BLOCK
  5
74
330
73
100
AcDbEntity
  8
0
100
AcDbBlockBegin
  2
SPUR_GEAR-3
 70
     0
 10
0.0
 20
0.0
 30
0.0
  3
SPUR_GEAR-3
  1
SPUR_GEAR-3
  0
SPLINE
  5
81
330
73
100
AcDbEntity
  8
NONE
  6
CONTINUOUS
 62
    17
100
AcDbSpline
210
0.0
220
0.0
230
1.0
 70
    15
 71
     2
 72
   436
 73
   433
 74
     0
 42
0.000000001
 43
0.0000000000001
 40
0.0
 40
0.0
 40
0.0
 40
1.0
 40
1.0
 40
2.0
 40
2.0
 40
3.0
 40
3.0
 40
4.0
 40
4.0
 40
5.0
 40
5.0
 40
6.0
 40
6.0
 40
7.0
 40
7.0
 40
8.0
 40
8.0
 40
9.0
 40
9.0
 40
10.0
 40
10.0
 40
11.0
 40
11.0
 40
12.0
 40
12.0
 40
13.0
 40
13.0
 40
14.0
 40
14.0
 40
15.0
 40
15.0
 40
16.0
 40
16.0
 40
17.0
 40
17.0
 40
18.0
 40
18.0
 40
19.0
 40
19.0
 40
20.0
 40
20.0
 40
21.0
 40
21.0
 40
22.0
 40
22.0
 40
23.0
 40
23.0
 40
24.0
 40
24.0
 40
25.0
 40
25.0
 40
26.0
 40
26.0
 40
27.0
 40
27.0
 40
28.0
 40
28.0
 40
29.0
 40
29.0
 40
30.0
 40
30.0
 40
31.0
 40
31.0
 40
32.0
 40
32.0
 40
33.0
 40
33.0
 40
34.0
 40
34.0
 40
35.0
 40
35.0
 40
36.0
 40
36.0
 40
37.0
 40
37.0
 40
38.0
 40
38.0
 40
39.0
 40
39.0
 40
40.0
 40
40.0
 40
41.0
 40
41.0
 40
42.0
 40
42.0
 40
43.0
 40
43.0
 40
44.0
 40
44.0
 40
45.0
 40
45.0
 40
46.0
 40
46.0
 40
47.0
 40
47.0
 40
48.0
 40
48.0
 40
49.0
 40
49.0
 40
50.0
 40
50.0
 40
51.0
 40
51.0
 40
52.0
 40
52.0
 40
53.0
 40
53.0
 40
54.0
 40
54.0
 40
55.0
 40
55.0
 40
56.0
 40
56.0
 40
57.0
 40
57.0
 40
58.0
 40
58.0
 40
59.0
 40
59.0
 40
60.0
 40
60.0
 40
61.0
 40
61.0
 40
62.0
 40
62.0
 40
63.0
 40
63.0
 40
64.0
 40
64.0
 40
65.0
 40
65.0
 40
66.0
 40
66.0
 40
67.0
 40
67.0
 40
68.0
 40
68.0
 40
69.0
 40
69.0
 40
70.0
 40
70.0
 40
71.0
 40
71.0
 40
72.0
 40
72.0
 40
73.0
 40
73.0
 40
74.0
 40
74.0
 40
75.0
 40
75.0
 40
76.0
 40
76.0
 40
77.0
 40
77.0
 40
78.0
 40
78.0
 40
79.0
 40
79.0
 40
80.0
 40
80.0
 40
81.0
 40
81.0
 40
82.0
 40
82.0
 40
83.0
 40
83.0
 40
84.0
 40
84.0
 40
85.0
 40
85.0
 40
86.0
 40
86.0
 40
87.0
 40
87.0
 40
88.0
 40
88.0
 40
89.0
 40
89.0
 40
90.0
 40
90.0
 40
91.0
 40
91.0
 40
92.0
 40
92.0
 40
93.0
 40
93.0
 40
94.0
 40
94.0
 40
95.0
 40
95.0
 40
96.0
 40
96.0
 40
97.0
 40
97.0
 40
98.0
 40
98.0
 40
99.0
 40
99.0
 40
100.0
 40
100.0
 40
101.0
 40
101.0
 40
102.0
 40
102.0
 40
103.0
 40
103.0
 40
104.0
 40
104.0
 40
105.0
 40
105.0
 40
106.0
 40
106.0
 40
107.0
 40
107.0
 40
108.0
 40
108.0
 40
109.0
 40
109.0
 40
110.0
 40
110.0
 40
111.0
 40
111.0
 40
112.0
 40
112.0
 40
113.0
 40
113.0
 40
114.0
 40
114.0
 40
115.0
 40
115.0
 40
116.0
 40
116.0
 40
117.0
 40
117.0
 40
118.0
 40
118.0
 40
119.0
 40
119.0
 40
120.0
 40
120.0
 40
121.0
 40
121.0
 40
122.0
 40
122.0
 40
123.0
 40
123.0
 40
124.0
 40
124.0
 40
125.0
 40
125.0
 40
126.0
 40
126.0
 40
127.0
 40
127.0
 40
128.0
 40
128.0
 40
129.0
 40
129.0
 40
130.0
 40
130.0
 40
131.0
 40
131.0
 40
132.0
 40
132.0
 40
133.0
 40
133.0
 40
134.0
 40
134.0
 40
135.0
 40
135.0
 40
136.0
 40
136.0
 40
137.0
 40
137.0
 40
138.0
 40
138.0
 40
139.0
 40
139.0
 40
140.0
 40
140.0
 40
141.0
 40
141.0
 40
142.0
 40
142.0
 40
143.0
 40
143.0
 40
144.0
 40
144.0
 40
145.0
 40
145.0
 40
146.0
 40
146.0
 40
147.0
 40
147.0
 40
148.0
 40
148.0
 40
149.0
 40
149.0
 40
150.0
 40
150.0
 40
151.0
 40
151.0
 40
152.0
 40
152.0
 40
153.0
 40
153.0
 40
154.0
 40
154.0
 40
155.0
 40
155.0
 40
156.0
 40
156.0
 40
157.0
 40
157.0
 40
158.0
 40
158.0
 40
159.0
 40
159.0
 40
160.0
 40
160.0
 40
161.0
 40
161.0
 40
162.0
 40
162.0
 40
163.0
 40
163.0
 40
164.0
 40
164.0
 40
165.0
 40
165.0
 40
166.0
 40
166.0
 40
167.0
 40
167.0
 40
168.0
 40
168.0
 40
169.0
 40
169.0
 40
170.0
 40
170.0
 40
171.0
 40
171.0
 40
172.0
 40
172.0
 40
173.0
 40
173.0
 40
174.0
 40
174.0
 40
175.0
 40
175.0
 40
176.0
 40
176.0
 40
177.0
 40
177.0
 40
178.0
 40
178.0
 40
179.0
 40
179.0
 40
180.0
 40
180.0
 40
181.0
 40
181.0
 40
182.0
 40
182.0
 40
183.0
 40
183.0
 40
184.0
 40
184.0
 40
185.0
 40
185.0
 40
186.0
 40
186.0
 40
187.0
 40
187.0
 40
188.0
 40
188.0
 40
189.0
 40
189.0
 40
190.0
 40
190.0
 40
191.0
 40
191.0
 40
192.0
 40
192.0
 40
193.0
 40
193.0
 40
194.0
 40
194.0
 40
195.0
 40
195.0
 40
196.0
 40
196.0
 40
197.0
 40
197.0
 40
198.0
 40
198.0
 40
199.0
 40
199.0
 40
200.0
 40
200.0
 40
201.0
 40
201.0
 40
202.0
 40
202.0
 40
203.0
 40
203.0
 40
204.0
 40
204.0
 40
205.0
 40
205.0
 40
206.0
 40
206.0
 40
207.0
 40
207.0
 40
208.0
 40
208.0
 40
209.0
 40
209.0
 40
210.0
 40
210.0
 40
211.0
 40
211.0
 40
212.0
 40
212.0
 40
213.0
 40
213.0
 40
214.0
 40
214.0
 40
215.0
 40
215.0
 40
216.0
 40
216.0
 40
216.0
 10
-2.368837524505476
 20
10.19977976544548
 30
0.0
 41
1.0
 10
-2.497530784473117
 20
10.17708767147785
 30
0.0
 41
0.7685937831575549
 10
-2.543200425206477
 20
10.29952610582353
 30
0.0
 41
1.0
 10
-2.656937932286044
 20
10.60445169905312
 30
0.0
 41
1.0
 10
-2.770675439365611
 20
10.90937729228272
 30
0.0
 41
1.0
 10
-3.043820094258106
 20
11.64166691308759
 30
0.0
 41
1.0
 10
-3.564998537039163
 20
12.17172854341738
 30
0.0
 41
1.0
 10
-3.790197619169693
 20
12.40076601470248
 30
0.0
 41
1.0
 10
-4.015396701300223
 20
12.62980348598758
 30
0.0
 41
1.0
 10
-4.086176979820218
 20
12.70179017374717
 30
0.0
 41
0.8411138348427559
 10
-4.181043736856898
 20
12.66726149796445
 30
0.0
 41
1.0
 10
-4.560268577675581
 20
12.52923494381211
 30
0.0
 41
1.0
 10
-4.939493418494265
 20
12.39120838965977
 30
0.0
 41
1.0
 10
-5.034360175530944
 20
12.35667971387705
 30
0.0
 41
0.8411138348427537
 10
-5.042308863619366
 20
12.25603802569747
 30
0.0
 41
1.0
 10
-5.067598920384953
 20
11.93582996384721
 30
0.0
 41
1.0
 10
-5.092888977150539
 20
11.61562190199695
 30
0.0
 41
1.0
 10
-5.151417778770134
 20
10.87456409011684
 30
0.0
 41
1.0
 10
-4.889952028862757
 20
10.13802369552856
 30
0.0
 41
1.0
 10
-4.781077620930962
 20
9.831328078962894
 30
0.0
 41
1.0
 10
-4.672203212999167
 20
9.524632462397223
 30
0.0
 41
1.0
 10
-4.628486278955377
 20
9.401483300940292
 30
0.0
 41
0.7685937831575508
 10
-4.741657232460688
 20
9.336144020469554
 30
0.0
 41
1.0
 10
-5.228083255673582
 20
9.05530582502675
 30
0.0
 41
1.0
 10
-5.714509278886476
 20
8.774467629583947
 30
0.0
 41
1.0
 10
-5.827680232391786
 20
8.709128349113211
 30
0.0
 41
0.7685937831575551
 10
-5.912472067646346
 20
8.808562905299166
 30
0.0
 41
1.0
 10
-6.123641058855652
 20
9.056198716672926
 30
0.0
 41
1.0
 10
-6.334810050064958
 20
9.303834528046686
 30
0.0
 41
1.0
 10
-6.841939867738128
 20
9.898540706980162
 30
0.0
 41
1.0
 10
-7.51297915930901
 20
10.21838218386459
 30
0.0
 41
1.0
 10
-7.802932503750709
 20
10.35658438316757
 30
0.0
 41
1.0
 10
-8.092885848192408
 20
10.49478658247055
 30
0.0
 41
1.0
 10
-8.184018450879893
 20
10.53822366074901
 30
0.0
 41
0.8411138348427535
 10
-8.2613545397851
 20
10.47333097707196
 30
0.0
 41
1.0
 10
-8.570501462487194
 20
10.21392590825304
 30
0.0
 41
1.0
 10
-8.87964838518929
 20
9.95452083943412
 30
0.0
 41
1.0
 10
-8.956984474094499
 20
9.889628155757066
 30
0.0
 41
0.8411138348427513
 10
-8.930032313020398
 20
9.79233729259202
 30
0.0
 41
1.0
 10
-8.844279585534215
 20
9.482790430915491
 30
0.0
 41
1.0
 10
-8.758526858048032
 20
9.173243569238963
 30
0.0
 41
1.0
 10
-8.560069242001568
 20
8.456858982720858
 30
0.0
 41
1.0
 10
-8.062460154903125
 20
7.85416396227359
 30
0.0
 41
1.0
 10
-7.855255598442037
 20
7.603201595164775
 30
0.0
 41
1.0
 10
-7.64805104198095
 20
7.352239228055959
 30
0.0
 41
1.0
 10
-7.564851067804682
 20
7.251468941826324
 30
0.0
 41
0.7685937831575543
 10
-7.648849627629528
 20
7.151363356382322
 30
0.0
 41
1.0
 10
-8.009888252344247
 20
6.721094278313283
 30
0.0
 41
1.0
 10
-8.370926877058965
 20
6.290825200244245
 30
0.0
 41
1.0
 10
-8.454925436883812
 20
6.190719614800243
 30
0.0
 41
0.7685937831575524
 10
-8.568612319933662
 20
6.255157017852698
 30
0.0
 41
1.0
 10
-8.851742698410472
 20
6.415634513803607
 30
0.0
 41
1.0
 10
-9.134873076887281
 20
6.576112009754516
 30
0.0
 41
1.0
 10
-9.814820716890752
 20
6.961504404708788
 30
0.0
 41
1.0
 10
-10.55478361520282
 20
7.032548125678121
 30
0.0
 41
1.0
 10
-10.8745185693604
 20
7.06324582811581
 30
0.0
 41
1.0
 10
-11.19425352351799
 20
7.093943530553499
 30
0.0
 41
1.0
 10
-11.29474651351488
 20
7.103591846647453
 30
0.0
 41
0.8411138348427553
 10
-11.34522406060753
 20
7.016162170441527
 30
0.0
 41
1.0
 10
-11.54700538379251
 20
6.666666666666668
 30
0.0
 41
1.0
 10
-11.74878670697749
 20
6.317171162891808
 30
0.0
 41
1.0
 10
-11.79926425407015
 20
6.229741486685885
 30
0.0
 41
0.84111383484276
 10
-11.7406620722306
 20
6.147536162493297
 30
0.0
 41
1.0
 10
-11.55420960500295
 20
5.885986420933817
 30
0.0
 41
1.0
 10
-11.3677571377753
 20
5.624436679374337
 30
0.0
 41
1.0
 10
-10.93625002148045
 20
5.019131872062794
 30
0.0
 41
1.0
 10
-10.26251659702299
 20
4.622976140053648
 30
0.0
 41
1.0
 10
-9.981973819555382
 20
4.458016787685082
 30
0.0
 41
1.0
 10
-9.701431042087775
 20
4.293057435316516
 30
0.0
 41
1.0
 10
-9.588783172565527
 20
4.226820408044501
 30
0.0
 41
0.7685937831575544
 10
-9.633477872708324
 20
4.104022728632877
 30
0.0
 41
1.0
 10
-9.825582512421665
 20
3.576219568848015
 30
0.0
 41
1.0
 10
-10.017687152135
 20
3.048416409063152
 30
0.0
 41
1.0
 10
-10.0623818522778
 20
2.925618729651528
 30
0.0
 41
0.7685937831575561
 10
-10.19125146718743
 20
2.947286877767567
 30
0.0
 41
1.0
 10
-10.51219353072808
 20
3.001250103888347
 30
0.0
 41
1.0
 10
-10.83313559426874
 20
3.055213330009129
 30
0.0
 41
1.0
 10
-11.60388933625967
 20
3.184807930366729
 30
0.0
 41
1.0
 10
-12.32352539508719
 20
2.998484974178414
 30
0.0
 41
1.0
 10
-12.63447720470391
 20
2.917975583786988
 30
0.0
 41
1.0
 10
-12.94542901432062
 20
2.837466193395562
 30
0.0
 41
1.0
 10
-13.04316145391472
 20
2.812162017990099
 30
0.0
 41
0.8411138348427547
 10
-13.06069212204619
 20
2.712740658530332
 30
0.0
 41
1.0
 10
-13.13077004016277
 20
2.315309035559072
 30
0.0
 41
1.0
 10
-13.20084795827936
 20
1.917877412587812
 30
0.0
 41
1.0
 10
-13.21837862641083
 20
1.818456053128045
 30
0.0
 41
0.8411138348427567
 10
-13.13519471181177
 20
1.761251443226919
 30
0.0
 41
1.0
 10
-12.87053142413566
 20
1.579245580679641
 30
0.0
 41
1.0
 10
-12.60586813645955
 20
1.397239718132362
 30
0.0
 41
1.0
 10
-11.99335764650826
 20
0.9760233831366779
 30
0.0
 41
1.0
 10
-11.22476207892771
 20
0.8341891674818784
 30
0.0
 41
1.0
 10
-10.90471867978661
 20
0.7751293622899671
 30
0.0
 41
1.0
 10
-10.58467528064551
 20
0.7160695570980558
 30
0.0
 41
1.0
 10
-10.45616651134716
 20
0.6923549518270796
 30
0.0
 41
0.7685937831575541
 10
-10.45616651134716
 20
0.5616763908856055
 30
0.0
 41
1.0
 10
-10.45616651134716
 20
0.0000000000000009
 30
0.0
 41
1.0
 10
-10.45616651134717
 20
-0.5616763908856036
 30
0.0
 41
1.0
 10
-10.45616651134717
 20
-0.6923549518270776
 30
0.0
 41
0.768593783157555
 10
-10.58467528064551
 20
-0.7160695570980534
 30
0.0
 41
1.0
 10
-10.90471867978662
 20
-0.7751293622899649
 30
0.0
 41
1.0
 10
-11.22476207892771
 20
-0.8341891674818762
 30
0.0
 41
1.0
 10
-11.99335764650826
 20
-0.9760233831366757
 30
0.0
 41
1.0
 10
-12.60586813645955
 20
-1.397239718132359
 30
0.0
 41
1.0
 10
-12.87053142413566
 20
-1.579245580679638
 30
0.0
 41
1.0
 10
-13.13519471181177
 20
-1.761251443226918
 30
0.0
 41
1.0
 10
-13.21837862641083
 20
-1.818456053128043
 30
0.0
 41
0.8411138348427574
 10
-13.20084795827936
 20
-1.91787741258781
 30
0.0
 41
1.0
 10
-13.13077004016278
 20
-2.31530903555907
 30
0.0
 41
1.0
 10
-13.06069212204619
 20
-2.71274065853033
 30
0.0
 41
1.0
 10
-13.04316145391472
 20
-2.812162017990097
 30
0.0
 41
0.8411138348427561
 10
-12.94542901432062
 20
-2.83746619339556
 30
0.0
 41
1.0
 10
-12.63447720470391
 20
-2.917975583786986
 30
0.0
 41
1.0
 10
-12.3235253950872
 20
-2.998484974178412
 30
0.0
 41
1.0
 10
-11.60388933625967
 20
-3.184807930366727
 30
0.0
 41
1.0
 10
-10.83313559426874
 20
-3.055213330009126
 30
0.0
 41
1.0
 10
-10.51219353072808
 20
-3.001250103888345
 30
0.0
 41
1.0
 10
-10.19125146718743
 20
-2.947286877767564
 30
0.0
 41
1.0
 10
-10.0623818522778
 20
-2.925618729651524
 30
0.0
 41
0.768593783157555
 10
-10.01768715213501
 20
-3.048416409063149
 30
0.0
 41
1.0
 10
-9.825582512421667
 20
-3.576219568848013
 30
0.0
 41
1.0
 10
-9.633477872708328
 20
-4.104022728632876
 30
0.0
 41
1.0
 10
-9.588783172565533
 20
-4.226820408044501
 30
0.0
 41
0.7685937831575569
 10
-9.701431042087778
 20
-4.293057435316515
 30
0.0
 41
1.0
 10
-9.981973819555385
 20
-4.45801678768508
 30
0.0
 41
1.0
 10
-10.26251659702299
 20
-4.622976140053646
 30
0.0
 41
1.0
 10
-10.93625002148045
 20
-5.019131872062792
 30
0.0
 41
1.0
 10
-11.3677571377753
 20
-5.624436679374336
 30
0.0
 41
1.0
 10
-11.55420960500295
 20
-5.885986420933815
 30
0.0
 41
1.0
 10
-11.7406620722306
 20
-6.147536162493295
 30
0.0
 41
1.0
 10
-11.79926425407015
 20
-6.229741486685882
 30
0.0
 41
0.8411138348427565
 10
-11.7487867069775
 20
-6.317171162891806
 30
0.0
 41
1.0
 10
-11.54700538379252
 20
-6.666666666666666
 30
0.0
 41
1.0
 10
-11.34522406060754
 20
-7.016162170441525
 30
0.0
 41
1.0
 10
-11.29474651351488
 20
-7.103591846647451
 30
0.0
 41
0.8411138348427568
 10
-11.19425352351799
 20
-7.093943530553497
 30
0.0
 41
1.0
 10
-10.87451856936041
 20
-7.063245828115808
 30
0.0
 41
1.0
 10
-10.55478361520282
 20
-7.032548125678119
 30
0.0
 41
1.0
 10
-9.814820716890754
 20
-6.961504404708786
 30
0.0
 41
1.0
 10
-9.134873076887283
 20
-6.576112009754514
 30
0.0
 41
1.0
 10
-8.851742698410472
 20
-6.415634513803605
 30
0.0
 41
1.0
 10
-8.568612319933662
 20
-6.255157017852696
 30
0.0
 41
1.0
 10
-8.454925436883812
 20
-6.190719614800242
 30
0.0
 41
0.7685937831575524
 10
-8.370926877058965
 20
-6.290825200244243
 30
0.0
 41
1.0
 10
-8.009888252344245
 20
-6.721094278313283
 30
0.0
 41
1.0
 10
-7.648849627629525
 20
-7.151363356382324
 30
0.0
 41
1.0
 10
-7.564851067804678
 20
-7.251468941826325
 30
0.0
 41
0.7685937831575543
 10
-7.648051041980946
 20
-7.352239228055961
 30
0.0
 41
1.0
 10
-7.855255598442033
 20
-7.603201595164776
 30
0.0
 41
1.0
 10
-8.062460154903121
 20
-7.854163962273593
 30
0.0
 41
1.0
 10
-8.560069242001564
 20
-8.456858982720862
 30
0.0
 41
1.0
 10
-8.758526858048029
 20
-9.173243569238965
 30
0.0
 41
1.0
 10
-8.844279585534212
 20
-9.482790430915493
 30
0.0
 41
1.0
 10
-8.930032313020394
 20
-9.792337292592022
 30
0.0
 41
1.0
 10
-8.956984474094494
 20
-9.88962815575707
 30
0.0
 41
0.8411138348427502
 10
-8.879648385189286
 20
-9.954520839434121
 30
0.0
 41
1.0
 10
-8.57050146248719
 20
-10.21392590825304
 30
0.0
 41
1.0
 10
-8.261354539785092
 20
-10.47333097707196
 30
0.0
 41
1.0
 10
-8.184018450879888
 20
-10.53822366074901
 30
0.0
 41
0.8411138348427586
 10
-8.0928858481924
 20
-10.49478658247055
 30
0.0
 41
1.0
 10
-7.802932503750704
 20
-10.35658438316757
 30
0.0
 41
1.0
 10
-7.512979159309007
 20
-10.21838218386459
 30
0.0
 41
1.0
 10
-6.841939867738126
 20
-9.898540706980164
 30
0.0
 41
1.0
 10
-6.334810050064954
 20
-9.30383452804669
 30
0.0
 41
1.0
 10
-6.123641058855648
 20
-9.056198716672927
 30
0.0
 41
1.0
 10
-5.912472067646342
 20
-8.808562905299167
 30
0.0
 41
1.0
 10
-5.827680232391782
 20
-8.709128349113213
 30
0.0
 41
0.7685937831575552
 10
-5.714509278886473
 20
-8.774467629583949
 30
0.0
 41
1.0
 10
-5.228083255673582
 20
-9.055305825026753
 30
0.0
 41
1.0
 10
-4.74165723246069
 20
-9.336144020469556
 30
0.0
 41
1.0
 10
-4.62848627895538
 20
-9.401483300940292
 30
0.0
 41
0.7685937831575523
 10
-4.672203212999169
 20
-9.524632462397225
 30
0.0
 41
1.0
 10
-4.781077620930963
 20
-9.831328078962896
 30
0.0
 41
1.0
 10
-4.889952028862758
 20
-10.13802369552857
 30
0.0
 41
1.0
 10
-5.151417778770137
 20
-10.87456409011684
 30
0.0
 41
1.0
 10
-5.09288897715054
 20
-11.61562190199695
 30
0.0
 41
1.0
 10
-5.067598920384954
 20
-11.93582996384721
 30
0.0
 41
1.0
 10
-5.042308863619367
 20
-12.25603802569747
 30
0.0
 41
1.0
 10
-5.034360175530945
 20
-12.35667971387706
 30
0.0
 41
0.8411138348427558
 10
-4.939493418494266
 20
-12.39120838965977
 30
0.0
 41
1.0
 10
-4.560268577675583
 20
-12.52923494381211
 30
0.0
 41
1.0
 10
-4.181043736856899
 20
-12.66726149796445
 30
0.0
 41
1.0
 10
-4.086176979820223
 20
-12.70179017374717
 30
0.0
 41
0.8411138348427579
 10
-4.015396701300224
 20
-12.62980348598758
 30
0.0
 41
1.0
 10
-3.790197619169694
 20
-12.40076601470248
 30
0.0
 41
1.0
 10
-3.564998537039164
 20
-12.17172854341738
 30
0.0
 41
1.0
 10
-3.043820094258108
 20
-11.64166691308759
 30
0.0
 41
1.0
 10
-2.770675439365613
 20
-10.90937729228272
 30
0.0
 41
1.0
 10
-2.656937932286047
 20
-10.60445169905312
 30
0.0
 41
1.0
 10
-2.543200425206479
 20
-10.29952610582353
 30
0.0
 41
1.0
 10
-2.497530784473121
 20
-10.17708767147785
 30
0.0
 41
0.7685937831575529
 10
-2.368837524505478
 20
-10.19977976544548
 30
0.0
 41
1.0
 10
-1.815694260077419
 20
-10.2973138471613
 30
0.0
 41
1.0
 10
-1.262550995649361
 20
-10.39484792887712
 30
0.0
 41
1.0
 10
-1.133857735681719
 20
-10.41754002284474
 30
0.0
 41
0.768593783157556
 10
-1.132818722154115
 20
-10.54821445316921
 30
0.0
 41
1.0
 10
-1.130231121144912
 20
-10.87365130148869
 30
0.0
 41
1.0
 10
-1.127643520135709
 20
-11.19908814980816
 30
0.0
 41
1.0
 10
-1.1214293045897
 20
-11.98063627677158
 30
0.0
 41
1.0
 10
-0.8129735225724821
 20
-12.65698480505246
 30
0.0
 41
1.0
 10
-0.6796910356425427
 20
-12.94923224904963
 30
0.0
 41
1.0
 10
-0.5464085487126032
 20
-13.24147969304679
 30
0.0
 41
1.0
 10
-0.5045177405552635
 20
-13.33333333333333
 30
0.0
 41
0.841113834842756
 10
-0.4035626463699584
 20
-13.33333333333333
 30
0.0
 41
1.0
 10
0.0000000000000004
 20
-13.33333333333333
 30
0.0
 41
1.0
 10
0.4035626463699593
 20
-13.33333333333333
 30
0.0
 41
1.0
 10
0.5045177405552665
 20
-13.33333333333333
 30
0.0
 41
0.8411138348427547
 10
0.5464085487126041
 20
-13.24147969304679
 30
0.0
 41
1.0
 10
0.6796910356425434
 20
-12.94923224904963
 30
0.0
 41
1.0
 10
0.8129735225724828
 20
-12.65698480505246
 30
0.0
 41
1.0
 10
1.1214293045897
 20
-11.98063627677158
 30
0.0
 41
1.0
 10
1.12764352013571
 20
-11.19908814980816
 30
0.0
 41
1.0
 10
1.130231121144913
 20
-10.87365130148869
 30
0.0
 41
1.0
 10
1.132818722154116
 20
-10.54821445316921
 30
0.0
 41
1.0
 10
1.133857735681722
 20
-10.41754002284474
 30
0.0
 41
0.7685937831575589
 10
1.262550995649362
 20
-10.39484792887712
 30
0.0
 41
1.0
 10
1.81569426007742
 20
-10.2973138471613
 30
0.0
 41
1.0
 10
2.368837524505479
 20
-10.19977976544548
 30
0.0
 41
1.0
 10
2.49753078447312
 20
-10.17708767147785
 30
0.0
 41
0.7685937831575549
 10
2.543200425206481
 20
-10.29952610582353
 30
0.0
 41
1.0
 10
2.656937932286048
 20
-10.60445169905312
 30
0.0
 41
1.0
 10
2.770675439365615
 20
-10.90937729228272
 30
0.0
 41
1.0
 10
3.04382009425811
 20
-11.64166691308759
 30
0.0
 41
1.0
 10
3.564998537039165
 20
-12.17172854341738
 30
0.0
 41
1.0
 10
3.790197619169695
 20
-12.40076601470248
 30
0.0
 41
1.0
 10
4.015396701300225
 20
-12.62980348598758
 30
0.0
 41
1.0
 10
4.08617697982022
 20
-12.70179017374717
 30
0.0
 41
0.8411138348427559
 10
4.1810437368569
 20
-12.66726149796445
 30
0.0
 41
1.0
 10
4.560268577675584
 20
-12.52923494381211
 30
0.0
 41
1.0
 10
4.939493418494268
 20
-12.39120838965977
 30
0.0
 41
1.0
 10
5.034360175530948
 20
-12.35667971387705
 30
0.0
 41
0.8411138348427537
 10
5.042308863619369
 20
-12.25603802569747
 30
0.0
 41
1.0
 10
5.067598920384956
 20
-11.93582996384721
 30
0.0
 41
1.0
 10
5.092888977150542
 20
-11.61562190199695
 30
0.0
 41
1.0
 10
5.151417778770138
 20
-10.87456409011684
 30
0.0
 41
1.0
 10
4.88995202886276
 20
-10.13802369552857
 30
0.0
 41
1.0
 10
4.781077620930965
 20
-9.831328078962896
 30
0.0
 41
1.0
 10
4.672203212999171
 20
-9.524632462397225
 30
0.0
 41
1.0
 10
4.628486278955384
 20
-9.401483300940292
 30
0.0
 41
0.7685937831575584
 10
4.741657232460692
 20
-9.336144020469556
 30
0.0
 41
1.0
 10
5.228083255673583
 20
-9.055305825026753
 30
0.0
 41
1.0
 10
5.714509278886474
 20
-8.77446762958395
 30
0.0
 41
1.0
 10
5.827680232391785
 20
-8.709128349113215
 30
0.0
 41
0.7685937831575601
 10
5.912472067646343
 20
-8.80856290529917
 30
0.0
 41
1.0
 10
6.123641058855648
 20
-9.05619871667293
 30
0.0
 41
1.0
 10
6.334810050064954
 20
-9.30383452804669
 30
0.0
 41
1.0
 10
6.841939867738125
 20
-9.898540706980164
 30
0.0
 41
1.0
 10
7.512979159309007
 20
-10.21838218386459
 30
0.0
 41
1.0
 10
7.802932503750705
 20
-10.35658438316757
 30
0.0
 41
1.0
 10
8.092885848192404
 20
-10.49478658247055
 30
0.0
 41
1.0
 10
8.18401845087989
 20
-10.53822366074901
 30
0.0
 41
0.8411138348427535
 10
8.261354539785096
 20
-10.47333097707196
 30
0.0
 41
1.0
 10
8.57050146248719
 20
-10.21392590825304
 30
0.0
 41
1.0
 10
8.879648385189286
 20
-9.954520839434123
 30
0.0
 41
1.0
 10
8.956984474094495
 20
-9.88962815575707
 30
0.0
 41
0.8411138348427513
 10
8.930032313020394
 20
-9.792337292592023
 30
0.0
 41
1.0
 10
8.844279585534212
 20
-9.482790430915493
 30
0.0
 41
1.0
 10
8.758526858048029
 20
-9.173243569238965
 30
0.0
 41
1.0
 10
8.560069242001564
 20
-8.45685898272086
 30
0.0
 41
1.0
 10
8.062460154903121
 20
-7.854163962273592
 30
0.0
 41
1.0
 10
7.855255598442034
 20
-7.603201595164776
 30
0.0
 41
1.0
 10
7.648051041980947
 20
-7.352239228055961
 30
0.0
 41
1.0
 10
7.564851067804678
 20
-7.251468941826325
 30
0.0
 41
0.7685937831575543
 10
7.648849627629525
 20
-7.151363356382324
 30
0.0
 41
1.0
 10
8.009888252344245
 20
-6.721094278313283
 30
0.0
 41
1.0
 10
8.370926877058965
 20
-6.290825200244243
 30
0.0
 41
1.0
 10
8.454925436883812
 20
-6.190719614800242
 30
0.0
 41
0.7685937831575524
 10
8.568612319933662
 20
-6.255157017852696
 30
0.0
 41
1.0
 10
8.851742698410472
 20
-6.415634513803605
 30
0.0
 41
1.0
 10
9.134873076887283
 20
-6.576112009754514
 30
0.0
 41
1.0
 10
9.814820716890754
 20
-6.961504404708786
 30
0.0
 41
1.0
 10
10.55478361520282
 20
-7.032548125678119
 30
0.0
 41
1.0
 10
10.87451856936041
 20
-7.063245828115808
 30
0.0
 41
1.0
 10
11.19425352351799
 20
-7.093943530553497
 30
0.0
 41
1.0
 10
11.29474651351488
 20
-7.103591846647451
 30
0.0
 41
0.8411138348427538
 10
11.34522406060754
 20
-7.016162170441525
 30
0.0
 41
1.0
 10
11.54700538379252
 20
-6.666666666666666
 30
0.0
 41
1.0
 10
11.7487867069775
 20
-6.317171162891807
 30
0.0
 41
1.0
 10
11.79926425407015
 20
-6.22974148668588
 30
0.0
 41
0.8411138348427536
 10
11.7406620722306
 20
-6.147536162493296
 30
0.0
 41
1.0
 10
11.55420960500295
 20
-5.885986420933817
 30
0.0
 41
1.0
 10
11.3677571377753
 20
-5.624436679374337
 30
0.0
 41
1.0
 10
10.93625002148045
 20
-5.019131872062792
 30
0.0
 41
1.0
 10
10.26251659702299
 20
-4.622976140053646
 30
0.0
 41
1.0
 10
9.981973819555385
 20
-4.45801678768508
 30
0.0
 41
1.0
 10
9.701431042087778
 20
-4.293057435316515
 30
0.0
 41
1.0
 10
9.588783172565533
 20
-4.2268204080445
 30
0.0
 41
0.7685937831575561
 10
9.633477872708328
 20
-4.104022728632876
 30
0.0
 41
1.0
 10
9.825582512421665
 20
-3.576219568848013
 30
0.0
 41
1.0
 10
10.017687152135
 20
-3.04841640906315
 30
0.0
 41
1.0
 10
10.0623818522778
 20
-2.925618729651526
 30
0.0
 41
0.7685937831575561
 10
10.19125146718743
 20
-2.947286877767565
 30
0.0
 41
1.0
 10
10.51219353072808
 20
-3.001250103888346
 30
0.0
 41
1.0
 10
10.83313559426874
 20
-3.055213330009127
 30
0.0
 41
1.0
 10
11.60388933625967
 20
-3.184807930366728
 30
0.0
 41
1.0
 10
12.32352539508719
 20
-2.998484974178413
 30
0.0
 41
1.0
 10
12.63447720470391
 20
-2.917975583786987
 30
0.0
 41
1.0
 10
12.94542901432062
 20
-2.837466193395561
 30
0.0
 41
1.0
 10
13.04316145391472
 20
-2.812162017990098
 30
0.0
 41
0.8411138348427559
 10
13.06069212204619
 20
-2.71274065853033
 30
0.0
 41
1.0
 10
13.13077004016277
 20
-2.315309035559071
 30
0.0
 41
1.0
 10
13.20084795827936
 20
-1.917877412587812
 30
0.0
 41
1.0
 10
13.21837862641083
 20
-1.818456053128045
 30
0.0
 41
0.8411138348427567
 10
13.13519471181177
 20
-1.761251443226919
 30
0.0
 41
1.0
 10
12.87053142413566
 20
-1.57924558067964
 30
0.0
 41
1.0
 10
12.60586813645955
 20
-1.397239718132361
 30
0.0
 41
1.0
 10
11.99335764650826
 20
-0.9760233831366767
 30
0.0
 41
1.0
 10
11.22476207892771
 20
-0.8341891674818772
 30
0.0
 41
1.0
 10
10.90471867978661
 20
-0.7751293622899658
 30
0.0
 41
1.0
 10
10.58467528064551
 20
-0.7160695570980544
 30
0.0
 41
1.0
 10
10.45616651134716
 20
-0.6923549518270784
 30
0.0
 41
0.7685937831575541
 10
10.45616651134716
 20
-0.5616763908856042
 30
0.0
 41
1.0
 10
10.45616651134716
 20
-0.0000000000000001
 30
0.0
 41
1.0
 10
10.45616651134716
 20
0.5616763908856041
 30
0.0
 41
1.0
 10
10.45616651134716
 20
0.6923549518270784
 30
0.0
 41
0.7685937831575538
 10
10.58467528064551
 20
0.7160695570980544
 30
0.0
 41
1.0
 10
10.90471867978661
 20
0.7751293622899657
 30
0.0
 41
1.0
 10
11.22476207892771
 20
0.8341891674818769
 30
0.0
 41
1.0
 10
11.99335764650826
 20
0.9760233831366761
 30
0.0
 41
1.0
 10
12.60586813645955
 20
1.39723971813236
 30
0.0
 41
1.0
 10
12.87053142413566
 20
1.579245580679639
 30
0.0
 41
1.0
 10
13.13519471181177
 20
1.761251443226918
 30
0.0
 41
1.0
 10
13.21837862641083
 20
1.818456053128044
 30
0.0
 41
0.8411138348427567
 10
13.20084795827936
 20
1.917877412587811
 30
0.0
 41
1.0
 10
13.13077004016277
 20
2.31530903555907
 30
0.0
 41
1.0
 10
13.06069212204619
 20
2.71274065853033
 30
0.0
 41
1.0
 10
13.04316145391472
 20
2.812162017990097
 30
0.0
 41
0.8411138348427553
 10
12.94542901432062
 20
2.83746619339556
 30
0.0
 41
1.0
 10
12.63447720470391
 20
2.917975583786986
 30
0.0
 41
1.0
 10
12.32352539508719
 20
2.998484974178413
 30
0.0
 41
1.0
 10
11.60388933625967
 20
3.184807930366728
 30
0.0
 41
1.0
 10
10.83313559426874
 20
3.055213330009127
 30
0.0
 41
1.0
 10
10.51219353072808
 20
3.001250103888346
 30
0.0
 41
1.0
 10
10.19125146718743
 20
2.947286877767565
 30
0.0
 41
1.0
 10
10.0623818522778
 20
2.925618729651528
 30
0.0
 41
0.7685937831575606
 10
10.017687152135
 20
3.04841640906315
 30
0.0
 41
1.0
 10
9.825582512421665
 20
3.576219568848013
 30
0.0
 41
1.0
 10
9.633477872708326
 20
4.104022728632875
 30
0.0
 41
1.0
 10
9.58878317256553
 20
4.2268204080445
 30
0.0
 41
0.7685937831575544
 10
9.701431042087776
 20
4.293057435316515
 30
0.0
 41
1.0
 10
9.981973819555385
 20
4.45801678768508
 30
0.0
 41
1.0
 10
10.26251659702299
 20
4.622976140053646
 30
0.0
 41
1.0
 10
10.93625002148045
 20
5.019131872062792
 30
0.0
 41
1.0
 10
11.3677571377753
 20
5.624436679374336
 30
0.0
 41
1.0
 10
11.55420960500295
 20
5.885986420933815
 30
0.0
 41
1.0
 10
11.7406620722306
 20
6.147536162493295
 30
0.0
 41
1.0
 10
11.79926425407015
 20
6.229741486685882
 30
0.0
 41
0.8411138348427565
 10
11.7487867069775
 20
6.317171162891806
 30
0.0
 41
1.0
 10
11.54700538379252
 20
6.666666666666666
 30
0.0
 41
1.0
 10
11.34522406060754
 20
7.016162170441525
 30
0.0
 41
1.0
 10
11.29474651351488
 20
7.103591846647451
 30
0.0
 41
0.8411138348427568
 10
11.19425352351799
 20
7.093943530553497
 30
0.0
 41
1.0
 10
10.87451856936041
 20
7.063245828115808
 30
0.0
 41
1.0
 10
10.55478361520282
 20
7.032548125678119
 30
0.0
 41
1.0
 10
9.814820716890754
 20
6.961504404708786
 30
0.0
 41
1.0
 10
9.134873076887283
 20
6.576112009754514
 30
0.0
 41
1.0
 10
8.851742698410472
 20
6.415634513803605
 30
0.0
 41
1.0
 10
8.568612319933662
 20
6.255157017852696
 30
0.0
 41
1.0
 10
8.454925436883812
 20
6.190719614800242
 30
0.0
 41
0.7685937831575524
 10
8.370926877058965
 20
6.290825200244243
 30
0.0
 41
1.0
 10
8.009888252344245
 20
6.721094278313283
 30
0.0
 41
1.0
 10
7.648849627629526
 20
7.151363356382324
 30
0.0
 41
1.0
 10
7.56485106780468
 20
7.251468941826325
 30
0.0
 41
0.7685937831575533
 10
7.648051041980947
 20
7.352239228055961
 30
0.0
 41
1.0
 10
7.855255598442034
 20
7.603201595164776
 30
0.0
 41
1.0
 10
8.062460154903121
 20
7.854163962273593
 30
0.0
 41
1.0
 10
8.560069242001564
 20
8.456858982720862
 30
0.0
 41
1.0
 10
8.758526858048029
 20
9.173243569238965
 30
0.0
 41
1.0
 10
8.844279585534212
 20
9.482790430915493
 30
0.0
 41
1.0
 10
8.930032313020394
 20
9.792337292592022
 30
0.0
 41
1.0
 10
8.956984474094494
 20
9.88962815575707
 30
0.0
 41
0.8411138348427502
 10
8.879648385189286
 20
9.954520839434121
 30
0.0
 41
1.0
 10
8.57050146248719
 20
10.21392590825304
 30
0.0
 41
1.0
 10
8.261354539785096
 20
10.47333097707196
 30
0.0
 41
1.0
 10
8.18401845087989
 20
10.53822366074901
 30
0.0
 41
0.841113834842757
 10
8.092885848192404
 20
10.49478658247055
 30
0.0
 41
1.0
 10
7.802932503750705
 20
10.35658438316757
 30
0.0
 41
1.0
 10
7.512979159309007
 20
10.21838218386459
 30
0.0
 41
1.0
 10
6.841939867738125
 20
9.898540706980164
 30
0.0
 41
1.0
 10
6.334810050064954
 20
9.30383452804669
 30
0.0
 41
1.0
 10
6.123641058855648
 20
9.05619871667293
 30
0.0
 41
1.0
 10
5.912472067646343
 20
8.80856290529917
 30
0.0
 41
1.0
 10
5.827680232391781
 20
8.709128349113215
 30
0.0
 41
0.768593783157559
 10
5.714509278886474
 20
8.77446762958395
 30
0.0
 41
1.0
 10
5.228083255673583
 20
9.055305825026753
 30
0.0
 41
1.0
 10
4.741657232460692
 20
9.336144020469556
 30
0.0
 41
1.0
 10
4.628486278955382
 20
9.401483300940292
 30
0.0
 41
0.7685937831575523
 10
4.672203212999171
 20
9.524632462397225
 30
0.0
 41
1.0
 10
4.781077620930965
 20
9.831328078962896
 30
0.0
 41
1.0
 10
4.88995202886276
 20
10.13802369552857
 30
0.0
 41
1.0
 10
5.151417778770138
 20
10.87456409011684
 30
0.0
 41
1.0
 10
5.092888977150542
 20
11.61562190199695
 30
0.0
 41
1.0
 10
5.067598920384956
 20
11.93582996384721
 30
0.0
 41
1.0
 10
5.042308863619369
 20
12.25603802569747
 30
0.0
 41
1.0
 10
5.034360175530947
 20
12.35667971387706
 30
0.0
 41
0.8411138348427558
 10
4.939493418494268
 20
12.39120838965977
 30
0.0
 41
1.0
 10
4.560268577675585
 20
12.52923494381211
 30
0.0
 41
1.0
 10
4.181043736856902
 20
12.66726149796445
 30
0.0
 41
1.0
 10
4.086176979820227
 20
12.70179017374717
 30
0.0
 41
0.8411138348427579
 10
4.015396701300228
 20
12.62980348598758
 30
0.0
 41
1.0
 10
3.790197619169697
 20
12.40076601470248
 30
0.0
 41
1.0
 10
3.564998537039167
 20
12.17172854341738
 30
0.0
 41
1.0
 10
3.04382009425811
 20
11.64166691308759
 30
0.0
 41
1.0
 10
2.770675439365615
 20
10.90937729228272
 30
0.0
 41
1.0
 10
2.656937932286048
 20
10.60445169905312
 30
0.0
 41
1.0
 10
2.543200425206481
 20
10.29952610582353
 30
0.0
 41
1.0
 10
2.497530784473122
 20
10.17708767147785
 30
0.0
 41
0.7685937831575522
 10
2.368837524505479
 20
10.19977976544548
 30
0.0
 41
1.0
 10
1.815694260077421
 20
10.2973138471613
 30
0.0
 41
1.0
 10
1.262550995649362
 20
10.39484792887712
 30
0.0
 41
1.0
 10
1.13385773568172
 20
10.41754002284474
 30
0.0
 41
0.768593783157556
 10
1.132818722154116
 20
10.54821445316921
 30
0.0
 41
1.0
 10
1.130231121144914
 20
10.87365130148869
 30
0.0
 41
1.0
 10
1.127643520135711
 20
11.19908814980816
 30
0.0
 41
1.0
 10
1.121429304589702
 20
11.98063627677158
 30
0.0
 41
1.0
 10
0.8129735225724841
 20
12.65698480505246
 30
0.0
 41
1.0
 10
0.6796910356425446
 20
12.94923224904963
 30
0.0
 41
1.0
 10
0.5464085487126051
 20
13.24147969304679
 30
0.0
 41
1.0
 10
0.5045177405552654
 20
13.33333333333333
 30
0.0
 41
0.841113834842756
 10
0.4035626463699603
 20
13.33333333333333
 30
0.0
 41
1.0
 10
0.0000000000000012
 20
13.33333333333333
 30
0.0
 41
1.0
 10
-0.4035626463699579
 20
13.33333333333333
 30
0.0
 41
1.0
 10
-0.504517740555265
 20
13.33333333333333
 30
0.0
 41
0.8411138348427547
 10
-0.5464085487126027
 20
13.24147969304679
 30
0.0
 41
1.0
 10
-0.6796910356425423
 20
12.94923224904963
 30
0.0
 41
1.0
 10
-0.8129735225724818
 20
12.65698480505246
 30
0.0
 41
1.0
 10
-1.1214293045897
 20
11.98063627677158
 30
0.0
 41
1.0
 10
-1.127643520135709
 20
11.19908814980816
 30
0.0
 41
1.0
 10
-1.130231121144912
 20
10.87365130148869
 30
0.0
 41
1.0
 10
-1.132818722154115
 20
10.54821445316921
 30
0.0
 41
1.0
 10
-1.133857735681721
 20
10.41754002284474
 30
0.0
 41
0.7685937831575586
 10
-1.262550995649361
 20
10.39484792887712
 30
0.0
 41
1.0
 10
-1.815694260077418
 20
10.2973138471613
 30
0.0
 41
1.0
 10
-2.368837524505476
 20
10.19977976544548
 30
0.0
 41
1.0
  0
LWPOLYLINE
  5
82
330
73
100
AcDbEntity
  8
NONE
  6
CONTINUOUS
 62
    17
100
AcDbPolyline
 90
        4
 70
   129
 43
0.0
 10
0.0
 20
2.1
 42
0.4142135623730951
 10
-2.1
 20
0.0
 42
0.4142135623730951
 10
0.0
 20
-2.1
 42
0.4142135623730951
 10
2.1
 20
0.0
 42
0.4142135623730951
  0
ENDBLK
  5
75
330
73
100
AcDbEntity
  8
0
100
AcDbBlockEnd
  0
ENDSEC
  0
SECTION
  2
ENTITIES
  0
INSERT
  5
83
330
1F
100
AcDbEntity
  8
NONE
 62
    17
100
AcDbBlockReference
  2
SPUR_GEAR
 10
-44.60918931320542
 20
4.938000000000002
 30
0.0
  0
INSERT
  5
84
330
1F
100
AcDbEntity
  8
NONE
 62
    17
100
AcDbBlockReference
  2
SPUR_GEAR-1
 10
-14.60918931320542
 20
4.938000000000002
 30
0.0
  0
INSERT
  5
85
330
1F
100
AcDbEntity
  8
NONE
 62
    17
100
AcDbBlockReference
  2
SPUR_GEAR-2
 10
15.39081068679458
 20
4.938000000000002
 30
0.0
  0
INSERT
  5
86
330
1F
100
AcDbEntity
  8
NONE
 62
    17
100
AcDbBlockReference
  2
SPUR_GEAR-3
 10
45.39081068679458
 20
4.938000000000002
 30
0.0
  0
MTEXT
  5
87
330
1F
100
AcDbEntity
  8
NONE
 62
    17
100
AcDbMText
 10
-47.43141153542767
 20
-14.89169401041666
 30
0.0
 40
3.030305989583333
 41
0.0
 71
     1
 72
     1
  1
12
  7
ARIAL
1001
ACAD
1000
MTEXTBEGIN
1070
    44
1040
0.9593846052696461
1000
MTEXTEND
  0
MTEXT
  5
88
330
1F
100
AcDbEntity
  8
NONE
 62
    17
100
AcDbMText
 10
-17.43141153542767
 20
-14.89169401041666
 30
0.0
 40
3.030305989583333
 41
0.0
 71
     1
 72
     1
  1
14
  7
ARIAL
1001
ACAD
1000
MTEXTBEGIN
1070
    44
1040
0.9593846052696461
1000
MTEXTEND
  0
MTEXT
  5
89
330
1F
100
AcDbEntity
  8
NONE
 62
    17
100
AcDbMText
 10
12.56858846457233
 20
-14.89169401041666
 30
0.0
 40
3.030305989583333
 41
0.0
 71
     1
 72
     1
  1
16
  7
ARIAL
1001
ACAD
1000
MTEXTBEGIN
1070
    44
1040
0.9593846052696461
1000
MTEXTEND
  0
MTEXT
  5
8A
330
1F
100
AcDbEntity
  8
NONE
 62
    17
100
AcDbMText
 10
42.56858846457233
 20
-14.89169401041666
 30
0.0
 40
3.030305989583333
 41
0.0
 71
     1
 72
     1
  1
18
  7
ARIAL
1001
ACAD
1000
MTEXTBEGIN
1070
    44
1040
0.9593846052696461
1000
MTEXTEND
  0
MTEXT
  5
8B
330
1F
100
AcDbEntity
  8
NONE
 62
    17
100
AcDbMText
 10
-41.62777777777768
 20
33.08697265624998
 30
0.0
 40
3.030305989583333
 41
0.0
 71
     1
 72
     1
  1
24mm Diameter gear profiles with 4mm Bore
  7
ARIAL
1001
ACAD
1000
MTEXTBEGIN
1070
    44
1040
0.9593846052696461
1000
MTEXTEND
  0
MTEXT
  5
8C
330
1F
100
AcDbEntity
  8
NONE
 62
    17
100
AcDbMText
 10
-73.02499999999999
 20
-14.53802734375
 30
0.0
 40
3.030305989583333
 41
0.0
 71
     1
 72
     1
  1
Teeth:
  7
ARIAL
1001
ACAD
1000
MTEXTBEGIN
1070
    44
1040
0.9593846052696461
1000
MTEXTEND
  0
VIEWPORT
  5
8D
330
1B
100
AcDbEntity
 67
     1
  8
0
100
AcDbViewport
 10
128.5
 20
97.5
 30
0.0
 40
314.226
 41
222.18
 68
     1
 69
     1
1001
ACAD
1000
MVIEW
1002
{
1070
    16
1010
0.0
1020
0.0
1030
0.0
1010
0.0
1020
0.0
1030
1.0
1040
0.0
1040
222.18
1040
128.5
1040
97.5
1040
50.0
1040
0.0
1040
0.0
1070
     0
1070
   100
1070
     0
1070
     3
1070
     0
1070
     0
1070
     0
1070
     0
1040
0.0
1040
0.0
1040
0.0
1040
10.0
1040
10.0
1040
10.0
1040
10.0
1070
     0
1002
{
1002
}
1002
}
  0
ENDSEC
  0
SECTION
  2
OBJECTS
  0
DICTIONARY
  5
C
330
0
100
AcDbDictionary
  3
ACAD_GROUP
350
D
  3
ACAD_LAYOUT
350
1A
  3
ACAD_MATERIAL
350
43
  3
ACAD_MLEADERSTYLE
350
B2
  3
ACAD_MLINESTYLE
350
17
  3
ACAD_PLOTSETTINGS
350
19
  3
ACAD_SCALELIST
350
47
  3
ACAD_VISUALSTYLE
350
2A
  3
ACAD_WIPEOUT_VARS
350
76
  3
ACDBHEADERROUNDTRIPXREC
350
8F
  3
ACDBVARIABLEDICTIONARY
350
B0
  0
DICTIONARY
  5
B9
330
8
100
AcDbDictionary
280
     1
  3
ACAD_XREC_ROUNDTRIP
360
BA
  0
DICTIONARY
  5
D
102
{ACAD_REACTORS
330
C
102
}
330
C
100
AcDbDictionary
  0
DICTIONARY
  5
1A
102
{ACAD_REACTORS
330
C
102
}
330
C
100
AcDbDictionary
  0
DICTIONARY
  5
43
102
{ACAD_REACTORS
330
C
102
}
330
C
100
AcDbDictionary
  3
BYBLOCK
350
45
  3
BYLAYER
350
44
  3
GLOBAL
350
46
  0
DICTIONARY
  5
B2
102
{ACAD_REACTORS
330
C
102
}
330
C
100
AcDbDictionary
  0
DICTIONARY
  5
17
102
{ACAD_REACTORS
330
C
102
}
330
C
100
AcDbDictionary
  3
STANDARD
350
18
  0
DICTIONARY
  5
19
102
{ACAD_REACTORS
330
C
102
}
330
C
100
AcDbDictionary
  0
DICTIONARY
  5
47
102
{ACAD_REACTORS
330
C
102
}
330
C
100
AcDbDictionary
  3
A0
350
48
  3
A1
350
49
  3
A2
350
4A
  3
A3
350
4B
  3
A4
350
4C
  3
A5
350
4D
  3
A6
350
4E
  3
A7
350
4F
  3
A8
350
50
  3
A9
350
51
  3
B0
350
52
  3
B1
350
53
  3
B2
350
54
  3
B3
350
55
  3
B4
350
56
  3
B5
350
57
  3
B6
350
58
  3
B7
350
59
  3
B8
350
5A
  3
B9
350
5B
  3
C0
350
5C
  3
C1
350
5D
  3
C2
350
5E
  3
C3
350
5F
  3
C4
350
60
  3
C5
350
61
  3
C6
350
62
  3
C7
350
63
  3
C8
350
64
  3
C9
350
65
  3
D0
350
66
  3
D1
350
67
  3
D2
350
68
  0
DICTIONARY
  5
2A
102
{ACAD_REACTORS
330
C
102
}
330
C
100
AcDbDictionary
  3
2DWIREFRAME
350
2F
  3
BASIC
350
32
  3
BRIGHTEN
350
36
  3
COLORCHANGE
350
3A
  3
CONCEPTUAL
350
34
  3
DIM
350
35
  3
EDGECOLOROFF
350
3D
  3
FACEPATTERN
350
39
  3
FLAT
350
2B
  3
FLATWITHEDGES
350
2C
  3
GOURAUD
350
2D
  3
GOURAUDWITHEDGES
350
2E
  3
HIDDEN
350
31
  3
JITTEROFF
350
3B
  3
LINEPATTERN
350
38
  3
OVERHANGOFF
350
3C
  3
REALISTIC
350
33
  3
SHADED
350
42
  3
SHADED_WITH_EDGES
350
41
  3
SHADES_OF_GRAY
350
3E
  3
SKETCHY
350
3F
  3
THICKEN
350
37
  3
WIREFRAME
350
30
  3
X-RAY
350
40
  0
WIPEOUTVARIABLES
  5
76
102
{ACAD_REACTORS
330
C
102
}
330
C
100
AcDbWipeoutVariables
 70
     0
  0
DICTIONARY
  5
8F
102
{ACAD_REACTORS
330
C
102
}
330
C
100
AcDbDictionary
  3
CEPSNID
350
99
  3
CEPSNTYPE
350
98
  3
DIMSTYLEDATA
350
AF
  3
FINGERPRINTGUID
350
9A
  3
HYPERLINKBASE
350
92
  3
INSUNITS
350
97
  3
LAYOUTDICT
350
94
  3
LWETCUNION
350
96
  3
PLOTSETDICT
350
95
  3
PSVPSCALE
350
9C
  3
PUCSBASE
350
9F
  3
PUCSORGBACK
350
A5
  3
PUCSORGBOTTOM
350
A1
  3
PUCSORGFRONT
350
A4
  3
PUCSORGLEFT
350
A2
  3
PUCSORGRIGHT
350
A3
  3
PUCSORGTOP
350
A0
  3
PUCSORTHOREF
350
9D
  3
PUCSORTHOVIEW
350
9E
  3
STYLESHEET
350
93
  3
TSTACKALIGN
350
90
  3
TSTACKSIZE
350
91
  3
UCSBASE
350
A8
  3
UCSORGBACK
350
AE
  3
UCSORGBOTTOM
350
AA
  3
UCSORGFRONT
350
AD
  3
UCSORGLEFT
350
AB
  3
UCSORGRIGHT
350
AC
  3
UCSORGTOP
350
A9
  3
UCSORTHOREF
350
A6
  3
UCSORTHOVIEW
350
A7
  3
VERSIONGUID
350
9B
  0
DICTIONARY
  5
B0
102
{ACAD_REACTORS
330
C
102
}
330
C
100
AcDbDictionary
  3
CANNOSCALE
350
BB
  3
DIMASSOC
350
B7
  3
HIDETEXT
350
B8
  3
MSLTSCALE
350
BC
  3
WIPEOUTFRAME
350
B6
  3
XCLIPFRAME
350
B3
  0
XRECORD
  5
BA
102
{ACAD_REACTORS
330
B9
102
}
330
B9
100
AcDbXrecord
102
VTR_0.000_0.000_1.000_1.000_GRIDDISPLAY
 70
     3
102
VTR_0.000_0.000_1.000_1.000_GRIDMAJOR
 70
     5
102
VTR_0.000_0.000_1.000_1.000_DEFAULTLIGHTING
280
     1
102
VTR_0.000_0.000_1.000_1.000_DEFAULTLIGHTINGTYPE
 70
     1
102
VTR_0.000_0.000_1.000_1.000_BRIGHTNESS
141
0.0
102
VTR_0.000_0.000_1.000_1.000_CONTRAST
142
0.0
  0
MATERIAL
  5
45
102
{ACAD_REACTORS
330
43
102
}
102
{ACAD_XDICTIONARY
360
BF
102
}
330
43
100
AcDbMaterial
  1
BYBLOCK
  0
MATERIAL
  5
44
102
{ACAD_REACTORS
330
43
102
}
102
{ACAD_XDICTIONARY
360
BD
102
}
330
43
100
AcDbMaterial
  1
BYLAYER
  0
MATERIAL
  5
46
102
{ACAD_REACTORS
330
43
102
}
102
{ACAD_XDICTIONARY
360
C1
102
}
330
43
100
AcDbMaterial
  1
GLOBAL
  0
MLINESTYLE
  5
18
102
{ACAD_REACTORS
330
17
102
}
330
17
100
AcDbMlineStyle
  2
Standard
 70
     0
  3

 62
   256
 51
90.0
 52
90.0
 71
     2
 49
0.5
 62
   256
  6
BYLAYER
 49
-0.5
 62
   256
  6
BYLAYER
  0
ACAD_PROXY_OBJECT
  5
48
102
{ACAD_REACTORS
330
47
102
}
330
47
100
AcDbProxyObject
 90
      499
 91
      503
 93
       41
310
903313A31580
  0
ACAD_PROXY_OBJECT
  5
49
102
{ACAD_REACTORS
330
47
102
}
330
47
100
AcDbProxyObject
 90
      499
 91
      503
 93
      105
310
903313A324000000000000004000
  0
ACAD_PROXY_OBJECT
  5
4A
102
{ACAD_REACTORS
330
47
102
}
330
47
100
AcDbProxyObject
 90
      499
 91
      503
 93
      105
310
903313A344000000000000104000
  0
ACAD_PROXY_OBJECT
  5
4B
102
{ACAD_REACTORS
330
47
102
}
330
47
100
AcDbProxyObject
 90
      499
 91
      503
 93
      105
310
903313A354000000000000144000
  0
ACAD_PROXY_OBJECT
  5
4C
102
{ACAD_REACTORS
330
47
102
}
330
47
100
AcDbProxyObject
 90
      499
 91
      503
 93
      105
310
903313A384000000000000204000
  0
ACAD_PROXY_OBJECT
  5
4D
102
{ACAD_REACTORS
330
47
102
}
330
47
100
AcDbProxyObject
 90
      499
 91
      503
 93
      113
310
904313A31304000000000000244000
  0
ACAD_PROXY_OBJECT
  5
4E
102
{ACAD_REACTORS
330
47
102
}
330
47
100
AcDbProxyObject
 90
      499
 91
      503
 93
      113
310
904313A31364000000000000304000
  0
ACAD_PROXY_OBJECT
  5
4F
102
{ACAD_REACTORS
330
47
102
}
330
47
100
AcDbProxyObject
 90
      499
 91
      503
 93
      113
310
904313A32304000000000000344000
  0
ACAD_PROXY_OBJECT
  5
50
102
{ACAD_REACTORS
330
47
102
}
330
47
100
AcDbProxyObject
 90
      499
 91
      503
 93
      113
310
904313A333040000000000003E4000
  0
ACAD_PROXY_OBJECT
  5
51
102
{ACAD_REACTORS
330
47
102
}
330
47
100
AcDbProxyObject
 90
      499
 91
      503
 93
      113
310
904313A34304000000000000444000
  0
ACAD_PROXY_OBJECT
  5
52
102
{ACAD_REACTORS
330
47
102
}
330
47
100
AcDbProxyObject
 90
      499
 91
      503
 93
      113
310
904313A35304000000000000494000
  0
ACAD_PROXY_OBJECT
  5
53
102
{ACAD_REACTORS
330
47
102
}
330
47
100
AcDbProxyObject
 90
      499
 91
      503
 93
      121
310
905313A3130304000000000000594000
  0
ACAD_PROXY_OBJECT
  5
54
102
{ACAD_REACTORS
330
47
102
}
330
47
100
AcDbProxyObject
 90
      499
 91
      503
 93
      105
310
903323A310000000000000010100
  0
ACAD_PROXY_OBJECT
  5
55
102
{ACAD_REACTORS
330
47
102
}
330
47
100
AcDbProxyObject
 90
      499
 91
      503
 93
      105
310
903343A310000000000000410100
  0
ACAD_PROXY_OBJECT
  5
56
102
{ACAD_REACTORS
330
47
102
}
330
47
100
AcDbProxyObject
 90
      499
 91
      503
 93
      105
310
903383A310000000000000810100
  0
ACAD_PROXY_OBJECT
  5
57
102
{ACAD_REACTORS
330
47
102
}
330
47
100
AcDbProxyObject
 90
      499
 91
      503
 93
      113
310
90431303A310000000000000910100
  0
ACAD_PROXY_OBJECT
  5
58
102
{ACAD_REACTORS
330
47
102
}
330
47
100
AcDbProxyObject
 90
      499
 91
      503
 93
      121
310
9053130303A310000000000001650100
  0
ACAD_PROXY_OBJECT
  5
59
102
{ACAD_REACTORS
330
47
102
}
330
47
100
AcDbProxyObject
 90
      499
 91
      503
 93
      257
310
90E312F31323822203D2031272D3022000000000000200FC000000000000284000
  0
ACAD_PROXY_OBJECT
  5
5A
102
{ACAD_REACTORS
330
47
102
}
330
47
100
AcDbProxyObject
 90
      499
 91
      503
 93
      249
310
90D312F363422203D2031272D3022000000000000240FC000000000000284000
  0
ACAD_PROXY_OBJECT
  5
5B
102
{ACAD_REACTORS
330
47
102
}
330
47
100
AcDbProxyObject
 90
      499
 91
      503
 93
      249
310
90D312F333222203D2031272D3022000000000000280FC000000000000284000
  0
ACAD_PROXY_OBJECT
  5
5C
102
{ACAD_REACTORS
330
47
102
}
330
47
100
AcDbProxyObject
 90
      499
 91
      503
 93
      249
310
90D312F313622203D2031272D30220000000000002C0FC000000000000284000
  0
ACAD_PROXY_OBJECT
  5
5D
102
{ACAD_REACTORS
330
47
102
}
330
47
100
AcDbProxyObject
 90
      499
 91
      503
 93
      249
310
90D332F333222203D2031272D30220000000000002E0FC000000000000284000
  0
ACAD_PROXY_OBJECT
  5
5E
102
{ACAD_REACTORS
330
47
102
}
330
47
100
AcDbProxyObject
 90
      499
 91
      503
 93
      241
310
90C312F3822203D2031272D3022000000000000300FC000000000000284000
  0
ACAD_PROXY_OBJECT
  5
5F
102
{ACAD_REACTORS
330
47
102
}
330
47
100
AcDbProxyObject
 90
      499
 91
      503
 93
      249
310
90D332F313622203D2031272D3022000000000000320FC000000000000284000
  0
ACAD_PROXY_OBJECT
  5
60
102
{ACAD_REACTORS
330
47
102
}
330
47
100
AcDbProxyObject
 90
      499
 91
      503
 93
      241
310
90C312F3422203D2031272D3022000000000000340FC000000000000284000
  0
ACAD_PROXY_OBJECT
  5
61
102
{ACAD_REACTORS
330
47
102
}
330
47
100
AcDbProxyObject
 90
      499
 91
      503
 93
      241
310
90C332F3822203D2031272D3022000000000000360FC000000000000284000
  0
ACAD_PROXY_OBJECT
  5
62
102
{ACAD_REACTORS
330
47
102
}
330
47
100
AcDbProxyObject
 90
      499
 91
      503
 93
      241
310
90C312F3222203D2031272D3022000000000000380FC000000000000284000
  0
ACAD_PROXY_OBJECT
  5
63
102
{ACAD_REACTORS
330
47
102
}
330
47
100
AcDbProxyObject
 90
      499
 91
      503
 93
      241
310
90C332F3422203D2031272D30220000000000003A0FC000000000000284000
  0
ACAD_PROXY_OBJECT
  5
64
102
{ACAD_REACTORS
330
47
102
}
330
47
100
AcDbProxyObject
 90
      499
 91
      503
 93
      161
310
90A3122203D2031272D30224000000000000284000
  0
ACAD_PROXY_OBJECT
  5
65
102
{ACAD_REACTORS
330
47
102
}
330
47
100
AcDbProxyObject
 90
      499
 91
      503
 93
      257
310
90E312D312F3222203D2031272D30220000000000003E0FC000000000000284000
  0
ACAD_PROXY_OBJECT
  5
66
102
{ACAD_REACTORS
330
47
102
}
330
47
100
AcDbProxyObject
 90
      499
 91
      503
 93
      225
310
90A3322203D2031272D302200000000000002100000000000000284000
  0
ACAD_PROXY_OBJECT
  5
67
102
{ACAD_REACTORS
330
47
102
}
330
47
100
AcDbProxyObject
 90
      499
 91
      503
 93
      225
310
90A3622203D2031272D302200000000000006100000000000000284000
  0
ACAD_PROXY_OBJECT
  5
68
102
{ACAD_REACTORS
330
47
102
}
330
47
100
AcDbProxyObject
 90
      499
 91
      503
 93
      249
310
90D31272D3022203D2031272D30220000000000000A100000000000000284000
  0
ACAD_PROXY_OBJECT
  5
2F
102
{ACAD_REACTORS
330
2A
102
}
330
2A
100
AcDbProxyObject
 90
      499
 91
      501
 93
      436
310
42CC9915DA5C99599C985B595049028333333333333E33F0000000000000F90107901411070040501600405405064090741402480A0340
1001
ACAD
1000
AcDbSavedByObjectVersion
1070
     0
  0
ACAD_PROXY_OBJECT
  5
32
102
{ACAD_REACTORS
330
2A
102
}
330
2A
100
AcDbProxyObject
 90
      499
 91
      501
 93
      388
310
4150985CDA58D07406404333333333333E33F0000000000000F90107A41107004050150841D405064090741402480A0350
1001
ACAD
1000
AcDbSavedByObjectVersion
1070
     0
  0
ACAD_PROXY_OBJECT
  5
36
102
{ACAD_REACTORS
330
2A
102
}
330
2A
100
AcDbProxyObject
 90
      499
 91
      501
 93
      428
310
42109C9A59DA1D195B90C409028333333333333E33F0000000000000F9010790141107004050150841D405064090741402480A029950
1001
ACAD
1000
AcDbSavedByObjectVersion
1070
     0
  0
ACAD_PROXY_OBJECT
  5
3A
102
{ACAD_REACTORS
330
2A
102
}
330
2A
100
AcDbProxyObject
 90
      499
 91
      501
 93
      452
310
42D0DBDB1BDC90DA185B99D95104090240C333333333333E33F0000000000000F90108901411070040501508421405064090741402480A0350
1001
ACAD
1000
AcDbSavedByObjectVersion
1070
     0
  0
ACAD_PROXY_OBJECT
  5
34
102
{ACAD_REACTORS
330
2A
102
}
330
2A
100
AcDbProxyObject
 90
      499
 91
      501
 93
      500
310
4290DBDB98D95C1D1D585B10940D028333333333333E33F0000000000000F90107902409070040501000000000018199010841D405064090740C02480A0340
1001
ACAD
1000
AcDbSavedByObjectVersion
1070
     0
  0
ACAD_PROXY_OBJECT
  5
35
102
{ACAD_REACTORS
330
2A
102
}
330
2A
100
AcDbProxyObject
 90
      499
 91
      501
 93
      412
310
40D11A5B50B409028333333333333E33F0000000000000F9010790141107004050150841D405064090741402480A02677FFFFFD0
1001
ACAD
1000
AcDbSavedByObjectVersion
1070
     0
  0
ACAD_PROXY_OBJECT
  5
3D
102
{ACAD_REACTORS
330
2A
102
}
330
2A
100
AcDbProxyObject
 90
      499
 91
      501
 93
      452
310
43115919D950DBDB1BDC93D999916409028333333333333E33F0000000000000F9010790141107004050150841D405064090741402480A0350
1001
ACAD
1000
AcDbSavedByObjectVersion
1070
     0
  0
ACAD_PROXY_OBJECT
  5
39
102
{ACAD_REACTORS
330
2A
102
}
330
2A
100
AcDbProxyObject
 90
      499
 91
      501
 93
      444
310
42D19858D95C185D1D195C9B90F409028333333333333E33F0000000000000F9010790141107004050150841D405064090741402480A0350
1001
ACAD
1000
AcDbSavedByObjectVersion
1070
     0
  0
ACAD_PROXY_OBJECT
  5
2B
102
{ACAD_REACTORS
330
2A
102
}
330
2A
100
AcDbProxyObject
 90
      499
 91
      501
 93
      380
310
41119B185D240901404333333333333E33F0000000000000F9010740A907004050150841D405064090741402480A1B50
1001
ACAD
1000
AcDbSavedByObjectVersion
1070
     0
  0
ACAD_PROXY_OBJECT
  5
2C
102
{ACAD_REACTORS
330
2A
102
}
330
2A
100
AcDbProxyObject
 90
      499
 91
      501
 93
      468
310
43519B185D15DA5D1A115919D95CD0140901404333333333333E33F0000000000000F90107409019070040501600405405064090741402480A1B50
1001
ACAD
1000
AcDbSavedByObjectVersion
1070
     0
  0
ACAD_PROXY_OBJECT
  5
2D
102
{ACAD_REACTORS
330
2A
102
}
330
2A
100
AcDbProxyObject
 90
      499
 91
      501
 93
      404
310
41D1DBDD5C985D5910240902404333333333333E33F0000000000000F9010740A9070040501641D405064090741402480A1B50
1001
ACAD
1000
AcDbSavedByObjectVersion
1070
     0
  0
ACAD_PROXY_OBJECT
  5
2E
102
{ACAD_REACTORS
330
2A
102
}
330
2A
100
AcDbProxyObject
 90
      499
 91
      501
 93
      492
310
4411DBDD5C985D5915DA5D1A115919D95CD0340902404333333333333E33F0000000000000F90107409019070040501600405405064090741402480A1B50
1001
ACAD
1000
AcDbSavedByObjectVersion
1070
     0
  0
ACAD_PROXY_OBJECT
  5
31
102
{ACAD_REACTORS
330
2A
102
}
330
2A
100
AcDbProxyObject
 90
      499
 91
      501
 93
      476
310
41921A5919195B90640502408333333333333E33F0000000000000F901079024090700405020000000000001110200405405064090740C02480A0340
1001
ACAD
1000
AcDbSavedByObjectVersion
1070
     0
  0
ACAD_PROXY_OBJECT
  5
3B
102
{ACAD_REACTORS
330
2A
102
}
330
2A
100
AcDbProxyObject
 90
      499
 91
      501
 93
      428
310
42529A5D1D195C93D999914409028333333333333E33F0000000000000F9010790141107004050150A41D405064090741402480A0350
1001
ACAD
1000
AcDbSavedByObjectVersion
1070
     0
  0
ACAD_PROXY_OBJECT
  5
38
102
{ACAD_REACTORS
330
2A
102
}
330
2A
100
AcDbProxyObject
 90
      499
 91
      501
 93
      444
310
42D31A5B995C185D1D195C9B90E409028333333333333E33F0000000000000F9010790141107004050750841D405064090741402483A0350
1001
ACAD
1000
AcDbSavedByObjectVersion
1070
     0
  0
ACAD_PROXY_OBJECT
  5
3C
102
{ACAD_REACTORS
330
2A
102
}
330
2A
100
AcDbProxyObject
 90
      499
 91
      501
 93
      444
310
42D3DD995C9A185B99D3D999915409028333333333333E33F0000000000000F9010790141107004050150941D405064090741402480A0350
1001
ACAD
1000
AcDbSavedByObjectVersion
1070
     0
  0
ACAD_PROXY_OBJECT
  5
33
102
{ACAD_REACTORS
330
2A
102
}
330
2A
100
AcDbProxyObject
 90
      499
 91
      501
 93
      428
310
425499585B1A5CDD1A58D08409038333333333333E33F0000000000000F9010740A907004050150800405405064090740C02480A1B40
1001
ACAD
1000
AcDbSavedByObjectVersion
1070
     0
  0
ACAD_PROXY_OBJECT
  5
42
102
{ACAD_REACTORS
330
2A
102
}
330
2A
100
AcDbProxyObject
 90
      499
 91
      501
 93
      420
310
4194DA1859195911B40902404333333333333E33F0000000000000F9010740A41107004050150800405405064090840C02480A0B40
1001
ACAD
1000
AcDbSavedByObjectVersion
1070
     0
  0
ACAD_PROXY_OBJECT
  5
41
102
{ACAD_REACTORS
330
2A
102
}
330
2A
100
AcDbProxyObject
 90
      499
 91
      501
 93
      516
310
4454DA18591959081DDA5D1A08195919D95CD1A40902404333333333333E33F0000000000000F901074090142907004050250800405405064090740C02480A0B40
1001
ACAD
1000
AcDbSavedByObjectVersion
1070
     0
  0
ACAD_PROXY_OBJECT
  5
3E
102
{ACAD_REACTORS
330
2A
102
}
330
2A
100
AcDbProxyObject
 90
      499
 91
      501
 93
      532
310
4394DA1859195CC81BD98811DC985E5174090240C333333333333E33F0000000000000F901079024090741D01000000000000111010841D405064090740C02480A0340
1001
ACAD
1000
AcDbSavedByObjectVersion
1070
     0
  0
ACAD_PROXY_OBJECT
  5
3F
102
{ACAD_REACTORS
330
2A
102
}
330
2A
100
AcDbProxyObject
 90
      499
 91
      501
 93
      476
310
41D4DAD95D18DA1E51840502408333333333333E33F0000000000000F901079024090741D01000000000000111010B41D405064090741802480A0340
1001
ACAD
1000
AcDbSavedByObjectVersion
1070
     0
  0
ACAD_PROXY_OBJECT
  5
37
102
{ACAD_REACTORS
330
2A
102
}
330
2A
100
AcDbProxyObject
 90
      499
 91
      501
 93
      412
310
41D51A1A58DAD95B90D409028333333333333E33F0000000000000F9010790141107004050150C41D405064090741402480A0350
1001
ACAD
1000
AcDbSavedByObjectVersion
1070
     0
  0
ACAD_PROXY_OBJECT
  5
30
102
{ACAD_REACTORS
330
2A
102
}
330
2A
100
AcDbProxyObject
 90
      499
 91
      501
 93
      420
310
4255DA5C99599C985B595059028333333333333E33F0000000000000F90107901411070040501600405405064090740C02480A0340
1001
ACAD
1000
AcDbSavedByObjectVersion
1070
     0
  0
ACAD_PROXY_OBJECT
  5
40
102
{ACAD_REACTORS
330
2A
102
}
330
2A
100
AcDbProxyObject
 90
      499
 91
      501
 93
      404
310
41560B54985E51940902404000000000000E03F0000000000000F9010740501907004050150841D405064090740C02480A1B40
1001
ACAD
1000
AcDbSavedByObjectVersion
1070
     0
  0
XRECORD
  5
99
102
{ACAD_REACTORS
330
8F
102
}
330
8F
100
AcDbXrecord
340
0
  0
XRECORD
  5
98
102
{ACAD_REACTORS
330
8F
102
}
330
8F
100
AcDbXrecord
 90
        0
  0
XRECORD
  5
AF
102
{ACAD_REACTORS
330
8F
102
}
330
8F
100
AcDbXrecord
1000
DSTYLE
1002
{
1070
   171
 70
     2
1070
   143
 40
25.4
1070
   274
 70
     2
1070
    41
 40
0.18
1070
   141
 40
0.09
1070
   271
 70
     4
1070
    43
 40
0.38
1070
   278
 70
    46
1070
    44
 40
0.18
1070
    42
 40
0.0625
1070
   147
 40
0.09
1070
    77
 70
     0
1070
   272
 70
     4
1070
    73
 70
     1
1070
   172
 70
     0
1070
    74
 70
     1
1070
   283
 70
     1
1070
   340
340
11
1070
   140
 40
0.18
1070
   284
 70
     0
1070
    78
 70
     0
1002
}
  0
XRECORD
  5
9A
102
{ACAD_REACTORS
330
8F
102
}
330
8F
100
AcDbXrecord
  1
{B231F50A-E33D-1F77-A2F6-B479536F53E6}
  0
XRECORD
  5
92
102
{ACAD_REACTORS
330
8F
102
}
330
8F
100
AcDbXrecord
  1

  0
XRECORD
  5
97
102
{ACAD_REACTORS
330
8F
102
}
330
8F
100
AcDbXrecord
 90
        4
  0
XRECORD
  5
94
102
{ACAD_REACTORS
330
8F
102
}
330
8F
100
AcDbXrecord
340
1A
  0
XRECORD
  5
96
102
{ACAD_REACTORS
330
8F
102
}
330
8F
100
AcDbXrecord
 90
    10781
  0
XRECORD
  5
95
102
{ACAD_REACTORS
330
8F
102
}
330
8F
100
AcDbXrecord
340
19
  0
XRECORD
  5
9C
102
{ACAD_REACTORS
330
8F
102
}
330
8F
100
AcDbXrecord
 40
0.0
  0
XRECORD
  5
9F
102
{ACAD_REACTORS
330
8F
102
}
330
8F
100
AcDbXrecord
340
0
  0
XRECORD
  5
A5
102
{ACAD_REACTORS
330
8F
102
}
330
8F
100
AcDbXrecord
 10
0.0
 20
0.0
 30
0.0
  0
XRECORD
  5
A1
102
{ACAD_REACTORS
330
8F
102
}
330
8F
100
AcDbXrecord
 10
0.0
 20
0.0
 30
0.0
  0
XRECORD
  5
A4
102
{ACAD_REACTORS
330
8F
102
}
330
8F
100
AcDbXrecord
 10
0.0
 20
0.0
 30
0.0
  0
XRECORD
  5
A2
102
{ACAD_REACTORS
330
8F
102
}
330
8F
100
AcDbXrecord
 10
0.0
 20
0.0
 30
0.0
  0
XRECORD
  5
A3
102
{ACAD_REACTORS
330
8F
102
}
330
8F
100
AcDbXrecord
 10
0.0
 20
0.0
 30
0.0
  0
XRECORD
  5
A0
102
{ACAD_REACTORS
330
8F
102
}
330
8F
100
AcDbXrecord
 10
0.0
 20
0.0
 30
0.0
  0
XRECORD
  5
9D
102
{ACAD_REACTORS
330
8F
102
}
330
8F
100
AcDbXrecord
340
0
  0
XRECORD
  5
9E
102
{ACAD_REACTORS
330
8F
102
}
330
8F
100
AcDbXrecord
 70
     0
  0
XRECORD
  5
93
102
{ACAD_REACTORS
330
8F
102
}
330
8F
100
AcDbXrecord
  1

  0
XRECORD
  5
90
102
{ACAD_REACTORS
330
8F
102
}
330
8F
100
AcDbXrecord
 90
        1
  0
XRECORD
  5
91
102
{ACAD_REACTORS
330
8F
102
}
330
8F
100
AcDbXrecord
 90
       70
  0
XRECORD
  5
A8
102
{ACAD_REACTORS
330
8F
102
}
330
8F
100
AcDbXrecord
340
0
  0
XRECORD
  5
AE
102
{ACAD_REACTORS
330
8F
102
}
330
8F
100
AcDbXrecord
 10
0.0
 20
0.0
 30
0.0
  0
XRECORD
  5
AA
102
{ACAD_REACTORS
330
8F
102
}
330
8F
100
AcDbXrecord
 10
0.0
 20
0.0
 30
0.0
  0
XRECORD
  5
AD
102
{ACAD_REACTORS
330
8F
102
}
330
8F
100
AcDbXrecord
 10
0.0
 20
0.0
 30
0.0
  0
XRECORD
  5
AB
102
{ACAD_REACTORS
330
8F
102
}
330
8F
100
AcDbXrecord
 10
0.0
 20
0.0
 30
0.0
  0
XRECORD
  5
AC
102
{ACAD_REACTORS
330
8F
102
}
330
8F
100
AcDbXrecord
 10
0.0
 20
0.0
 30
0.0
  0
XRECORD
  5
A9
102
{ACAD_REACTORS
330
8F
102
}
330
8F
100
AcDbXrecord
 10
0.0
 20
0.0
 30
0.0
  0
XRECORD
  5
A6
102
{ACAD_REACTORS
330
8F
102
}
330
8F
100
AcDbXrecord
340
0
  0
XRECORD
  5
A7
102
{ACAD_REACTORS
330
8F
102
}
330
8F
100
AcDbXrecord
 70
     0
  0
XRECORD
  5
9B
102
{ACAD_REACTORS
330
8F
102
}
330
8F
100
AcDbXrecord
  1
{FAEB1C32-E019-11D5-929B-00C0DF256EC4}
  0
DICTIONARYVAR
  5
BB
102
{ACAD_REACTORS
330
B0
102
}
330
B0
100
DictionaryVariables
280
     0
  1
1:1
  0
DICTIONARYVAR
  5
B7
102
{ACAD_REACTORS
330
B0
102
}
330
B0
100
DictionaryVariables
280
     0
  1
2
  0
DICTIONARYVAR
  5
B8
102
{ACAD_REACTORS
330
B0
102
}
330
B0
100
DictionaryVariables
280
     0
  1
1
  0
DICTIONARYVAR
  5
BC
102
{ACAD_REACTORS
330
B0
102
}
330
B0
100
DictionaryVariables
280
     0
  1
1
  0
DICTIONARYVAR
  5
B6
102
{ACAD_REACTORS
330
B0
102
}
330
B0
100
DictionaryVariables
280
     0
  1
0
  0
DICTIONARYVAR
  5
B3
102
{ACAD_REACTORS
330
B0
102
}
330
B0
100
DictionaryVariables
280
     0
  1
0
  0
DICTIONARY
  5
BF
330
45
100
AcDbDictionary
280
     1
  3
ACAD_XREC_ROUNDTRIP
360
C0
  0
DICTIONARY
  5
BD
330
44
100
AcDbDictionary
280
     1
  3
ACAD_XREC_ROUNDTRIP
360
BE
  0
DICTIONARY
  5
C1
330
46
100
AcDbDictionary
280
     1
  3
ACAD_XREC_ROUNDTRIP
360
C2
  0
XRECORD
  5
C0
102
{ACAD_REACTORS
330
BF
102
}
330
BF
100
AcDbXrecord
102
MATERIAL
148
0.0
149
0.0
149
0.0
 93
        0
 94
      127
282
     0
 72
     1
 77
     1
171
     1
175
     1
179
     1
273
     0
  0
XRECORD
  5
BE
102
{ACAD_REACTORS
330
BD
102
}
330
BD
100
AcDbXrecord
102
MATERIAL
148
0.0
149
0.0
149
0.0
 93
        0
 94
      127
282
     0
 72
     1
 77
     1
171
     1
175
     1
179
     1
273
     0
  0
XRECORD
  5
C2
102
{ACAD_REACTORS
330
C1
102
}
330
C1
100
AcDbXrecord
102
MATERIAL
148
0.0
149
0.0
149
0.0
 93
        0
 94
      127
282
     0
 72
     1
 77
     1
171
     1
175
     1
179
     1
273
     0
  0
ENDSEC
  0
EOF
